<svg xmlns="http://www.w3.org/2000/svg" width="150" height="50"><path d="M5 39 C63 29,92 38,143 28" stroke="#555" fill="none"/><path d="M15 13 C60 48,57 45,144 15" stroke="#999" fill="none"/><path d="M12 46 C75 44,68 15,147 9" stroke="#444" fill="none"/><path d="M15 39 C55 23,66 8,141 33" stroke="#222" fill="none"/><path fill="#333" d="M28.26 40.18L28.33 40.26L28.19 40.11Q26.45 40.16 24.77 40.73L24.76 40.72L24.74 40.70Q25.19 37.00 25.31 33.88L25.42 33.99L25.46 34.04Q25.43 30.85 25.20 27.19L25.23 27.22L25.23 27.21Q23.83 26.84 23.06 26.46L23.18 26.57L22.73 23.50L22.77 23.54Q23.55 24.21 25.15 24.78L25.07 24.70L25.15 24.77Q24.83 22.55 24.41 19.81L24.33 19.73L24.48 19.88Q26.72 20.52 28.35 20.37L28.33 20.34L28.23 24.96L28.29 25.02Q29.63 24.88 30.97 24.39L30.90 24.32L31.03 24.45Q30.93 25.30 30.70 27.05L30.67 27.02L30.74 27.09Q29.13 27.35 28.10 27.35L28.12 27.36L28.15 27.40Q28.24 29.65 28.24 33.92L28.06 33.74L28.12 33.80Q28.14 37.97 28.22 40.14ZM31.34 23.77L31.29 23.72L31.49 23.92Q31.05 23.87 30.45 24.09L30.58 24.23L30.86 21.35L30.87 21.36Q30.18 21.78 28.77 22.00L28.73 21.96L28.64 21.87Q28.68 21.23 28.84 19.86L28.75 19.77L28.79 19.81Q28.26 19.96 27.69 19.96L27.64 19.92L27.65 19.93Q25.48 19.89 23.85 19.17L23.95 19.27L23.88 19.20Q24.29 21.60 24.56 24.07L24.69 24.20L24.68 24.19Q23.70 23.74 22.18 22.72L22.23 22.77L22.17 22.71Q22.51 24.00 22.73 26.70L22.88 26.84L22.76 26.72Q23.28 27.01 24.46 27.43L24.48 27.46L24.41 27.38Q24.57 28.16 24.61 29.57L24.54 29.50L24.89 29.51L25.12 29.65L25.01 29.55Q25.02 30.73 25.02 31.91L25.02 31.92L24.98 31.88Q24.99 36.84 24.19 41.18L24.18 41.17L24.19 41.17Q24.53 41.21 26.47 40.68L26.44 40.65L26.39 40.59Q26.38 41.24 26.27 42.61L26.29 42.63L26.30 42.64Q27.06 42.53 27.86 42.53L27.92 42.58L27.95 42.62Q29.68 42.63 31.31 43.20L31.25 43.13L31.24 43.12Q29.94 37.45 30.13 29.53L30.12 29.52L32.43 29.05L32.51 29.13Q32.63 28.26 32.70 27.23L32.73 27.26L32.93 25.25L32.94 25.25Q32.32 25.48 31.14 25.94L31.04 25.83L31.10 25.89Q31.36 24.52 31.29 24.18L31.29 24.18L31.32 24.21Q31.28 23.97 31.35 23.78Z"/><path fill="#222" d="M54.97 25.08L55.02 25.12L54.90 25.00Q55.82 25.39 57.80 25.39L57.87 25.46L57.84 32.59L57.79 32.53Q57.96 36.93 58.08 39.83L58.04 39.79L58.07 39.82Q57.58 39.56 57.20 39.56L57.19 39.55L57.19 39.55Q55.84 39.65 54.40 40.98L54.41 40.99L54.46 41.04Q55.25 33.42 55.06 25.16ZM55.09 19.86L53.92 17.17L53.94 17.19Q55.41 16.07 56.13 15.12L56.11 15.10L56.15 15.13Q57.12 16.90 58.52 18.58L58.49 18.55L58.67 18.72Q57.71 20.09 56.34 22.22L56.44 22.32L56.46 22.34Q55.59 21.12 55.02 19.79L55.02 19.79ZM53.82 41.81L53.90 41.90L53.85 41.84Q54.74 40.65 56.00 40.15L56.03 40.18L56.15 40.30Q56.17 41.00 56.05 42.37L55.94 42.26L55.90 42.22Q56.69 42.10 57.34 42.10L57.35 42.11L57.20 41.96Q59.44 41.99 60.85 43.97L61.00 44.13L60.82 43.94Q59.72 36.75 59.79 26.58L59.71 26.50L59.75 26.54Q58.97 26.71 58.13 26.82L58.07 26.77L58.23 25.06L58.04 24.87Q57.02 24.99 56.22 24.92L56.39 25.09L56.35 25.04Q55.56 25.01 54.68 24.52L54.63 24.46L54.51 24.35Q54.73 26.47 54.73 28.53L54.74 28.54L54.67 28.47Q54.69 35.53 53.82 41.81ZM56.34 22.82L56.41 22.90L56.44 22.55L56.65 22.45L56.60 22.40Q57.14 23.32 58.16 24.80L58.05 24.69L58.06 24.69Q59.37 22.32 60.71 18.78L60.73 18.80L60.81 18.88Q59.98 18.17 58.42 16.57L58.42 16.57L58.41 16.56Q58.30 16.75 58.04 17.21L57.97 17.14L57.98 17.16Q57.07 15.94 56.16 14.49L56.14 14.48L55.98 14.32Q54.65 16.07 53.47 16.42L53.43 16.38L53.54 16.49Q54.54 19.85 56.37 22.86Z"/><path fill="#333" d="M84.59 25.09L84.67 25.17L84.63 25.13Q85.39 25.35 87.36 25.35L87.34 25.33L87.43 32.57L87.38 32.53Q87.46 36.83 87.57 39.72L87.66 39.81L87.60 39.75Q87.30 39.68 86.92 39.68L86.84 39.60L86.86 39.62Q85.32 39.53 83.88 40.86L83.99 40.97L83.92 40.90Q84.78 33.35 84.59 25.09ZM84.54 19.71L83.45 17.10L83.54 17.19Q85.04 16.10 85.76 15.14L85.70 15.09L85.72 15.10Q86.81 16.99 88.22 18.67L88.15 18.60L88.28 18.73Q87.36 20.14 85.99 22.27L85.95 22.22L85.92 22.20Q85.21 21.14 84.63 19.81L84.52 19.69ZM83.41 41.80L83.35 41.75L83.45 41.84Q84.38 40.68 85.63 40.18L85.68 40.22L85.77 40.31Q85.64 40.87 85.52 42.24L85.53 42.25L85.62 42.34Q86.17 41.97 86.81 41.97L86.99 42.15L86.96 42.12Q89.20 42.15 90.61 44.13L90.57 44.09L90.44 43.96Q89.27 36.70 89.34 26.53L89.43 26.62L89.27 26.46Q88.49 26.63 87.65 26.74L87.73 26.82L87.64 24.87L87.76 24.99Q86.69 25.06 85.89 24.98L85.95 25.05L85.98 25.07Q85.14 24.99 84.26 24.50L84.26 24.50L84.25 24.49Q84.33 26.47 84.33 28.53L84.34 28.53L84.40 28.60Q84.31 35.55 83.44 41.83ZM86.06 22.94L86.02 22.90L86.13 22.64L86.27 22.47L86.21 22.41Q86.80 23.38 87.83 24.87L87.70 24.74L87.79 24.83Q89.09 22.43 90.42 18.89L90.36 18.83L90.43 18.90Q89.53 18.12 87.97 16.52L87.91 16.46L88.02 16.56Q87.84 16.69 87.57 17.15L87.60 17.18L87.61 17.18Q86.49 15.77 85.58 14.32L85.63 14.37L85.63 14.37Q84.35 16.17 83.17 16.52L83.03 16.38L83.01 16.36Q84.29 19.99 86.11 23.00Z"/><path fill="#222" d="M107.37 39.02L107.39 39.04L107.29 38.94Q109.15 36.54 113.91 29.27L113.90 29.25L113.91 29.26Q117.89 23.01 120.75 19.73L120.86 19.84L120.90 19.88Q118.82 20.20 116.73 20.20L116.58 20.06L116.58 20.06Q111.40 20.14 107.41 18.35L107.45 18.39L107.49 18.43Q106.62 16.30 105.93 14.74L106.06 14.87L105.94 14.75Q110.63 17.04 116.31 17.16L116.24 17.09L116.36 17.22Q121.50 17.29 126.67 15.38L126.55 15.25L126.58 15.29Q126.24 16.17 125.94 16.97L125.87 16.90L125.38 18.58L125.23 18.43Q122.29 22.19 118.29 28.01L118.32 28.04L114.92 32.79L114.87 32.74Q113.17 35.15 111.34 37.43L111.53 37.62L111.40 37.49Q114.77 36.94 118.08 37.02L117.99 36.92L118.01 36.95Q121.50 37.20 124.66 38.11L124.53 37.99L125.04 39.60L124.96 39.52Q125.22 40.35 125.56 41.19L125.56 41.19L125.55 41.17Q120.96 39.67 115.82 39.86L115.76 39.79L115.80 39.83Q110.71 40.07 106.22 42.09L106.27 42.14L106.13 42.00Q106.58 41.00 107.30 38.95ZM105.66 42.83L105.57 42.74L105.61 42.78Q106.80 42.14 107.60 41.87L107.63 41.91L107.59 41.87Q107.38 42.68 106.69 44.20L106.67 44.18L106.67 44.19Q112.33 42.00 118.30 42.23L118.35 42.27L118.41 42.34Q124.64 42.47 129.66 45.25L129.71 45.29L129.64 45.23Q128.39 42.99 127.59 40.82L127.51 40.73L127.42 40.64Q127.06 40.55 125.54 39.98L125.47 39.91L125.42 39.86Q125.20 39.07 124.78 37.59L124.89 37.70L124.79 37.60Q120.63 36.40 115.52 36.59L115.60 36.67L115.56 36.63Q117.69 33.89 121.23 28.33L121.24 28.34L121.32 28.42Q124.96 22.69 126.86 20.14L126.90 20.17L126.93 20.21Q127.44 18.81 128.47 16.11L128.39 16.03L128.47 16.11Q127.76 16.43 126.32 17.04L126.17 16.90L126.26 16.99Q126.67 16.25 127.39 14.73L127.34 14.68L127.31 14.64Q121.93 16.73 116.22 16.66L116.20 16.63L116.29 16.72Q110.31 16.61 105.36 14.10L105.26 13.99L105.40 14.13Q106.51 16.46 107.24 18.71L107.25 18.73L107.22 18.69Q108.34 19.24 109.14 19.47L109.16 19.49L109.19 19.52Q109.28 20.03 109.55 21.48L109.67 21.60L109.59 21.52Q113.31 22.58 118.19 22.39L118.31 22.51L118.16 22.36Q115.85 25.65 112.54 30.64L112.54 30.64L107.08 39.04L107.10 39.06Q106.66 40.25 105.63 42.80Z"/></svg>