<svg xmlns="http://www.w3.org/2000/svg" width="150" height="50"><path d="M13 44 C66 22,89 6,147 10" stroke="#555" fill="none"/><path d="M3 23 C57 43,84 29,146 1" stroke="#888" fill="none"/><path d="M17 28 C89 22,96 47,130 28" stroke="#333" fill="none"/><path d="M12 38 C94 46,71 32,136 2" stroke="#555" fill="none"/><path fill="#444" d="M29.00 20.21L28.91 20.13L28.95 20.16Q24.59 20.10 20.90 19.11L20.98 19.20L20.78 19.00Q22.31 23.57 22.50 28.41L22.52 28.43L22.54 28.45Q22.88 33.39 21.66 37.99L21.63 37.97L21.59 37.93Q24.31 37.22 27.81 37.07L27.80 37.06L27.93 37.19Q31.78 36.93 33.57 34.49L33.67 34.59L33.66 34.58Q35.09 32.43 35.28 28.32L35.41 28.44L35.33 28.36Q35.45 26.66 34.99 24.95L34.96 24.91L34.88 24.84Q33.70 20.20 28.98 20.20ZM17.03 42.17L17.10 42.23L17.09 42.22Q19.83 36.40 19.83 29.70L19.91 29.78L19.90 29.77Q19.98 21.32 15.68 14.32L15.55 14.19L15.58 14.21Q20.84 16.89 29.11 17.08L29.06 17.04L29.09 17.06Q38.04 17.34 38.38 24.49L38.38 24.49L38.37 24.48Q38.35 27.05 38.32 28.50L38.31 28.50L38.41 28.59Q38.32 33.26 37.48 35.43L37.57 35.53L37.53 35.48Q36.98 36.45 36.22 37.29L36.33 37.40L36.27 37.34Q34.89 38.86 32.26 39.35L32.40 39.49L32.37 39.46Q30.73 39.68 27.72 39.91L27.68 39.87L27.79 39.98Q21.70 40.47 17.09 42.23ZM34.93 42.02L34.85 41.94L35.01 42.09Q37.65 41.66 39.29 40.17L39.33 40.21L39.27 40.15Q40.46 38.38 40.43 35.64L40.50 35.71L40.44 35.65Q40.39 34.23 40.24 30.73L40.27 30.76L39.89 26.19L39.96 26.26Q39.85 24.05 38.89 21.96L38.86 21.92L38.84 21.91Q38.25 20.89 37.56 20.25L37.68 20.36L37.54 20.07L37.60 20.14Q35.96 17.23 31.54 16.85L31.45 16.76L31.50 16.81Q28.77 16.63 21.76 15.91L21.72 15.86L21.70 15.85Q18.52 15.48 14.83 13.46L14.83 13.46L14.82 13.46Q19.71 20.90 19.71 29.66L19.72 29.67L19.76 29.70Q19.68 36.63 16.33 42.80L16.39 42.85L16.34 42.81Q16.97 42.48 18.30 41.99L18.25 41.94L18.29 41.98Q17.93 42.79 17.05 44.28L17.13 44.36L17.21 44.44Q20.14 43.25 23.49 42.76L23.54 42.81L23.42 42.69Q25.66 42.53 29.31 42.41L29.27 42.37L29.23 42.33Q33.16 42.26 34.98 42.07ZM34.88 28.30L34.94 28.36L35.05 28.47Q34.65 36.44 27.95 36.82L27.95 36.83L27.89 36.76Q25.86 36.79 23.80 37.06L23.92 37.17L23.92 37.18Q24.59 33.28 24.59 29.63L24.58 29.62L24.63 29.66Q24.53 25.87 23.81 22.03L23.80 22.01L23.76 21.98Q26.14 22.45 30.82 22.45L30.72 22.35L30.77 22.40Q32.17 22.28 33.81 23.24L33.90 23.33L33.81 23.24Q35.03 25.44 34.88 28.30Z"/><path fill="#222" d="M58.24 27.71L58.25 27.72L58.32 27.79Q54.78 27.68 53.67 31.03L53.72 31.07L53.70 31.06Q53.28 32.08 53.17 33.15L53.16 33.14L53.19 33.17Q52.87 35.10 53.86 36.43L53.92 36.49L53.95 36.52Q55.31 37.73 57.79 37.77L57.80 37.78L57.78 37.76Q59.61 37.80 61.01 36.66L61.01 36.65L61.03 36.67Q62.34 35.43 62.34 33.64L62.47 33.77L62.30 33.60Q62.43 33.39 62.36 33.01L62.30 32.96L62.36 33.01Q62.08 27.82 58.27 27.75ZM58.08 40.11L58.15 40.19L58.25 40.29Q54.42 40.49 52.63 38.48L52.46 38.30L52.61 38.45Q52.33 39.43 51.88 40.80L51.78 40.71L51.95 40.88Q49.94 41.57 48.68 42.14L48.54 41.99L48.68 42.14Q50.91 36.22 50.91 29.71L50.89 29.69L50.93 29.73Q50.75 21.25 47.32 13.41L47.47 13.56L47.44 13.53Q49.68 14.78 51.01 15.23L51.02 15.24L51.15 15.37Q53.07 21.82 53.22 27.64L53.22 27.65L53.33 27.75Q54.87 25.18 58.60 25.22L58.45 25.07L58.56 25.18Q61.76 25.18 63.25 27.05L63.24 27.05L63.35 27.15Q65.10 29.35 65.25 32.93L65.29 32.98L65.26 32.94Q65.33 34.12 65.25 35.72L65.10 35.56L65.15 35.62Q65.16 37.11 64.29 38.25L64.35 38.32L64.35 38.32Q62.47 39.90 58.13 40.17ZM63.55 42.61L63.70 42.77L63.59 42.66Q65.15 42.73 66.64 42.05L66.60 42.02L66.58 42.00Q67.83 40.85 67.87 38.90L67.82 38.85L67.71 38.75Q67.82 38.36 67.66 37.18L67.72 37.23L67.67 37.18Q67.48 36.38 67.37 35.47L67.46 35.56L67.51 35.62Q66.67 30.81 65.11 28.76L65.07 28.72L65.03 28.68Q65.01 28.62 64.21 27.74L64.22 27.76L64.33 27.87Q63.92 27.42 63.39 26.62L63.42 26.65L63.46 26.69Q61.87 24.75 58.52 24.79L58.62 24.90L58.44 24.72Q56.44 24.81 55.18 25.42L55.15 25.38L55.21 25.45Q54.80 20.85 54.19 17.65L54.22 17.68L54.35 17.81Q53.45 17.48 51.97 17.10L52.09 17.23L52.05 17.18Q51.97 16.49 51.51 15.05L51.53 15.06L51.47 15.00Q49.05 14.22 46.80 12.66L46.84 12.69L46.77 12.63Q50.47 20.74 50.47 29.53L50.61 29.68L50.53 29.60Q50.50 36.54 48.03 42.74L48.07 42.78L48.07 42.78Q48.74 42.42 50.07 41.85L50.04 41.82L50.05 41.83Q49.89 42.66 49.28 44.18L49.33 44.23L49.18 44.08Q51.27 43.28 54.05 42.75L54.04 42.74L54.42 40.91L54.48 40.97Q56.80 42.69 63.73 42.80ZM59.77 29.93L59.89 30.05L59.92 30.08Q60.95 30.08 61.49 30.46L61.37 30.34L61.46 30.44Q61.72 30.89 61.95 32.90L61.94 32.90L62.00 32.95Q62.18 34.81 60.92 36.12L60.88 36.09L60.90 36.10Q59.63 37.41 57.69 37.29L57.70 37.30L57.64 37.24Q56.74 37.41 55.25 36.91L55.33 36.98L55.41 37.06Q55.08 36.47 55.08 35.93L55.01 35.87L55.20 36.05Q55.20 32.97 56.76 31.38L56.69 31.31L56.57 31.22L56.72 31.37Q58.11 29.95 59.87 30.02Z"/><path fill="#333" d="M116.64 18.43L116.69 18.48L116.63 18.42Q115.92 18.81 115.77 19.61L115.77 19.61L115.74 24.72L115.82 24.80Q116.97 24.80 119.18 24.54L119.21 24.58L119.17 24.53Q119.13 24.95 119.09 25.79L119.12 25.81L119.01 25.70Q119.05 26.55 119.05 27.01L119.01 26.96L117.40 27.03L117.44 27.06Q116.68 27.18 115.80 27.18L115.76 27.13L115.77 27.15Q115.82 31.38 115.74 39.76L115.70 39.72L115.79 39.80Q113.55 39.85 112.06 40.53L112.09 40.56L111.97 40.44Q113.04 34.28 112.93 27.04L112.89 27.01L112.92 27.04Q112.30 27.02 111.00 26.76L111.10 26.86L110.98 26.74Q110.94 25.70 110.75 23.76L110.91 23.93L110.85 23.86Q111.92 24.33 112.87 24.52L112.89 24.54L112.86 24.51Q112.91 23.95 112.61 21.47L112.63 21.49L112.58 21.45Q112.31 19.35 112.31 18.40L112.39 18.48L112.41 18.50Q112.40 16.81 113.81 16.24L113.68 16.11L113.67 16.10Q114.48 15.73 119.31 14.89L119.41 14.99L119.43 15.01Q120.18 14.81 121.02 14.69L121.12 14.80L121.10 14.78Q120.91 15.57 120.76 16.45L120.74 16.43L120.34 17.90L120.44 17.99Q119.64 17.70 119.15 17.81L119.12 17.78L119.15 17.82Q118.63 17.90 116.73 18.51ZM122.09 19.57L122.16 19.64L122.05 19.53Q122.41 17.35 123.02 14.80L123.10 14.87L123.13 14.90Q122.38 15.10 121.09 15.71L121.17 15.80L121.61 14.14L121.51 14.05Q120.40 14.34 117.92 14.87L117.85 14.80L117.78 14.73Q116.76 14.97 113.56 15.88L113.45 15.77L113.37 15.69Q111.96 16.26 111.96 18.12L111.94 18.11L111.98 18.15Q111.87 18.34 111.95 18.68L112.01 18.74L111.95 18.68Q112.17 20.00 112.28 21.34L112.38 21.43L112.56 24.09L112.57 24.10Q111.12 23.64 110.47 23.18L110.43 23.14L110.48 23.19Q110.69 24.24 110.73 25.27L110.63 25.17L110.72 27.12L110.74 27.14Q111.52 27.39 112.32 27.46L112.37 27.51L112.32 29.56L112.73 29.59L112.72 29.57Q112.60 35.70 111.61 41.14L111.56 41.09L111.56 41.10Q112.46 40.51 113.64 40.24L113.67 40.27L113.64 42.49L113.59 42.44Q114.84 42.17 116.13 42.13L116.06 42.06L116.17 42.17Q117.27 42.01 118.53 42.28L118.53 42.28L118.65 42.40Q117.77 37.37 117.77 29.41L117.79 29.44L117.66 29.30Q118.79 29.33 120.89 29.41L120.98 29.50L120.97 27.63L120.90 27.56Q120.90 26.60 120.93 25.65L120.88 25.60L120.96 25.67Q120.50 25.78 119.43 26.05L119.42 26.04L119.32 25.94Q119.46 25.39 119.57 24.06L119.53 24.02L119.53 24.02Q118.75 24.30 117.95 24.38L117.96 24.39L117.85 24.28Q117.84 22.86 117.95 21.45L117.92 21.42L117.98 21.47Q118.25 20.95 118.78 20.60L118.75 20.57L118.78 20.61Q119.65 19.84 120.47 19.76L120.47 19.76L120.46 19.75Q121.24 19.63 122.07 19.56Z"/><path fill="#333" d="M87.95 27.83L87.88 27.75L87.96 27.83Q84.36 27.66 83.26 31.01L83.25 31.00L83.18 30.94Q82.86 32.06 82.75 33.13L82.79 33.17L82.68 33.06Q82.62 35.24 83.61 36.58L83.47 36.44L83.52 36.49Q84.82 37.64 87.29 37.67L87.37 37.75L87.28 37.66Q89.20 37.79 90.61 36.65L90.52 36.56L90.57 36.61Q91.89 35.38 91.89 33.59L91.98 33.68L91.96 33.66Q91.93 33.29 91.86 32.91L91.87 32.92L91.85 32.90Q91.59 27.74 87.79 27.66ZM87.67 40.11L87.78 40.21L87.75 40.18Q83.96 40.43 82.17 38.41L82.10 38.34L82.24 38.48Q81.92 39.42 81.46 40.79L81.37 40.70L81.47 40.80Q79.45 41.48 78.19 42.05L78.29 42.14L78.16 42.01Q80.42 36.13 80.42 29.62L80.50 29.70L80.49 29.69Q80.45 21.35 77.02 13.51L77.00 13.49L77.09 13.58Q79.33 14.83 80.66 15.28L80.74 15.36L80.75 15.37Q82.71 21.86 82.86 27.69L82.90 27.73L82.99 27.81Q84.38 25.09 88.11 25.13L88.09 25.11L88.15 25.17Q91.43 25.25 92.92 27.12L92.86 27.06L92.82 27.02Q94.58 29.24 94.74 32.82L94.83 32.91L94.72 32.81Q94.79 33.98 94.71 35.58L94.86 35.72L94.87 35.74Q94.74 37.08 93.86 38.23L93.90 38.27L93.78 38.15Q92.07 39.90 87.73 40.17ZM93.19 42.65L93.18 42.64L93.30 42.77Q94.85 42.83 96.33 42.14L96.18 41.99L96.23 42.04Q97.37 40.78 97.41 38.84L97.48 38.91L97.34 38.78Q97.42 38.36 97.27 37.18L97.28 37.20L97.27 37.18Q97.19 36.49 97.07 35.58L96.96 35.47L97.00 35.51Q96.11 30.65 94.55 28.60L94.56 28.61L94.61 28.66Q94.72 28.73 93.92 27.85L93.87 27.80L93.75 27.69Q93.66 27.56 93.13 26.76L93.07 26.70L93.14 26.77Q91.41 24.69 88.06 24.73L88.19 24.86L88.16 24.84Q85.99 24.76 84.74 25.37L84.88 25.51L84.82 25.46Q84.56 21.01 83.95 17.81L83.87 17.73L83.94 17.80Q83.14 17.57 81.65 17.19L81.60 17.13L81.73 17.27Q81.45 16.37 80.99 14.93L81.03 14.96L81.10 15.04Q78.61 14.18 76.36 12.62L76.38 12.64L76.38 12.64Q80.13 20.81 80.13 29.60L80.17 29.64L80.08 29.55Q80.05 36.48 77.58 42.69L77.75 42.86L77.65 42.76Q78.42 42.51 79.75 41.94L79.69 41.88L79.65 41.83Q79.36 42.53 78.75 44.06L78.89 44.20L78.88 44.19Q80.76 43.17 83.54 42.63L83.61 42.71L83.92 40.81L83.90 40.79Q86.25 42.53 93.17 42.64ZM89.50 30.06L89.53 30.09L89.54 30.10Q90.45 29.98 90.98 30.36L90.93 30.31L91.09 30.47Q91.32 30.89 91.55 32.91L91.60 32.96L91.52 32.88Q91.80 34.84 90.55 36.15L90.54 36.14L90.50 36.11Q89.25 37.43 87.31 37.31L87.29 37.29L87.38 37.38Q86.51 37.58 85.02 37.08L84.99 37.04L84.85 36.91Q84.69 36.48 84.69 35.95L84.80 36.05L84.75 36.01Q84.76 32.93 86.32 31.33L86.32 31.33L86.27 31.32L86.15 31.21Q87.77 30.00 89.52 30.08Z"/></svg>