<svg xmlns="http://www.w3.org/2000/svg" width="150" height="50"><path d="M19 19 C70 1,92 46,130 6" stroke="#666" fill="none"/><path d="M19 40 C78 33,84 22,148 3" stroke="#222" fill="none"/><path fill="#444" d="M30.43 27.09L30.61 27.26L30.60 27.26Q31.27 27.13 32.68 26.98L32.66 26.95L32.77 27.07Q32.62 27.60 32.62 28.25L32.77 28.40L32.62 29.50L32.77 29.65Q31.90 29.62 31.06 29.70L31.09 29.73L31.11 29.74Q30.15 29.66 29.31 29.62L29.25 29.56L29.34 29.65Q26.53 35.87 23.11 40.47L23.08 40.45L23.09 40.46Q20.47 41.00 19.18 41.61L19.27 41.70L19.16 41.59Q23.43 36.04 26.48 29.76L26.43 29.71L23.81 29.71L23.86 29.76Q23.70 28.28 23.59 26.94L23.72 27.08L23.71 27.06Q25.52 27.13 27.58 27.13L27.69 27.24L29.49 23.44L29.48 23.43Q30.52 21.58 31.73 19.98L31.81 20.06L31.65 19.90Q30.24 20.19 28.64 20.19L28.63 20.19L28.65 20.20Q22.38 20.03 18.62 17.82L18.71 17.91L18.00 16.14L18.02 16.16Q17.74 15.39 17.36 14.52L17.29 14.44L17.44 14.59Q21.75 17.19 27.46 17.41L27.43 17.38L27.33 17.29Q32.62 17.66 37.76 15.68L37.77 15.70L37.62 15.55Q37.41 15.94 36.91 16.82L37.08 16.99L36.89 16.79Q33.41 21.69 30.55 27.21ZM38.67 18.35L38.65 18.32L39.60 16.27L39.48 16.15Q38.62 16.74 36.95 17.46L36.85 17.37L37.11 17.13L37.18 17.20Q37.17 16.93 37.29 16.81L37.33 16.85L37.34 16.86Q37.65 16.11 38.37 14.77L38.54 14.95L38.41 14.82Q33.17 17.19 27.42 16.96L27.37 16.91L27.41 16.95Q21.38 16.67 16.62 13.70L16.71 13.78L16.69 13.77Q17.69 15.60 18.52 18.26L18.57 18.31L18.44 18.18Q19.62 18.90 20.42 19.21L20.34 19.13L20.46 19.24Q20.51 19.49 20.97 21.36L20.98 21.37L21.07 21.46Q24.20 22.69 29.72 22.54L29.69 22.50L29.61 22.42Q29.43 23.12 27.45 26.89L27.37 26.81L27.43 26.86Q25.25 26.74 23.27 26.55L23.45 26.73L23.31 26.59Q23.39 27.43 23.39 28.30L23.52 28.44L23.44 30.07L25.16 30.12L25.06 31.42L25.16 31.52Q21.18 38.85 18.40 42.43L18.48 42.51L18.48 42.51Q19.92 41.59 21.55 41.09L21.58 41.12L21.66 41.20Q20.98 42.11 19.61 43.82L19.68 43.90L19.51 43.73Q22.67 42.63 25.11 42.40L25.09 42.38L25.15 42.44Q28.13 38.72 31.25 31.94L31.20 31.89L34.74 32.20L34.75 32.21Q34.50 31.12 34.50 30.20L34.50 30.20L34.58 28.49L34.55 28.46Q34.37 28.55 33.82 28.59L33.85 28.62L33.78 28.55Q33.31 28.68 33.05 28.68L32.94 28.57L33.02 28.65Q32.94 28.45 32.98 28.30L33.04 28.36L33.07 28.13L32.97 28.03Q35.60 23.01 38.68 18.36Z"/><path d="M11 31 C90 35,57 21,134 47" stroke="#666" fill="none"/><path fill="#444" d="M114.75 28.70L114.59 28.54L114.73 28.68Q111.78 28.54 111.01 30.79L111.07 30.85L111.18 30.95Q110.80 31.52 110.68 32.17L110.79 32.28L110.77 32.25Q113.37 32.46 115.01 32.46L114.92 32.37L114.91 32.36Q116.70 32.51 119.29 32.40L119.30 32.41L119.22 32.33Q119.09 30.60 117.68 29.53L117.71 29.56L117.70 29.55Q116.40 28.56 114.61 28.56ZM114.84 41.27L114.67 41.11L114.82 41.26Q110.46 41.12 109.17 39.71L109.14 39.68L109.18 39.73Q108.33 38.38 108.18 35.11L108.05 34.98L108.18 35.11Q108.12 34.82 108.04 33.45L108.10 33.51L108.09 33.50Q107.97 31.20 107.97 30.48L107.93 30.45L107.95 30.46Q107.83 28.48 108.56 27.38L108.58 27.40L108.66 27.48Q110.04 26.04 113.01 26.04L113.08 26.11L114.53 26.00L114.50 25.97Q116.55 25.96 118.07 26.27L118.16 26.36L118.10 26.30Q120.27 26.87 121.26 28.09L121.18 28.00L121.18 28.01Q121.91 29.20 121.99 31.29L121.97 31.27L121.90 31.21Q121.87 32.32 121.91 34.49L121.93 34.51L121.98 34.56Q119.04 34.51 116.26 34.51L116.17 34.42L110.66 34.50L110.75 34.60Q110.83 38.94 114.90 38.71L114.97 38.78L114.84 38.64Q118.75 38.60 119.97 36.77L119.86 36.66L119.85 36.65Q120.78 37.24 122.37 38.42L122.42 38.46L122.31 38.35Q120.89 40.70 116.74 40.97L116.89 41.11L116.77 41.00Q116.16 41.15 114.79 41.22ZM117.10 43.58L117.07 43.55L117.01 43.48Q118.11 43.44 119.33 43.52L119.37 43.55L119.44 43.63Q124.36 43.75 125.27 40.97L125.26 40.96L125.26 40.95Q123.58 39.66 122.47 38.90L122.54 38.96L122.54 38.96Q122.66 38.51 122.85 38.28L122.92 38.35L122.92 38.35Q122.07 37.77 120.70 36.82L120.87 36.98L120.82 36.94Q121.77 36.85 123.82 37.16L123.85 37.19L123.86 37.20Q123.79 35.95 123.72 35.27L123.76 35.31L123.58 33.34L123.53 33.29Q123.42 30.98 122.78 29.49L122.67 29.38L122.81 29.52Q122.55 29.18 121.98 28.58L121.88 28.48L121.83 28.43Q121.76 28.20 121.53 27.63L121.42 27.53L121.48 27.58Q119.67 25.62 114.61 25.62L114.56 25.58L112.94 25.63L112.93 25.62Q109.73 25.65 108.28 27.14L108.20 27.06L108.26 27.12Q107.59 28.24 107.63 30.29L107.46 30.12L107.61 30.27Q107.67 31.25 107.78 33.49L107.72 33.43L107.68 33.40Q107.73 34.97 107.85 37.02L108.00 37.17L107.95 37.13Q108.19 39.34 109.06 40.41L109.16 40.51L109.04 40.39Q109.21 40.56 109.40 40.67L109.48 40.75L109.71 41.32L109.72 41.33Q110.56 43.24 117.15 43.62ZM114.90 38.29L114.88 38.27L114.86 38.25Q113.75 38.39 112.83 37.94L112.89 37.99L112.78 37.88Q112.86 37.62 112.67 36.93L112.61 36.88L112.60 36.87Q114.23 36.71 115.83 36.71L115.82 36.70L115.87 36.75Q117.57 36.77 119.25 36.89L119.30 36.94L119.19 36.83Q117.99 38.26 114.98 38.37ZM116.61 31.01L116.57 30.98L116.66 31.06Q117.26 31.05 118.59 31.43L118.63 31.47L118.62 31.66L118.75 31.97L118.81 32.03Q117.37 32.08 116.46 32.05L116.48 32.06L116.44 32.02Q114.14 31.97 114.10 31.97L114.14 32.01L114.09 31.96Q114.85 31.05 116.53 30.93Z"/><path d="M2 12 C76 3,86 3,130 31" stroke="#888" fill="none"/><path fill="#333" d="M57.82 40.03L57.94 40.15L55.80 40.29L55.82 40.31Q55.27 40.22 54.30 40.28L54.38 40.36L54.34 40.31Q53.40 40.40 52.90 40.40L52.85 40.35L52.89 40.39Q51.31 40.45 50.28 39.61L50.26 39.59L50.31 39.64Q51.04 38.46 52.67 36.33L52.63 36.28L52.65 36.31Q53.90 37.86 56.11 37.63L56.06 37.58L56.06 37.58Q56.97 37.47 57.62 36.82L57.69 36.89L57.62 36.82Q58.41 36.32 58.30 35.44L58.20 35.35L58.34 35.48Q58.17 30.82 58.24 26.25L58.22 26.23L58.25 26.26Q58.27 21.63 58.80 17.03L58.81 17.03L58.84 17.07Q60.68 16.77 62.81 15.74L62.78 15.72L62.78 15.71Q60.96 22.49 60.96 29.73L61.01 29.77L61.06 29.83Q60.92 33.23 61.38 36.73L61.40 36.75L61.52 36.88Q61.57 37.19 61.57 37.53L61.50 37.46L61.61 37.58Q61.52 38.06 61.29 38.59L61.26 38.56L61.20 38.49Q60.65 39.78 57.83 40.04ZM62.92 43.04L62.79 42.90L63.21 42.99L63.53 42.88L63.65 42.62L63.66 42.63Q64.07 42.47 64.15 42.36L64.03 42.24L64.21 42.42Q64.25 41.09 63.99 40.10L63.94 40.06L64.01 40.13Q62.70 34.36 62.96 28.00L62.96 27.99L62.96 28.00Q63.12 21.80 64.91 15.90L64.95 15.94L64.91 15.90Q64.16 16.68 62.91 17.40L62.87 17.36L62.84 17.34Q63.13 16.67 63.55 15.15L63.52 15.12L63.46 15.06Q61.03 16.48 58.37 16.78L58.25 16.66L58.33 16.74Q57.86 21.04 57.79 25.99L57.97 26.17L57.78 25.98Q57.72 31.89 57.80 35.32L57.79 35.32L57.80 35.33Q57.93 37.17 56.18 37.32L56.13 37.27L56.20 37.34Q54.36 37.32 52.68 35.69L52.73 35.74L52.77 35.77Q50.75 38.32 49.80 39.89L49.75 39.84L49.79 39.88Q50.37 40.46 51.40 40.69L51.36 40.65L51.37 40.66Q51.35 40.87 51.09 41.10L51.02 41.03L51.13 41.15Q52.50 42.01 54.47 42.28L54.48 42.28L54.47 42.27Q54.95 42.41 58.24 42.72L58.27 42.75L58.12 42.60Q61.49 42.98 62.86 42.98Z"/><path fill="#333" d="M86.58 23.49L86.42 23.32L86.58 23.48Q83.25 23.35 81.42 22.28L81.38 22.25L81.53 22.40Q83.97 20.95 88.85 16.73L88.92 16.80L88.89 16.77Q89.61 16.58 90.91 15.97L90.97 16.03L90.94 16.00Q89.61 21.95 89.50 28.31L89.49 28.29L89.47 28.28Q89.38 34.66 90.44 40.75L90.44 40.74L90.28 40.59Q88.72 39.98 86.59 39.86L86.52 39.79L86.50 39.77Q86.39 35.63 86.39 31.55L86.47 31.64L86.38 31.54Q86.45 27.51 86.49 23.40ZM86.11 25.64L86.07 40.18L86.12 40.23Q87.40 40.29 88.35 40.48L88.19 40.32L88.20 40.34Q88.28 41.02 88.47 42.39L88.62 42.55L88.50 42.42Q91.46 43.06 93.90 45.31L93.87 45.28L93.91 45.32Q91.34 38.10 91.30 30.64L91.26 30.60L91.33 30.67Q91.19 23.14 93.02 15.91L93.06 15.95L93.02 15.91Q92.58 16.43 90.98 17.53L90.86 17.41L90.90 17.45Q91.04 16.64 91.35 15.12L91.36 15.13L91.53 15.30Q90.13 16.00 88.68 16.38L88.76 16.46L88.71 16.41Q84.88 19.92 80.58 22.21L80.66 22.28L80.59 22.22Q82.10 23.42 84.46 23.76L84.41 23.72L84.31 23.61Q83.72 24.20 82.43 25.27L82.35 25.19L82.49 25.34Q83.81 25.55 86.02 25.55L86.07 25.60Z"/></svg>