<svg xmlns="http://www.w3.org/2000/svg" width="150" height="50"><path d="M18 30 C55 15,61 36,144 7" stroke="#666" fill="none"/><path d="M12 47 C57 11,92 37,146 2" stroke="#222" fill="none"/><path d="M10 13 C76 7,55 11,145 14" stroke="#333" fill="none"/><path fill="#111" d="M26.79 29.28L26.67 29.17L26.64 29.14Q24.86 29.23 23.64 30.56L23.66 30.58L23.60 30.52Q22.41 31.88 22.26 33.78L22.16 33.68L22.30 33.82Q22.08 35.93 23.30 36.93L23.23 36.86L23.22 36.86Q24.57 37.99 26.70 37.92L26.56 37.77L26.66 37.88Q28.90 37.65 29.85 36.69L29.81 36.65L29.85 36.69Q31.00 35.36 30.88 33.53L30.71 33.36L30.87 33.53Q30.62 31.52 29.53 30.32L29.60 30.38L29.57 30.35Q28.60 29.28 26.78 29.28ZM26.65 19.75L26.61 19.70L26.72 19.82Q25.15 19.54 23.82 20.03L23.86 20.08L23.84 20.06Q22.64 20.95 22.87 22.82L22.77 22.72L22.92 22.87Q23.31 26.50 26.66 26.50L26.67 26.50L26.69 26.53Q28.20 26.67 29.19 25.52L29.23 25.56L29.19 25.52Q30.15 24.36 30.19 22.79L30.18 22.79L30.28 22.88Q30.33 21.11 29.61 20.50L29.57 20.46L29.56 20.45Q27.85 19.58 26.56 19.65ZM26.46 40.38L26.43 40.35L23.41 40.38L23.39 40.36Q21.84 40.33 20.51 39.45L20.47 39.42L20.51 39.45Q19.03 38.20 19.18 35.35L19.17 35.34L19.31 35.47Q19.77 28.62 23.38 27.63L23.37 27.62L23.32 27.57Q21.03 26.65 19.70 21.28L19.64 21.23L19.71 21.30Q19.44 19.96 19.51 19.16L19.53 19.17L19.42 19.06Q19.79 17.00 23.48 16.96L23.38 16.86L23.41 16.89Q27.78 16.95 29.22 17.14L29.08 17.00L29.14 17.06Q32.87 17.48 33.33 19.50L33.33 19.50L33.33 19.50Q33.52 20.19 33.52 20.57L33.62 20.66L33.52 20.57Q33.58 21.31 33.39 21.92L33.42 21.95L33.44 21.97Q32.71 26.08 29.78 27.60L29.75 27.57L29.90 27.72Q33.30 28.41 33.79 33.70L33.85 33.76L33.77 33.68Q33.89 33.95 33.92 35.24L33.78 35.10L33.85 35.17Q33.89 37.88 32.30 38.95L32.33 38.98L32.23 38.88Q31.00 39.90 26.43 40.35ZM28.57 42.53L28.69 42.65L32.07 42.75L32.09 42.77Q33.72 42.76 35.24 42.04L35.21 42.02L35.32 42.12Q36.39 41.32 36.46 39.46L36.54 39.54L36.53 39.52Q36.43 38.28 36.05 36.34L36.11 36.40L36.11 36.40Q35.26 31.82 33.17 29.96L33.17 29.96L33.01 29.61L32.65 29.18L32.53 28.93L32.65 29.06Q34.13 27.54 35.05 23.39L35.13 23.47L35.11 23.45Q35.21 23.17 35.29 22.33L35.17 22.21L35.25 22.29Q35.29 21.57 35.21 20.96L35.24 20.99L35.12 20.87Q34.98 19.43 33.80 18.94L33.96 19.10L33.91 19.01L33.64 18.82L33.78 18.96Q33.46 18.18 32.28 17.38L32.23 17.33L32.28 17.35L32.29 17.35Q30.40 16.75 26.32 16.56L26.25 16.50L26.20 16.45Q24.65 16.33 23.28 16.45L23.41 16.59L23.36 16.53Q22.50 16.51 21.20 16.66L21.31 16.76L21.19 16.64Q19.22 17.00 18.99 18.63L19.07 18.72L19.05 18.70Q19.13 19.31 19.17 20.11L19.05 19.99L18.99 19.93Q19.13 20.48 19.70 22.84L19.66 22.81L19.80 22.94Q20.53 26.11 22.28 27.44L22.35 27.52L22.36 27.53L22.36 27.53Q19.64 28.88 19.11 34.06L19.17 34.11L19.03 33.98Q18.88 36.23 18.88 37.14L18.85 37.11L18.81 37.07Q19.01 38.99 20.19 39.90L20.16 39.87L20.09 39.80Q20.17 39.84 20.43 40.03L20.46 40.05L20.55 40.15Q21.48 42.32 28.59 42.55ZM28.24 31.47L28.33 31.56L28.28 31.50Q29.25 31.48 30.12 31.94L30.16 31.97L30.04 31.86Q30.44 32.86 30.40 33.39L30.36 33.36L30.41 33.41Q30.56 33.82 30.56 34.12L30.42 33.99L30.52 34.08Q30.55 36.48 28.27 37.32L28.27 37.32L28.23 37.27Q27.31 37.46 26.51 37.35L26.68 37.52L26.52 37.36Q25.42 37.48 24.28 37.02L24.28 37.02L24.42 37.16Q24.16 36.52 24.23 35.53L24.10 35.40L24.19 35.49Q24.41 33.95 25.61 32.73L25.56 32.69L25.60 32.72Q26.70 31.41 28.30 31.53ZM28.49 22.00L28.61 22.13L28.57 22.09Q29.43 22.03 29.96 22.18L29.87 22.10L29.82 22.85L29.92 22.94Q29.87 24.30 28.96 25.31L28.88 25.23L29.00 25.35Q28.05 26.32 26.68 26.13L26.73 26.19L26.61 26.06Q25.78 26.23 25.36 26.00L25.28 25.92L25.34 25.97Q25.16 25.56 25.04 24.88L25.10 24.93L25.05 24.89Q24.79 23.49 26.01 22.65L26.17 22.80L26.05 22.69Q27.10 21.98 28.50 22.02Z"/><path fill="#222" d="M58.24 27.72L58.36 27.83L58.36 27.83Q54.77 27.67 53.66 31.02L53.61 30.96L53.70 31.05Q53.20 32.00 53.09 33.07L53.13 33.11L53.14 33.12Q53.01 35.24 54.00 36.57L53.92 36.49L54.02 36.59Q55.30 37.72 57.78 37.76L57.64 37.62L57.73 37.71Q59.52 37.71 60.93 36.57L60.90 36.55L60.99 36.63Q62.35 35.44 62.35 33.65L62.37 33.68L62.44 33.74Q62.42 33.38 62.34 32.99L62.28 32.93L62.29 32.95Q62.03 27.77 58.23 27.70ZM58.12 40.16L58.23 40.27L58.23 40.27Q54.29 40.36 52.50 38.34L52.49 38.33L52.56 38.40Q52.24 39.34 51.78 40.71L51.79 40.72L51.81 40.74Q49.84 41.47 48.59 42.04L48.66 42.12L48.70 42.16Q50.92 36.23 50.92 29.72L50.77 29.58L50.77 29.57Q50.77 21.27 47.34 13.43L47.44 13.53L47.42 13.51Q49.83 14.92 51.16 15.38L51.03 15.25L51.12 15.34Q53.08 21.83 53.24 27.66L53.37 27.79L53.35 27.77Q54.78 25.09 58.51 25.13L58.47 25.09L58.55 25.17Q61.84 25.26 63.32 27.13L63.29 27.09L63.15 26.96Q65.03 29.29 65.18 32.87L65.22 32.90L65.21 32.90Q65.32 34.11 65.25 35.71L65.13 35.60L65.19 35.65Q65.24 37.19 64.37 38.33L64.28 38.25L64.36 38.33Q62.57 40.00 58.23 40.27ZM63.73 42.80L63.59 42.65L63.65 42.72Q65.22 42.81 66.71 42.12L66.64 42.05L66.57 41.98Q67.78 40.79 67.81 38.85L67.72 38.76L67.74 38.78Q67.78 38.32 67.62 37.14L67.71 37.23L67.72 37.24Q67.53 36.43 67.42 35.52L67.48 35.59L67.43 35.54Q66.69 30.84 65.13 28.78L64.95 28.60L64.96 28.61Q64.99 28.60 64.19 27.72L64.29 27.83L64.24 27.77Q63.93 27.43 63.40 26.63L63.45 26.68L63.47 26.70Q61.98 24.87 58.63 24.91L58.62 24.89L58.59 24.86Q56.47 24.84 55.21 25.44L55.24 25.47L55.28 25.51Q54.95 21.00 54.35 17.80L54.36 17.82L54.34 17.79Q53.61 17.64 52.13 17.26L51.99 17.13L52.01 17.14Q51.92 16.44 51.46 15.00L51.38 14.92L51.49 15.03Q49.04 14.21 46.79 12.65L46.70 12.55L46.78 12.63Q50.59 20.86 50.59 29.65L50.56 29.63L50.49 29.55Q50.50 36.53 48.03 42.74L47.98 42.69L47.97 42.68Q48.82 42.50 50.15 41.93L50.15 41.94L50.00 41.78Q49.83 42.61 49.23 44.13L49.28 44.18L49.28 44.18Q51.23 43.24 54.00 42.70L53.97 42.67L54.33 40.83L54.31 40.80Q56.61 42.50 63.54 42.61ZM59.88 30.04L59.87 30.02L59.86 30.02Q60.87 30.00 61.40 30.38L61.40 30.37L61.39 30.37Q61.65 30.82 61.88 32.84L61.88 32.84L61.88 32.84Q62.22 34.85 60.96 36.17L60.98 36.18L60.95 36.15Q59.59 37.36 57.65 37.25L57.72 37.32L57.64 37.24Q56.84 37.51 55.36 37.01L55.34 37.00L55.34 37.00Q55.15 36.53 55.15 36.00L55.07 35.93L55.20 36.06Q55.09 32.86 56.65 31.26L56.70 31.32L56.70 31.35L56.57 31.22Q58.16 29.99 59.91 30.07Z"/><path fill="#333" d="M108.93 15.95L108.76 15.78L108.90 15.92Q110.79 20.78 111.36 25.95L111.37 25.96L111.35 25.94Q115.09 21.84 120.99 17.01L120.83 16.84L120.89 16.91Q124.11 16.62 126.73 15.82L126.82 15.91L120.26 21.53L120.11 21.38Q116.81 24.44 113.96 27.30L113.86 27.20L113.85 27.19Q121.93 36.45 126.99 41.17L126.89 41.07L126.84 41.02Q123.84 40.18 121.52 40.03L121.56 40.08L121.61 40.13Q115.72 34.62 111.42 28.80L111.41 28.78L111.48 28.86Q111.46 35.34 109.60 40.67L109.76 40.83L109.60 40.68Q109.38 40.73 108.89 40.92L108.98 41.01L108.83 41.05L109.01 41.23Q108.68 41.13 106.13 42.05L106.24 42.16L106.10 42.01Q109.04 35.44 108.70 27.98L108.69 27.97L108.75 28.03Q108.38 20.65 104.84 14.14L104.89 14.19L105.49 14.53L105.79 14.72L105.83 14.71L105.93 14.82Q106.62 15.16 108.83 15.84ZM109.02 15.47L109.20 15.65L109.10 15.54Q106.91 15.07 104.29 13.55L104.17 13.44L104.11 13.37Q108.45 20.72 108.45 29.67L108.47 29.69L108.47 29.69Q108.50 36.72 105.53 42.77L105.61 42.86L107.54 41.90L107.53 41.88Q107.14 42.90 106.45 44.19L106.43 44.17L106.42 44.16Q108.68 43.37 110.62 42.95L110.62 42.95L110.81 42.92L110.67 42.78Q111.03 42.83 111.60 42.67L111.55 42.63L111.65 42.73Q113.26 36.77 113.38 31.97L113.32 31.91L113.28 31.87Q115.37 34.38 117.19 36.24L117.21 36.26L117.33 36.38Q118.42 37.39 121.43 40.36L121.37 40.31L121.52 40.46L121.45 40.38Q122.55 41.29 124.41 42.89L124.29 42.77L124.35 42.83Q128.20 43.52 131.66 45.23L131.68 45.24L131.62 45.18Q122.33 36.62 116.09 29.20L116.13 29.24L116.24 29.35Q120.64 25.07 129.40 16.47L129.40 16.47L129.26 16.34Q126.86 17.62 124.84 18.00L124.79 17.95L124.79 17.96Q125.93 16.88 128.25 14.87L128.30 14.91L128.33 14.94Q124.27 16.40 120.92 16.59L120.92 16.59L120.80 16.47Q117.90 18.71 113.03 23.40L113.08 23.44L113.01 23.38Q112.74 20.90 112.17 18.35L112.06 18.24L112.07 18.25Q110.85 18.06 109.86 17.72L109.81 17.67L109.91 17.77Q109.74 17.06 109.17 15.62Z"/><path d="M7 20 C63 47,91 8,141 40" stroke="#777" fill="none"/><path fill="#222" d="M85.55 29.65L85.64 29.74L85.65 29.75Q81.51 29.61 80.94 32.66L80.81 32.53L80.79 32.51Q80.66 33.63 80.85 34.51L80.78 34.43L80.81 34.46Q80.93 35.34 81.38 36.75L81.27 36.63L81.40 36.77Q82.48 39.94 85.79 39.79L85.77 39.77L85.76 39.75Q87.75 39.80 89.08 38.24L89.02 38.19L89.09 38.25Q90.21 36.67 90.21 34.61L90.26 34.66L90.38 34.78Q90.54 34.22 90.38 33.15L90.39 33.16L90.26 33.03Q90.18 32.11 89.76 31.42L89.80 31.46L89.87 31.53Q88.30 29.93 85.71 29.81ZM90.44 48.17L90.54 48.27L90.46 48.19Q88.58 48.71 80.51 49.09L80.62 49.20L80.50 49.08Q78.80 49.13 77.16 48.29L77.23 48.36L77.28 48.41Q78.16 47.50 79.99 45.71L80.00 45.72L79.96 45.69Q82.24 46.59 84.33 46.40L84.39 46.46L84.38 46.44Q87.33 46.24 88.17 45.98L88.10 45.91L88.18 45.98Q90.33 45.20 90.33 43.41L90.45 43.53L90.38 43.46Q90.44 43.29 90.36 43.06L90.35 43.05L90.22 41.44L90.31 41.53Q90.27 40.73 90.27 39.93L90.16 39.82L90.13 39.78Q88.78 42.05 85.39 42.05L85.34 42.01L85.44 42.10Q81.54 42.08 79.90 39.88L79.87 39.84L79.84 39.81Q78.89 38.45 78.09 34.03L78.01 33.95L77.97 33.91Q77.62 32.34 77.62 30.93L77.63 30.94L77.75 31.06Q77.80 29.32 78.71 28.33L78.57 28.19L78.52 28.14Q80.21 26.75 84.86 26.75L84.91 26.80L86.67 27.00L86.61 26.94Q89.87 27.34 91.20 29.28L91.31 29.39L91.22 29.30Q91.38 28.44 91.80 26.80L91.85 26.85L91.93 26.93Q93.69 26.48 95.44 25.76L95.34 25.66L95.37 25.69Q92.75 31.83 92.75 39.06L92.73 39.04L92.72 39.02Q92.72 41.69 93.10 44.32L93.22 44.44L93.02 44.24Q93.38 45.10 93.31 45.78L93.30 45.77L93.25 45.73Q93.14 47.18 91.93 47.94L91.79 47.81L91.83 47.84Q91.25 48.02 90.41 48.14ZM93.50 51.19L93.49 51.18L93.54 51.23Q95.01 51.29 95.77 50.34L95.79 50.36L95.77 50.34Q96.04 49.31 95.92 48.59L96.03 48.70L95.87 48.53Q95.75 47.88 95.56 47.12L95.70 47.26L95.73 47.29Q94.46 42.03 94.81 36.77L94.85 36.82L94.78 36.75Q95.12 31.30 97.26 26.47L97.18 26.39L95.21 27.47L95.18 27.44Q95.40 26.82 95.63 26.25L95.66 26.28L96.17 25.16L96.05 25.04Q93.64 25.93 91.43 26.35L91.62 26.54L91.60 26.52Q91.26 27.36 91.10 28.39L91.13 28.42L90.98 28.27Q88.92 26.39 84.88 26.39L84.95 26.46L83.11 26.37L83.06 26.32Q79.96 26.46 78.29 27.87L78.15 27.73L78.20 27.79Q77.37 28.86 77.41 30.76L77.41 30.76L77.45 30.80Q77.38 33.16 78.40 37.43L78.46 37.48L78.54 37.57Q78.90 39.37 80.12 40.78L80.17 40.83L80.35 41.01L80.55 41.21L80.58 41.24Q81.61 43.45 84.20 43.98L84.12 43.90L84.25 44.03Q85.67 44.35 87.11 44.39L87.08 44.35L86.99 44.27Q88.81 44.36 89.87 43.98L89.91 44.02L89.96 44.07Q89.19 45.47 86.53 45.81L86.57 45.86L86.69 45.97Q85.51 46.01 84.82 46.01L84.94 46.14L84.51 46.09L84.57 46.14Q81.58 45.97 79.91 45.02L80.02 45.13L78.19 46.73L78.19 46.73Q77.52 47.73 76.68 48.68L76.61 48.62L76.57 48.58Q77.65 49.20 78.64 49.39L78.49 49.24L77.63 50.13L77.67 50.17Q80.39 51.25 86.02 51.25L86.13 51.36L86.17 51.17L86.18 51.18Q89.90 51.28 93.48 51.17ZM87.56 32.08L87.43 31.95L87.61 32.13Q88.82 31.97 89.73 32.38L89.70 32.35L89.71 32.36Q89.91 32.87 89.99 33.55L90.01 33.57L90.00 33.56Q89.94 33.77 89.90 34.69L89.99 34.78L89.94 34.73Q89.91 36.67 88.80 37.97L88.92 38.08L88.91 38.07Q87.55 39.31 85.65 39.27L85.65 39.27L85.65 39.27Q84.30 39.29 83.46 38.87L83.44 38.84L83.37 38.77Q83.11 37.76 83.08 36.73L83.12 36.77L83.03 36.68Q82.93 32.36 87.54 32.05Z"/></svg>