<svg xmlns="http://www.w3.org/2000/svg" width="150" height="50"><path d="M17 40 C85 23,84 22,130 35" stroke="#111" fill="none"/><path d="M9 18 C56 37,85 47,146 21" stroke="#333" fill="none"/><path fill="#333" d="M31.13 41.23L31.21 41.31L28.15 41.10L28.11 41.06Q25.84 41.07 25.04 40.96L24.93 40.85L24.96 40.88Q23.19 40.60 22.01 39.72L22.04 39.75L21.99 39.70Q20.64 38.24 20.41 34.89L20.50 34.98L20.48 34.95Q20.42 34.43 20.34 33.22L20.27 33.14L20.32 33.19Q20.41 32.87 20.33 31.76L20.26 31.69L20.18 31.61Q20.16 30.79 20.20 30.07L20.26 30.12L20.25 30.11Q20.45 28.18 21.48 27.42L21.40 27.35L21.42 27.36Q23.30 26.16 28.14 25.93L28.16 25.96L28.18 25.98Q30.17 25.84 30.97 25.84L31.03 25.90L31.05 25.92Q32.52 25.90 33.89 26.21L33.81 26.12L33.99 26.31Q33.28 27.42 32.75 29.25L32.88 29.38L32.87 29.38Q32.32 29.39 31.82 29.36L31.75 29.28L31.81 29.34Q31.63 29.24 31.10 29.13L31.16 29.18L30.27 29.02L30.23 28.98Q29.15 28.70 28.54 28.74L28.58 28.77L28.55 28.74Q23.78 28.78 23.18 31.60L23.15 31.57L23.29 31.71Q22.93 32.76 23.01 33.71L22.94 33.64L22.95 33.66Q23.25 36.39 24.49 37.48L24.38 37.37L24.44 37.43Q25.65 38.49 28.24 38.52L28.28 38.57L28.17 38.46Q29.72 38.55 30.44 38.25L30.42 38.24L31.54 37.83L31.51 37.80Q32.02 37.54 32.59 37.47L32.56 37.44L32.65 37.52Q32.74 39.18 33.12 40.48L33.17 40.52L33.27 40.63Q32.85 40.81 31.06 41.16ZM34.47 44.26L34.33 44.12L34.39 44.18Q34.85 44.30 35.69 44.37L35.68 44.37L35.53 44.21Q36.33 44.41 36.68 43.84L36.63 43.79L36.70 43.86Q35.41 41.70 34.92 39.61L34.81 39.50L34.97 39.66Q34.51 39.50 34.05 39.50L34.09 39.54L34.11 39.56Q33.68 39.55 33.30 39.74L33.36 39.80L33.35 39.79Q33.01 38.54 32.86 37.13L32.84 37.11L32.86 37.13Q32.09 36.90 30.87 37.47L31.03 37.63L30.98 37.57Q29.71 38.09 29.21 38.09L29.27 38.14L29.20 38.08Q28.77 38.14 28.16 38.10L28.26 38.20L28.28 38.22Q27.29 38.11 25.31 37.54L25.35 37.58L25.32 37.55Q24.92 36.76 24.96 35.62L24.90 35.56L24.99 35.65Q25.17 31.42 30.12 30.89L30.20 30.97L30.21 30.98Q30.84 30.92 32.21 31.27L32.14 31.20L32.16 31.22Q33.55 31.57 34.27 31.53L34.35 31.62L34.25 31.51Q34.74 29.34 35.43 27.52L35.30 27.39L35.32 27.41Q34.92 27.27 34.54 27.20L34.58 27.24L33.87 27.21L33.81 27.15Q34.14 26.79 34.52 25.92L34.46 25.87L34.40 25.81Q32.94 25.52 31.38 25.52L31.43 25.57L31.30 25.44Q28.99 25.54 24.62 25.92L24.55 25.85L24.53 25.84Q22.65 26.05 21.09 27.04L21.06 27.01L21.11 27.05Q19.77 27.88 19.77 29.79L19.78 29.80L19.88 29.90Q19.79 30.23 19.91 31.45L20.00 31.54L19.89 31.43Q20.00 32.49 19.96 33.10L19.92 33.06L19.95 33.09Q20.11 35.11 20.83 38.84L20.83 38.85L20.82 38.83Q21.23 39.70 21.72 40.19L21.74 40.21L21.85 40.32L22.00 40.43L21.87 40.30Q22.89 42.43 26.81 43.04L26.83 43.05L26.87 43.10Q30.06 43.62 32.73 43.89L32.69 43.85L32.58 43.75Q33.38 43.82 34.30 44.09Z"/><path d="M4 39 C59 10,82 10,144 37" stroke="#777" fill="none"/><path d="M6 13 C65 19,59 26,132 46" stroke="#666" fill="none"/><path fill="#222" d="M64.96 30.30L65.07 30.42L64.89 30.23Q65.10 29.95 65.06 29.53L65.05 29.52L65.13 29.59Q64.89 29.05 64.59 28.86L64.63 28.90L64.75 29.03Q64.00 28.43 63.12 28.58L63.08 28.54L63.10 28.56Q61.97 28.49 60.33 29.59L60.31 29.57L60.29 29.55Q58.89 30.47 58.89 31.65L58.88 31.65L58.92 31.69Q58.89 32.91 58.89 36.22L59.02 36.35L58.91 36.25Q58.87 38.80 59.03 40.82L59.15 40.94L58.99 40.78Q57.27 40.78 57.27 40.78L57.42 40.93L57.41 40.91Q56.30 40.75 55.58 40.83L55.58 40.83L55.63 40.89Q56.08 38.40 56.16 36.16L56.09 36.09L56.11 36.11Q56.24 31.45 55.60 30.15L55.61 30.17L55.57 30.13Q55.36 29.61 54.78 29.30L54.75 29.26L54.84 29.36Q53.99 28.62 52.43 28.50L52.41 28.49L52.46 28.54Q50.44 28.31 49.91 29.91L49.86 29.86L49.97 29.97Q49.63 30.28 49.75 30.78L49.90 30.93L49.93 30.96Q50.43 33.55 50.09 36.33L50.14 36.39L50.07 36.32Q49.75 39.12 48.34 41.55L48.49 41.70L48.33 41.54Q47.41 41.80 45.32 42.22L45.27 42.17L45.42 42.33Q47.86 39.01 47.86 34.71L47.82 34.67L47.79 34.64Q47.86 28.85 43.82 24.62L43.88 24.68L43.85 24.65Q44.58 24.92 45.53 25.15L45.58 25.20L47.21 25.50L47.28 25.56Q47.66 26.09 48.53 27.77L48.58 27.82L48.54 27.78Q48.68 25.87 51.12 25.83L51.22 25.92L51.14 25.85Q51.32 25.84 52.31 25.92L52.30 25.90L52.36 25.97Q57.41 26.33 58.55 29.15L58.38 28.98L58.52 29.12Q60.14 26.36 65.16 25.82L65.20 25.86L65.14 25.80Q65.97 25.75 66.85 25.87L66.85 25.87L66.86 25.89Q69.00 26.01 68.85 27.57L68.83 27.55L68.83 27.55Q68.74 28.19 68.48 28.95L68.45 28.92L68.49 28.96Q67.14 32.02 67.36 35.56L67.39 35.59L67.45 35.64Q67.53 39.00 69.43 41.82L69.39 41.77L69.48 41.87Q67.70 41.42 65.88 41.19L65.92 41.23L66.01 41.32Q64.68 38.66 64.49 35.88L64.51 35.90L64.53 35.92Q64.39 33.12 65.04 30.38ZM65.76 41.69L65.75 41.68L65.68 41.60Q66.42 41.70 67.75 41.89L67.73 41.86L67.72 41.86Q68.24 42.57 69.38 43.97L69.40 44.00L69.46 44.06Q72.28 44.51 74.37 45.16L74.37 45.16L74.48 45.27Q69.42 41.31 69.15 34.80L69.12 34.77L69.26 34.91Q69.04 32.67 69.65 30.77L69.69 30.81L69.80 30.91Q69.94 29.96 69.94 29.23L69.95 29.24L69.90 29.19Q69.99 28.36 69.38 27.79L69.35 27.76L69.32 27.70L69.20 27.58Q69.32 27.13 69.25 26.63L69.35 26.73L69.33 26.72Q69.23 26.20 68.77 25.93L68.79 25.94L68.66 25.82Q68.02 25.36 67.14 25.33L67.11 25.29L67.08 25.26Q64.43 25.35 61.76 26.30L61.61 26.16L61.69 26.23Q59.76 26.96 58.58 28.37L58.59 28.39L58.43 28.23Q56.87 25.75 52.03 25.41L52.15 25.53L52.19 25.56Q51.48 25.50 51.06 25.50L50.98 25.42L51.07 25.51Q49.04 25.54 48.44 26.80L48.37 26.74L48.34 26.70Q47.96 26.13 47.28 25.07L47.43 25.22L47.39 25.19Q44.87 24.60 42.89 23.96L42.85 23.92L42.96 24.02Q47.50 28.30 47.50 34.58L47.50 34.58L47.50 34.58Q47.51 39.31 44.65 42.78L44.65 42.77L44.70 42.83Q45.10 42.61 45.59 42.54L45.62 42.56L46.62 42.42L46.64 42.44Q45.85 43.40 44.74 44.61L44.77 44.64L44.79 44.67Q46.42 44.35 49.54 43.74L49.58 43.78L49.51 43.71Q52.23 39.65 52.23 34.74L52.23 34.74L52.19 34.70Q52.17 33.89 52.10 33.05L52.16 33.11L52.13 33.08Q51.99 32.25 52.98 31.45L53.00 31.48L53.03 31.54L53.13 31.64Q53.67 31.12 54.85 31.00L54.90 31.05L54.74 30.90Q55.27 31.00 55.57 31.00L55.53 30.96L55.73 31.36L55.71 31.33Q55.95 34.01 55.83 36.37L55.84 36.38L55.74 36.28Q55.75 38.68 55.26 41.35L55.11 41.20L55.21 41.30Q56.21 41.28 56.21 41.28L56.13 41.19L56.21 41.27Q57.65 41.27 57.31 41.27L57.25 41.21L57.29 41.25Q57.43 41.88 57.39 42.34L57.22 42.17L57.28 42.23Q57.21 42.65 57.21 43.15L57.22 43.16L59.71 43.17L59.83 43.29Q61.05 43.25 62.30 43.33L62.28 43.31L62.27 43.29Q60.74 39.60 60.93 33.66L60.90 33.63L60.96 33.69Q60.93 32.51 62.11 31.75L62.19 31.83L62.22 31.87Q63.07 31.00 64.33 30.81L64.32 30.81L64.65 30.83L64.60 30.79Q64.17 32.71 64.17 34.69L64.22 34.74L64.21 34.73Q64.09 38.38 65.62 41.54ZM60.33 30.24L60.40 30.08L60.29 30.31L60.15 30.06Z"/><path fill="#111" d="M87.15 28.87L87.11 28.83L87.05 28.77Q84.46 28.70 83.17 29.84L83.18 29.84L83.24 29.91Q81.88 31.22 82.07 33.73L81.94 33.60L82.03 33.69Q82.24 36.56 83.42 37.63L83.39 37.60L83.37 37.57Q84.96 38.98 87.05 38.82L87.07 38.84L87.08 38.85Q89.23 38.87 90.64 37.62L90.49 37.46L90.53 37.51Q91.79 36.29 91.98 33.74L92.16 33.92L92.00 33.76Q92.53 29.00 87.16 28.88ZM87.01 41.41L87.01 41.41L85.40 41.36L85.42 41.38Q82.55 41.36 81.06 39.95L80.99 39.88L80.95 39.84Q80.07 38.92 79.81 36.98L79.80 36.97L79.70 36.87Q79.55 35.78 79.40 33.57L79.56 33.73L79.55 33.72Q79.42 32.67 79.30 30.43L79.31 30.43L79.37 30.49Q79.21 28.55 80.16 27.40L80.11 27.35L80.12 27.36Q81.91 25.91 86.63 26.06L86.62 26.06L86.72 26.15Q91.50 26.18 93.33 27.70L93.28 27.65L93.31 27.68Q94.95 29.06 94.76 32.26L94.61 32.11L94.75 32.24Q94.43 35.69 94.35 36.11L94.36 36.12L94.27 36.03Q94.03 38.38 92.70 39.56L92.76 39.62L92.66 39.52Q90.73 41.32 86.93 41.32ZM91.65 43.77L91.59 43.70L91.71 43.82Q93.16 43.83 95.07 43.68L95.09 43.70L94.96 43.57Q95.59 43.62 95.59 43.47L95.54 43.42L95.55 43.44Q95.44 43.25 95.41 43.10L95.49 43.19L95.51 43.20Q95.42 43.00 95.42 42.89L95.39 42.85L95.47 42.93Q95.43 42.63 95.77 42.33L95.79 42.34L95.79 42.35Q96.68 41.22 96.68 39.31L96.54 39.18L96.64 39.27Q96.68 38.36 96.59 35.95L96.54 35.90L96.48 35.83Q96.44 33.47 96.28 32.37L96.30 32.39L96.37 32.46Q95.88 30.22 94.97 29.07L95.05 29.16L94.75 28.97L94.72 28.94Q94.58 28.31 93.78 27.40L93.71 27.32L93.83 27.44Q91.45 25.64 86.54 25.64L86.60 25.69L84.88 25.73L84.84 25.69Q81.55 25.70 79.83 27.07L79.83 27.07L79.79 27.03Q78.96 28.18 79.00 30.20L78.92 30.12L78.89 30.09Q78.98 30.60 79.11 31.85L79.03 31.77L79.04 31.78Q79.27 33.13 79.23 33.59L79.13 33.49L79.21 33.57Q79.48 36.66 79.56 37.12L79.43 36.99L79.58 37.14Q79.92 39.23 80.84 40.37L80.80 40.34L80.95 40.57L81.01 40.63Q81.82 43.07 85.55 43.49L85.52 43.46L85.56 43.49Q86.43 43.61 91.69 43.80ZM88.88 31.05L88.86 31.03L88.91 31.09Q89.76 31.09 91.43 31.63L91.43 31.62L91.38 31.58Q91.85 32.43 91.81 33.91L91.79 33.89L91.85 33.95Q91.65 37.33 88.76 38.09L88.68 38.01L88.72 38.05Q88.11 38.36 87.08 38.47L86.96 38.35L86.93 38.32Q85.89 38.38 84.18 37.78L84.20 37.80L84.25 37.85Q83.95 37.09 83.99 35.61L84.06 35.68L83.98 35.60Q84.18 33.40 85.55 32.37L85.56 32.38L85.47 32.30Q86.26 31.30 88.81 30.99Z"/><path fill="#222" d="M112.75 19.37L112.81 19.43L112.84 19.46Q113.55 23.56 113.70 27.14L113.64 27.07L113.67 27.10Q114.81 27.22 115.88 27.22L116.00 27.34L118.17 27.30L118.05 27.18Q119.04 27.11 119.92 25.70L119.92 25.70L119.96 25.74Q120.71 24.58 120.82 23.40L120.91 23.49L120.93 23.52Q121.27 20.46 117.04 19.97L117.02 19.94L116.93 19.86Q115.37 19.94 112.75 19.37ZM113.76 29.94L113.87 30.05L113.78 29.95Q113.70 36.15 112.55 40.57L112.64 40.65L112.49 40.51Q111.21 41.09 108.88 42.15L108.76 42.03L108.80 42.07Q111.22 35.47 110.95 28.19L110.88 28.12L110.95 28.19Q110.59 20.75 107.81 14.32L107.74 14.24L107.70 14.20Q112.01 17.15 118.25 17.15L118.29 17.18L118.24 17.13Q124.22 17.06 124.37 20.52L124.40 20.55L124.45 20.60Q124.49 23.00 123.50 25.67L123.49 25.66L123.52 25.69Q123.06 26.75 122.11 27.97L122.09 27.94L122.13 27.99Q120.89 29.68 118.34 29.95L118.28 29.89L118.31 29.91Q116.00 29.89 113.75 29.93ZM119.92 32.21L119.92 32.21L119.89 32.19Q124.12 32.49 125.38 27.69L125.33 27.65L125.30 27.61Q126.25 23.96 126.10 21.94L126.14 21.99L126.15 21.99Q125.95 20.39 125.19 19.40L125.15 19.35L125.30 19.51Q124.98 19.19 124.49 18.96L124.38 18.85L124.40 18.88Q124.36 18.68 123.75 17.92L123.79 17.96L123.81 17.98Q122.15 16.55 118.19 16.55L118.32 16.68L118.19 16.55Q111.35 16.60 107.12 13.44L107.22 13.54L107.19 13.50Q110.41 20.65 110.68 28.11L110.55 27.98L110.56 27.99Q110.93 35.74 108.26 42.82L108.12 42.68L108.15 42.71Q109.20 42.05 110.19 41.67L110.30 41.78L109.87 42.87L109.80 42.80Q109.75 43.52 109.49 44.09L109.47 44.07L109.44 44.04Q111.88 43.02 114.78 42.49L114.75 42.46L114.72 42.43Q115.69 37.05 115.77 32.32L115.76 32.32L115.63 32.19Q116.79 32.16 117.78 32.16L117.86 32.24L117.78 32.17Q119.19 32.24 119.98 32.28ZM118.92 22.23L118.99 22.30L118.86 22.16Q119.48 22.29 120.47 22.52L120.39 22.44L120.49 22.54Q120.55 22.72 120.59 23.02L120.64 23.07L120.63 23.06Q120.61 23.27 120.53 23.54L120.55 23.56L120.50 23.50Q120.38 24.71 119.65 25.59L119.67 25.60L119.63 25.56Q119.14 26.71 118.11 26.90L118.16 26.95L118.15 26.94Q117.44 26.95 115.80 26.95L115.66 26.81L115.74 26.89Q115.70 24.60 115.47 22.24L115.36 22.13L117.25 22.35L117.13 22.23Q118.10 22.36 118.97 22.28Z"/></svg>