<svg xmlns="http://www.w3.org/2000/svg" width="150" height="50"><path d="M17 26 C62 29,76 10,143 23" stroke="#333" fill="none"/><path fill="#111" d="M25.99 29.84L26.11 29.97L26.08 29.93Q25.67 29.75 25.37 29.75L25.50 29.89L25.41 29.80Q24.02 29.74 22.57 30.57L22.73 30.73L22.69 30.69Q21.24 31.68 21.24 33.58L21.25 33.59L21.31 33.66Q21.42 37.18 22.94 38.51L22.86 38.43L22.93 38.51Q23.78 39.58 26.06 39.58L26.02 39.54L26.15 39.67Q26.44 39.73 26.74 39.73L26.76 39.74L26.74 39.72Q28.32 39.60 29.47 37.96L29.54 38.03L29.52 38.02Q30.65 36.59 30.57 34.80L30.51 34.74L30.46 34.70Q30.53 34.23 30.53 33.81L30.63 33.91L30.59 33.87Q30.45 31.95 29.08 30.78L29.16 30.86L29.12 30.82Q27.80 29.71 26.01 29.86ZM30.61 40.13L30.43 39.96L30.55 40.08Q29.60 42.05 25.86 42.16L25.89 42.19L25.85 42.15Q22.40 42.20 20.80 40.60L20.68 40.48L20.70 40.50Q19.24 38.74 18.44 33.94L18.51 34.01L18.43 33.93Q18.12 32.18 18.12 30.92L18.20 30.99L18.28 31.07Q18.23 29.24 18.95 28.17L19.01 28.23L19.00 28.22Q20.33 26.81 23.30 26.81L23.36 26.87L23.37 26.88Q29.67 26.86 31.58 29.45L31.56 29.43L31.42 29.29Q31.65 28.54 32.07 26.94L32.11 26.98L32.17 27.04Q33.36 26.66 35.79 25.86L35.73 25.80L35.77 25.84Q33.39 31.53 33.16 37.85L33.19 37.87L33.07 37.76Q33.00 44.09 35.14 49.91L35.01 49.79L34.97 49.74Q33.28 49.17 31.50 48.90L31.50 48.91L31.64 49.04Q30.64 44.99 30.52 40.05ZM31.30 49.28L31.31 49.28L31.25 49.22Q31.91 49.32 33.32 49.62L33.31 49.61L33.35 49.65Q33.59 50.39 34.17 51.80L34.14 51.77L34.22 51.85Q36.84 52.60 39.12 53.90L38.99 53.77L39.08 53.86Q35.07 47.29 35.07 38.77L35.08 38.78L35.07 38.77Q35.00 32.35 37.48 26.56L37.55 26.63L37.47 26.55Q36.78 26.85 35.41 27.50L35.49 27.58L35.51 27.60Q35.81 26.80 36.46 25.24L36.46 25.24L36.44 25.21Q34.93 25.80 31.74 26.68L31.73 26.67L31.63 26.58Q31.55 27.18 31.25 28.36L31.34 28.46L31.18 28.29Q29.33 26.56 23.20 26.41L23.12 26.33L23.03 26.23Q19.93 26.25 18.56 27.74L18.53 27.72L18.57 27.75Q17.75 28.84 17.79 30.74L17.77 30.72L17.77 30.72Q17.92 33.76 18.91 37.53L19.03 37.65L19.00 37.62Q19.54 39.92 20.46 40.87L20.52 40.94L20.84 41.25L20.85 41.26Q21.97 43.98 27.41 44.21L27.53 44.32L27.54 44.33Q28.53 44.33 30.36 44.03L30.27 43.94L30.41 44.09Q30.59 46.89 31.20 49.17ZM27.84 32.11L27.93 32.20L27.82 32.09Q28.94 32.14 29.77 32.44L29.82 32.49L29.80 32.47Q30.00 33.01 30.11 33.62L30.12 33.63L30.04 33.55Q30.22 34.19 30.15 34.80L30.19 34.84L30.19 34.84Q30.23 36.79 29.20 38.08L29.05 37.92L29.06 37.93Q28.05 39.51 26.18 39.32L26.02 39.16L26.12 39.26Q24.80 39.24 23.85 38.82L23.91 38.88L23.76 38.73Q23.42 37.93 23.42 36.72L23.56 36.86L23.44 36.73Q23.44 36.43 23.44 36.12L23.39 36.08L23.57 36.25Q23.53 34.46 24.86 33.30L24.74 33.17L24.72 33.15Q26.18 32.12 27.93 32.20Z"/><path d="M12 2 C76 32,85 37,149 28" stroke="#999" fill="none"/><path fill="#333" d="M80.21 49.72L80.16 49.67L80.03 49.54Q83.03 45.77 85.93 39.56L85.94 39.57L85.95 39.59Q82.76 32.96 76.66 24.89L76.62 24.85L76.73 24.96Q78.65 26.12 81.43 26.76L81.43 26.76L81.41 26.75Q84.88 31.36 87.32 36.58L87.27 36.53L87.26 36.52Q89.48 31.27 92.56 26.86L92.67 26.96L92.60 26.90Q94.80 26.55 96.90 25.75L96.82 25.67L96.90 25.75Q93.45 29.54 89.99 36.96L90.08 37.05L87.29 43.10L87.14 42.95Q85.70 46.07 83.95 48.70L83.94 48.69L83.93 48.68Q81.47 49.00 80.02 49.53ZM86.34 51.02L86.27 50.95L86.24 50.92Q87.98 48.05 89.43 44.77L89.41 44.76L92.09 38.38L92.09 38.38Q95.75 30.50 99.06 26.50L98.98 26.42L99.05 26.49Q97.60 27.07 95.70 27.75L95.77 27.82L96.70 26.32L96.84 26.46Q97.24 25.60 97.85 24.91L97.86 24.92L97.91 24.98Q95.23 26.02 92.38 26.48L92.34 26.44L92.38 26.49Q89.59 30.36 87.65 34.81L87.69 34.85L87.72 34.89Q86.08 31.57 84.29 28.75L84.23 28.69L84.26 28.72Q84.11 28.77 83.75 28.73L83.85 28.82L83.75 28.72Q83.44 28.74 83.25 28.74L83.15 28.63L83.13 28.62Q82.52 27.51 81.57 26.37L81.49 26.29L81.43 26.23Q78.29 25.61 75.55 23.90L75.55 23.89L75.60 23.94Q81.74 31.84 85.43 39.45L85.48 39.49L85.58 39.60Q83.29 44.54 79.21 50.17L79.27 50.23L79.25 50.21Q80.13 49.98 80.92 49.83L80.96 49.86L82.58 49.50L82.55 49.47Q81.92 50.17 80.73 51.81L80.78 51.85L80.76 51.83Q83.02 51.20 86.29 50.97Z"/><path d="M2 4 C81 43,69 29,132 6" stroke="#333" fill="none"/><path d="M20 44 C84 26,92 14,143 9" stroke="#111" fill="none"/><path fill="#333" d="M52.36 32.95L52.45 33.04L52.41 33.00Q55.53 32.66 58.73 32.77L58.65 32.69L58.67 32.71Q58.57 30.10 58.57 27.70L58.58 27.71L58.69 27.82Q58.56 25.22 58.75 22.67L58.79 22.70L58.82 22.74Q57.67 24.52 52.46 33.05ZM62.28 40.32L62.36 40.40L62.25 40.29Q60.68 40.09 58.89 40.01L58.86 39.98L58.75 39.87Q58.56 37.51 58.44 35.03L58.53 35.12L58.57 35.16Q53.22 34.95 48.49 36.36L48.44 36.30L48.49 36.35Q48.51 35.77 48.70 34.78L48.69 34.76L48.69 34.76Q50.45 31.57 54.02 25.29L54.20 25.47L54.21 25.47Q56.94 20.44 60.36 16.55L60.46 16.65L60.40 16.59Q61.37 16.49 63.04 16.22L62.96 16.14L62.94 16.12Q61.11 22.62 61.11 29.67L61.08 29.64L61.01 29.57Q61.12 31.16 61.20 32.65L61.06 32.52L62.41 32.69L62.41 32.68Q63.03 32.73 63.64 32.85L63.67 32.88L63.71 32.92Q63.70 33.79 63.97 35.73L63.95 35.71L64.05 35.81Q62.89 35.60 61.40 35.40L61.37 35.38L61.43 35.43Q61.62 37.42 62.31 40.35ZM63.92 32.48L63.95 32.51L64.02 32.58Q63.81 32.48 63.62 32.48L63.50 32.36L63.25 32.50L63.26 32.51Q63.11 30.99 63.11 29.58L63.12 29.58L63.07 29.54Q63.02 23.09 65.08 17.08L65.15 17.14L65.16 17.16Q64.46 17.48 63.01 17.86L62.94 17.80L62.99 17.84Q63.22 17.08 63.67 15.67L63.53 15.53L63.65 15.65Q62.31 15.98 60.25 16.21L60.18 16.14L60.32 16.28Q56.42 20.64 51.21 30.01L51.08 29.88L53.20 26.25L53.18 26.24Q52.69 27.19 52.42 27.76L52.60 27.93L48.03 36.84L48.08 36.89Q48.78 36.79 49.92 36.41L49.89 36.38L49.80 36.67L49.63 36.50Q49.53 37.20 49.22 38.46L49.25 38.48L49.22 38.45Q53.48 37.27 58.31 37.46L58.26 37.41L58.20 37.34Q58.29 38.35 58.48 40.33L58.53 40.37L58.50 40.34Q59.58 40.36 60.65 40.48L60.57 40.40L60.54 40.37Q60.69 41.05 60.96 42.42L60.97 42.43L61.03 42.49Q62.84 42.63 65.85 43.54L66.00 43.70L65.84 43.54Q64.93 41.48 64.02 38.21L64.04 38.23L65.50 38.71L65.50 38.71Q66.18 38.93 66.87 39.27L66.93 39.33L66.78 39.18Q66.12 36.81 65.96 35.13L65.91 35.08L65.93 35.10Q65.36 34.95 64.22 34.72L64.21 34.71L64.13 34.63Q63.95 33.39 63.95 32.51ZM55.88 32.29L55.89 32.29L55.92 32.32Q56.61 30.96 58.17 28.41L58.28 28.52L58.25 28.49Q58.18 29.37 58.15 30.32L58.26 30.44L58.26 30.43Q58.29 31.45 58.32 32.40L58.23 32.31L58.36 32.44Q57.62 32.23 57.05 32.23L57.10 32.28L57.04 32.22Q56.50 32.29 55.89 32.29Z"/><path fill="#444" d="M113.43 26.85L113.50 26.92L113.44 26.86Q115.30 27.08 117.13 27.08L117.03 26.98L116.98 26.93Q118.78 26.94 120.60 26.79L120.69 26.87L120.70 26.88Q120.45 27.40 120.45 28.12L120.61 28.28L120.47 29.47L120.49 29.49Q118.21 29.57 113.45 29.68L113.46 29.69L113.50 29.73Q113.48 35.65 112.34 40.64L112.31 40.61L112.36 40.66Q110.12 41.32 108.64 42.12L108.61 42.09L108.64 42.12Q110.85 35.19 110.58 28.07L110.62 28.11L110.57 28.06Q110.42 21.02 107.75 14.35L107.70 14.30L107.65 14.25Q111.44 16.90 116.20 17.12L116.23 17.16L116.15 17.08Q120.89 17.33 125.04 15.57L124.98 15.51L124.98 15.52Q124.64 16.28 124.41 17.08L124.46 17.13L123.94 18.70L123.96 18.72Q121.22 19.78 118.25 19.94L118.35 20.04L118.37 20.06Q115.41 20.18 112.55 19.46L112.42 19.32L112.46 19.36Q113.32 22.93 113.51 26.92ZM125.52 14.73L125.65 14.85L125.64 14.84Q120.99 16.93 116.12 16.63L116.12 16.63L116.14 16.65Q110.89 16.42 107.15 13.56L107.01 13.42L107.05 13.46Q110.05 20.53 110.35 28.14L110.16 27.96L110.30 28.09Q110.65 36.05 108.13 42.83L108.12 42.81L108.12 42.82Q108.75 42.38 110.12 41.74L110.19 41.80L110.08 41.69Q109.87 42.43 109.30 43.95L109.37 44.02L109.33 43.99Q111.67 42.94 114.56 42.44L114.51 42.39L114.49 42.38Q115.22 37.62 115.41 31.91L115.43 31.93L115.32 31.81Q117.23 31.90 119.05 31.90L118.96 31.81L118.92 31.76Q120.70 31.76 122.53 31.95L122.49 31.91L122.58 32.00Q122.41 30.99 122.41 30.08L122.40 30.06L122.51 28.27L122.47 28.23Q121.78 28.42 120.94 28.42L120.95 28.43L120.95 28.42Q120.90 27.50 120.98 26.47L120.96 26.45L120.98 26.48Q119.65 26.71 118.24 26.71L118.20 26.67L118.18 26.65Q116.71 26.59 115.34 26.55L115.44 26.65L115.31 24.39L115.40 24.47Q115.18 23.19 115.07 22.12L115.20 22.25L115.12 22.17Q116.13 22.28 117.12 22.28L117.12 22.28L117.07 22.22Q121.82 22.22 125.44 20.31L125.54 20.41L125.55 20.43Q125.98 18.53 126.89 15.90L126.99 16.00L126.83 15.84Q125.57 16.71 124.77 17.05L124.78 17.07L124.75 17.04Q125.11 16.37 125.61 14.81Z"/></svg>