<svg xmlns="http://www.w3.org/2000/svg" width="150" height="50"><path d="M3 25 C70 29,65 31,142 47" stroke="#555" fill="none"/><path d="M16 17 C83 8,64 46,137 13" stroke="#555" fill="none"/><path d="M11 12 C69 38,58 39,149 35" stroke="#777" fill="none"/><path d="M6 10 C69 6,88 7,136 33" stroke="#333" fill="none"/><path fill="#111" d="M24.37 14.74L24.48 14.85L24.46 14.84Q25.47 16.99 27.41 16.99L27.48 17.06L27.58 17.15Q28.10 17.18 28.51 17.02L28.33 16.84L28.40 16.91Q28.10 21.94 28.06 28.34L28.15 28.42L28.24 28.51Q28.18 34.73 28.37 39.99L28.33 39.95L28.27 39.89Q28.00 39.85 27.62 39.85L27.65 39.88L27.49 39.71Q26.27 39.86 24.86 41.73L24.78 41.65L24.88 41.75Q25.35 34.84 25.31 28.14L25.34 28.16L25.45 28.27Q25.40 21.56 24.49 14.86ZM24.34 42.81L24.22 42.69L24.33 42.80Q25.31 41.34 26.49 40.62L26.35 40.48L26.38 40.52Q26.32 41.44 26.24 42.51L26.35 42.61L26.38 42.64Q27.16 42.16 27.92 42.28L27.92 42.28L27.91 42.27Q30.02 42.56 31.39 45.33L31.26 45.20L31.32 45.26Q30.18 37.95 30.18 30.68L30.10 30.60L30.15 30.65Q30.22 23.18 31.02 16.06L30.94 15.99L30.99 16.03Q29.84 17.74 28.77 18.38L28.75 18.36L28.75 18.36Q28.82 17.71 28.94 16.34L28.84 16.25L28.87 16.27Q28.20 16.82 27.44 16.71L27.28 16.55L27.28 16.55Q24.93 16.29 23.90 13.40L24.05 13.55L24.05 13.55Q24.99 20.88 25.10 28.04L25.14 28.08L25.18 28.11Q25.21 35.19 24.22 42.69Z"/><path fill="#111" d="M109.44 47.18L109.38 47.12L109.30 47.04Q108.42 47.30 106.51 47.60L106.44 47.53L106.55 47.64Q107.78 45.41 108.81 44.11L108.77 44.07L108.81 44.11Q110.61 44.46 110.76 44.46L110.75 44.45L110.68 44.39Q110.94 44.42 111.47 44.30L111.51 44.34L111.61 44.44Q112.17 44.24 112.36 44.24L112.36 44.24L112.48 44.36Q115.06 44.12 114.98 41.95L114.82 41.79L114.86 41.83Q114.87 40.39 114.75 34.14L114.70 34.10L114.83 34.22Q114.61 30.50 114.68 26.35L114.86 26.52L116.13 26.20L116.12 26.18Q116.77 26.08 117.46 25.85L117.50 25.89L117.49 25.88Q117.23 30.26 117.26 34.64L117.34 34.72L117.38 34.75Q117.38 39.09 117.91 43.47L117.92 43.48L117.99 43.55Q118.07 43.85 118.07 44.12L118.08 44.13L118.03 44.09Q118.03 45.73 116.36 46.11L116.29 46.04L116.32 46.07Q113.11 46.36 109.26 47.01ZM116.04 22.79L113.91 19.67L114.07 19.84Q115.00 18.32 116.82 15.54L116.79 15.51L116.87 15.59Q117.44 16.39 118.77 18.22L118.85 18.30L116.18 22.94ZM119.19 49.54L119.17 49.52L119.19 49.55Q119.60 49.47 120.37 49.12L120.45 49.20L120.42 49.17Q120.71 48.44 120.71 47.98L120.70 47.97L120.74 48.01Q120.69 47.61 120.57 47.01L120.61 47.04L120.56 46.99Q119.29 40.66 119.29 32.74L119.34 32.79L119.36 32.81Q119.23 29.83 119.38 26.93L119.39 26.94L119.49 27.04Q118.96 27.23 117.81 27.54L117.67 27.40L117.76 27.48Q117.80 27.02 117.83 26.49L117.82 26.47L117.97 25.45L117.93 25.41Q116.28 26.11 114.49 26.15L114.41 26.07L114.31 25.97Q114.31 30.35 114.35 33.93L114.30 33.88L114.45 41.76L114.51 41.82Q114.69 43.90 112.52 44.02L112.40 43.90L112.38 43.88Q112.29 44.01 111.77 44.07L111.75 44.05L111.75 44.05Q111.07 43.94 110.80 43.94L110.92 44.05L110.91 44.05Q110.49 44.08 108.93 43.66L108.89 43.63L108.85 43.58Q108.46 44.26 107.35 45.93L107.38 45.96L105.74 48.16L105.77 48.20Q106.66 48.01 108.29 47.63L108.29 47.63L107.85 48.37L107.36 49.06L107.31 49.01Q109.63 48.90 110.97 48.97L110.94 48.95L110.85 48.86Q113.20 49.07 119.14 49.49ZM116.17 23.69L116.15 23.66L116.34 22.97L116.49 23.13Q116.70 23.42 117.65 25.01L117.81 25.17L117.67 25.03Q119.29 22.00 120.85 18.92L120.86 18.93L120.87 18.94Q119.76 17.23 118.81 15.93L118.84 15.96L118.90 16.02Q118.72 16.26 118.38 16.79L118.41 16.83L118.29 16.70Q118.02 16.21 117.03 14.92L116.95 14.83L116.91 14.79Q115.74 16.40 113.42 19.75L113.38 19.71L113.54 19.87Q114.30 20.94 116.01 23.53Z"/><path fill="#222" d="M58.64 32.08L49.42 22.09L49.40 22.07Q50.27 25.80 50.27 29.53L50.27 29.52L50.39 29.64Q50.39 35.63 48.34 41.18L48.16 41.01L48.16 41.01Q47.19 41.37 44.94 42.13L44.86 42.05L44.88 42.07Q47.72 36.30 47.72 29.60L47.74 29.62L47.71 29.59Q47.86 21.10 43.37 13.68L43.33 13.64L43.23 13.54Q43.60 13.64 44.29 14.06L44.47 14.25L44.47 14.24Q56.49 25.39 64.33 34.64L64.37 34.68L64.39 34.70Q64.04 32.22 64.04 29.78L63.95 29.69L63.95 29.69Q64.01 22.52 66.52 16.31L66.52 16.31L66.57 16.36Q68.92 15.85 70.51 15.17L70.48 15.13L70.51 15.16Q67.14 21.27 66.83 28.43L66.92 28.51L66.91 28.51Q66.44 35.68 69.41 41.85L69.52 41.96L69.55 41.99Q68.86 41.80 68.44 41.61L68.49 41.65L68.59 41.76Q64.01 37.78 58.79 32.22L58.72 32.15ZM72.14 45.15L72.22 45.24L72.07 45.08Q72.64 45.35 73.06 45.54L72.91 45.39L73.98 45.96L73.85 45.84Q68.76 38.96 68.76 29.59L68.75 29.58L68.64 29.47Q68.68 22.28 72.00 16.04L72.01 16.05L72.09 16.14Q71.43 16.35 70.03 16.96L69.89 16.83L69.87 16.81Q70.34 16.05 71.17 14.49L71.13 14.45L71.11 14.43Q68.65 15.32 66.21 15.89L66.34 16.01L66.22 15.89Q63.58 22.36 63.58 29.78L63.60 29.80L63.55 29.75Q63.54 31.60 63.73 33.58L63.91 33.77L63.92 33.77Q59.12 27.95 54.36 23.34L54.52 23.50L44.35 13.71L44.35 13.71Q43.71 13.33 42.49 12.76L42.60 12.87L42.50 12.77Q47.44 20.57 47.44 29.67L47.33 29.56L47.36 29.59Q47.34 36.68 44.26 42.70L44.43 42.88L44.41 42.86Q44.56 42.59 46.20 41.98L46.27 42.05L46.32 42.10Q45.93 42.81 45.09 44.30L45.06 44.26L45.15 44.36Q46.40 43.74 49.86 42.94L49.89 42.97L50.02 43.10Q52.27 36.90 52.27 29.70L52.34 29.77L52.15 29.58Q52.21 27.55 51.98 25.42L51.94 25.37L51.98 25.41Q63.55 38.31 72.15 45.16Z"/><path fill="#333" d="M81.06 19.10L81.12 19.16L81.21 19.26Q82.36 23.75 82.51 26.95L82.50 26.94L82.35 26.79Q82.87 26.85 87.25 26.97L87.34 27.06L87.35 27.07Q89.80 27.01 90.18 23.54L90.17 23.54L90.24 23.61Q90.50 21.92 89.58 21.01L89.59 21.02L89.53 20.96Q88.26 20.06 86.28 19.91L86.28 19.91L86.23 19.86Q82.96 19.60 81.10 19.14ZM82.63 28.90L82.58 28.85L82.47 28.74Q82.76 34.86 80.97 40.80L80.90 40.72L80.85 40.67Q79.68 41.07 77.10 42.09L77.10 42.10L77.16 42.16Q79.98 35.65 79.64 28.19L79.62 28.18L79.61 28.17Q79.32 20.83 76.01 14.32L75.87 14.18L76.01 14.32Q80.87 17.13 87.84 17.13L87.83 17.12L87.73 17.02Q93.44 17.09 93.70 20.63L93.71 20.64L93.75 20.68Q93.73 21.20 93.66 21.80L93.78 21.92L93.58 22.95L93.53 22.90Q92.72 26.84 90.58 28.55L90.55 28.52L90.72 28.69Q89.78 29.24 88.76 29.24L88.88 29.36L86.24 29.31L86.14 29.21Q91.90 36.61 96.43 41.18L96.31 41.06L96.31 41.06Q94.16 40.35 91.23 40.01L91.29 40.07L91.19 39.97Q87.39 35.98 82.48 28.75ZM91.14 40.42L91.07 40.35L91.42 40.39L92.62 41.59L92.64 41.61Q93.25 42.19 93.90 42.79L93.84 42.73L93.85 42.75Q97.44 43.41 101.02 45.27L101.02 45.27L100.99 45.24Q94.15 38.59 88.74 31.66L88.67 31.59L90.35 31.52L90.32 31.49Q93.45 31.54 94.79 27.01L94.87 27.09L94.76 26.98Q95.51 24.84 95.51 22.13L95.49 22.11L95.60 22.22Q95.50 19.84 93.79 19.20L93.71 19.12L93.82 19.23Q93.69 18.83 93.12 18.15L93.10 18.13L93.13 18.16Q91.50 16.75 87.84 16.68L87.87 16.71L87.89 16.72Q79.97 16.53 75.29 13.52L75.32 13.55L75.27 13.51Q78.96 20.28 79.31 27.97L79.25 27.92L79.25 27.92Q79.64 35.92 76.52 42.77L76.57 42.82L76.61 42.87Q77.73 42.16 78.53 41.85L78.65 41.97L77.50 44.09L77.63 44.23Q80.38 43.21 83.05 42.72L83.09 42.76L83.05 42.72Q84.26 37.53 84.45 32.32L84.49 32.36L84.49 32.36Q87.87 37.19 91.03 40.31ZM89.75 22.35L89.87 22.47L89.87 22.47Q89.88 22.71 89.88 23.05L89.82 22.99L89.92 23.67L89.85 23.59Q89.86 24.71 89.18 25.66L89.28 25.77L89.11 25.59Q88.56 26.41 87.64 26.60L87.77 26.73L87.68 26.64Q87.47 26.69 85.87 26.73L85.75 26.61L85.84 26.70Q85.34 26.81 84.50 26.70L84.34 26.54L84.52 26.72Q84.38 25.17 84.04 22.12L83.97 22.05L84.08 22.17Q85.39 22.25 86.07 22.25L86.15 22.33L86.03 22.21Q87.88 22.23 89.82 22.42Z"/></svg>