<svg xmlns="http://www.w3.org/2000/svg" width="150" height="50"><path d="M3 19 C95 21,77 33,143 17" stroke="#333" fill="none"/><path d="M19 49 C89 14,61 46,131 37" stroke="#222" fill="none"/><path d="M11 27 C82 25,57 45,130 44" stroke="#111" fill="none"/><path d="M14 44 C58 8,89 42,137 36" stroke="#999" fill="none"/><path fill="#333" d="M35.58 23.31L35.50 23.23L35.57 23.30Q33.82 19.19 27.62 19.38L27.66 19.42L27.58 19.34Q23.19 19.49 21.21 20.93L21.27 20.99L21.31 21.03Q18.78 22.66 18.78 26.77L18.86 26.84L18.85 28.69L18.92 28.77Q18.94 37.62 27.97 37.62L27.78 37.43L27.96 37.61Q29.96 37.56 31.44 36.76L31.41 36.72L31.38 36.70Q33.28 35.74 33.13 33.87L33.07 33.82L33.14 33.89Q32.81 31.66 29.12 30.74L29.16 30.79L27.33 30.90L27.16 30.73Q26.38 30.90 25.43 30.94L25.31 30.82L25.38 30.89Q25.30 29.86 25.26 27.95L25.26 27.95L25.36 28.05Q32.99 28.02 37.17 27.68L37.07 27.58L37.19 27.69Q37.15 28.53 37.15 29.33L37.13 29.31L37.12 29.30Q37.10 30.08 37.14 30.88L37.12 30.86L37.25 30.99Q36.04 30.89 36.04 30.89L36.11 30.96L35.96 30.80Q34.61 30.83 34.99 30.83L35.02 30.86L35.10 30.94Q36.19 32.56 36.57 34.54L36.44 34.41L36.43 34.40Q36.65 35.23 36.65 35.69L36.70 35.74L36.62 35.66Q36.63 40.31 27.83 40.31L27.86 40.34L27.92 40.40Q20.73 40.32 18.14 38.23L18.17 38.26L18.20 38.29Q16.20 35.91 16.20 30.85L16.21 30.85L16.17 30.81Q16.13 29.71 15.98 27.01L15.96 26.99L16.04 27.07Q15.76 24.58 15.80 23.21L15.94 23.36L15.83 23.24Q16.03 20.47 17.40 18.87L17.27 18.74L17.40 18.88Q19.86 16.73 24.74 16.54L24.87 16.67L27.45 16.51L27.41 16.47Q30.50 16.36 33.92 16.78L33.95 16.80L33.96 16.82Q37.64 17.22 38.59 20.46L38.78 20.64L38.77 20.63Q37.56 21.37 35.47 23.20ZM36.87 25.40L37.18 25.59L37.12 25.53Q38.21 24.34 40.07 22.36L40.21 22.49L40.03 22.31Q39.76 21.39 38.77 19.68L38.81 19.73L38.81 19.72Q37.62 17.05 33.81 16.40L33.80 16.39L33.90 16.49Q31.78 16.39 27.48 16.08L27.35 15.96L24.69 16.11L24.77 16.20Q19.49 16.28 16.90 18.26L16.98 18.34L16.97 18.33Q15.57 19.93 15.46 23.02L15.42 22.99L15.52 23.08Q15.62 22.73 15.85 28.21L15.86 28.22L15.85 28.21Q15.70 29.39 15.78 32.13L15.93 32.29L15.84 32.19Q16.11 36.73 17.86 38.67L17.76 38.57L17.80 38.61Q18.19 39.46 19.07 40.33L19.02 40.29L18.96 40.23Q21.98 42.22 27.50 42.56L27.42 42.49L30.26 42.62L30.29 42.65Q31.98 42.85 34.00 42.74L33.91 42.66L34.02 42.76Q35.33 42.55 37.43 42.02L37.50 42.10L37.42 42.01Q39.48 41.64 39.44 39.31L39.36 39.24L39.38 39.25Q39.49 38.10 38.42 35.32L38.31 35.22L38.43 35.33Q38.02 34.31 37.48 33.51L37.47 33.50L37.54 33.57Q38.04 33.50 39.22 33.69L39.20 33.67L39.31 33.78Q39.07 30.22 39.10 29.54L39.08 29.51L38.99 29.42Q38.57 29.39 38.15 29.35L38.23 29.42L38.17 29.37Q37.76 29.30 37.38 29.38L37.53 29.52L37.48 29.47Q37.44 28.33 37.51 27.26L37.56 27.31L37.59 27.34Q31.35 27.87 25.07 27.76L24.99 27.68L25.02 27.71Q25.05 28.62 25.05 29.53L24.94 29.42L24.96 31.19L25.09 31.32Q25.41 31.26 25.83 31.22L25.85 31.25L25.77 31.16Q26.32 31.30 26.78 31.30L26.74 31.25L26.70 31.22Q26.64 31.61 26.68 32.11L26.81 32.24L26.74 32.17Q26.78 32.67 26.74 33.16L26.69 33.11L26.67 33.09Q27.77 33.13 28.80 33.09L28.80 33.09L28.68 32.97Q29.80 33.06 30.83 33.10L30.92 33.20L30.77 33.04Q31.95 33.42 32.82 33.80L32.69 33.66L32.80 33.82L32.77 33.79Q32.96 35.35 31.28 36.26L31.24 36.21L31.16 36.14Q29.57 37.13 27.86 37.13L27.97 37.24L27.79 37.07Q23.93 37.05 21.49 35.30L21.63 35.43L21.58 35.39Q20.55 33.29 20.70 30.74L20.85 30.88L20.76 30.79Q21.04 25.97 22.88 23.97L23.00 24.09L22.99 24.08Q24.80 22.05 29.48 21.74L29.37 21.63L29.37 21.63Q33.06 21.44 35.01 23.23L35.14 23.36L35.16 23.38Q35.12 23.38 35.23 23.57L35.17 23.50L35.42 23.64L35.36 23.58Q36.08 24.42 36.65 25.52L36.52 25.39L36.85 25.38Z"/><path fill="#222" d="M82.68 40.43L82.51 40.26L82.61 40.36Q81.14 40.37 79.58 39.95L79.71 40.09L79.67 40.04Q78.46 39.14 78.31 37.50L78.22 37.42L78.25 37.44Q78.15 37.19 78.34 34.57L78.43 34.65L78.37 34.60Q79.41 34.42 81.43 34.04L81.39 34.00L81.24 34.80L81.32 34.88Q81.07 36.65 82.48 37.22L82.31 37.05L82.41 37.15Q83.22 37.51 85.32 37.51L85.29 37.48L85.23 37.42Q86.93 37.36 87.12 37.29L87.00 37.17L87.04 37.21Q87.99 37.09 88.71 36.60L88.75 36.63L88.71 36.60Q90.15 35.67 89.96 33.58L89.89 33.51L89.90 33.52Q89.66 31.04 87.93 29.48L87.98 29.53L87.94 29.48Q86.26 27.98 83.79 27.98L83.79 27.98L83.86 27.82L83.91 27.88Q84.21 27.76 85.09 27.69L85.12 27.72L85.08 27.68Q86.92 27.49 88.29 26.26L88.29 26.26L88.40 26.37Q89.64 25.00 89.79 23.14L89.92 23.26L89.87 23.22Q89.85 22.77 89.85 22.43L90.01 22.60L90.02 22.61Q89.89 20.95 88.52 20.04L88.65 20.16L88.53 20.05Q87.43 19.36 85.83 19.48L85.66 19.31L85.76 19.41Q84.45 19.24 83.23 19.66L83.30 19.73L83.30 19.72Q81.86 20.27 81.56 21.41L81.49 21.35L81.46 21.32Q81.38 22.19 81.45 22.95L81.36 22.85L81.46 22.95Q80.33 22.62 78.27 21.90L78.31 21.93L78.30 21.92Q78.12 20.29 78.15 19.45L78.03 19.34L78.14 19.44Q78.22 17.88 79.28 17.20L79.23 17.15L79.25 17.16Q80.74 16.64 82.34 16.64L82.20 16.50L82.27 16.56Q85.50 16.60 88.66 16.86L88.63 16.83L88.51 16.72Q93.70 17.26 93.40 21.03L93.38 21.02L93.29 20.92Q93.36 22.56 92.87 24.12L92.80 24.05L92.70 23.95Q91.97 27.21 89.60 28.13L89.51 28.03L89.62 28.14Q92.22 28.64 92.82 31.99L92.71 31.88L92.84 32.01Q93.02 33.10 93.09 35.12L93.12 35.15L93.05 35.08Q93.17 39.49 88.56 39.95L88.64 40.03L88.67 40.06Q87.80 39.98 82.50 40.25ZM87.85 42.63L87.89 42.67L87.85 42.63Q88.40 42.61 91.26 42.69L91.37 42.80L91.18 42.61Q93.02 42.77 94.66 42.12L94.72 42.19L94.60 42.07Q95.92 41.25 95.72 39.50L95.58 39.36L95.68 39.46Q95.45 38.01 95.14 36.26L95.33 36.44L95.17 36.28Q94.45 31.79 92.51 30.16L92.58 30.23L92.31 29.77L92.29 29.71L92.43 29.85Q94.19 28.41 94.95 24.03L94.93 24.01L94.89 23.97Q94.81 23.40 94.93 22.45L94.96 22.48L95.07 22.59Q95.08 21.76 95.00 21.08L95.02 21.09L94.97 21.04Q94.92 19.48 93.63 18.79L93.58 18.74L93.40 18.64L93.58 18.81Q93.09 17.64 91.95 17.11L92.07 17.23L92.12 17.28Q90.56 16.56 85.42 16.26L85.40 16.23L85.31 16.14Q83.67 16.10 82.07 16.10L82.09 16.12L82.17 16.20Q80.47 16.10 78.95 16.75L78.91 16.71L78.96 16.75Q77.80 17.57 77.80 19.33L77.77 19.30L77.71 19.24Q77.82 18.93 78.08 22.28L78.03 22.23L77.96 22.16Q78.30 22.27 79.94 22.88L79.99 22.93L79.98 22.92Q79.98 23.45 79.94 23.94L79.90 23.90L79.97 23.97Q79.98 24.48 80.02 25.01L79.90 24.89L80.00 24.99Q81.75 25.33 83.76 25.45L83.75 25.43L83.79 25.47Q83.69 23.43 84.80 22.60L84.89 22.69L84.76 22.56Q85.62 21.93 87.63 21.70L87.68 21.75L87.74 21.81Q88.81 21.74 89.38 21.93L89.45 22.00L89.34 21.89Q89.40 22.02 89.44 22.14L89.52 22.22L89.37 22.26L89.49 22.84L89.57 22.91Q89.60 23.13 89.56 23.29L89.47 23.19L89.43 23.15Q89.47 24.98 87.94 26.16L87.92 26.14L87.87 26.08Q87.06 27.11 85.05 27.30L85.06 27.31L85.02 27.28Q84.27 27.40 83.40 27.40L83.46 27.46L83.35 27.35Q83.45 27.76 83.60 28.44L83.64 28.48L83.59 28.43Q85.33 28.42 86.78 29.15L86.76 29.13L86.73 29.21L85.15 29.39L85.02 29.25Q85.13 29.67 85.24 30.27L85.19 30.22L85.16 30.20Q87.40 30.23 89.12 31.56L89.01 31.45L89.07 31.52Q89.30 31.90 89.60 33.53L89.65 33.58L89.66 33.59Q89.91 36.58 86.98 36.99L86.83 36.85L86.94 36.96Q84.89 37.27 84.32 37.23L84.22 37.13L84.14 37.05Q83.76 37.01 83.22 36.94L83.25 36.96L83.16 36.42L83.40 36.09L83.40 35.66L83.48 35.40L83.46 35.38Q82.39 35.34 81.59 35.53L81.67 35.61L81.72 35.66Q81.63 35.38 81.63 35.19L81.74 35.30L81.56 35.12Q81.64 34.97 81.64 34.75L81.65 34.75L81.72 34.82Q81.77 34.42 81.92 33.70L81.94 33.71L81.85 33.62Q80.03 33.90 78.17 34.24L78.18 34.26L78.19 34.26Q78.21 34.77 78.09 35.90L77.97 35.77L78.00 35.80Q77.83 36.87 77.83 37.48L77.89 37.54L77.97 37.62Q77.96 39.59 79.33 40.35L79.39 40.41L79.43 40.45Q80.82 42.64 85.54 42.45L85.57 42.48L85.51 42.42Q86.20 42.35 87.72 42.50Z"/><path fill="#444" d="M55.48 28.97L55.37 28.86L55.46 28.95Q52.98 29.02 51.95 30.20L51.82 30.07L51.89 30.14Q50.84 31.30 50.84 33.92L50.78 33.87L50.75 33.83Q50.86 39.05 55.47 38.86L55.38 38.77L55.40 38.79Q57.45 38.93 58.80 37.37L58.78 37.35L58.95 37.52Q60.23 35.89 60.01 33.84L60.04 33.87L60.03 33.86Q59.91 31.19 59.03 30.16L59.13 30.25L59.03 30.16Q57.61 28.89 55.40 28.89ZM60.37 38.62L60.49 38.74L60.45 38.70Q59.30 41.20 54.61 41.20L54.54 41.13L53.20 41.23L53.15 41.18Q50.83 41.23 49.73 40.08L49.78 40.14L49.71 40.06Q48.62 38.98 48.35 36.58L48.36 36.58L48.47 36.69Q48.31 35.20 48.23 33.41L48.17 33.35L48.23 33.41Q48.09 32.31 47.93 30.37L47.97 30.40L47.91 30.35Q47.87 26.12 53.05 26.12L53.09 26.16L54.63 26.14L54.52 26.03Q57.42 26.04 59.51 27.33L59.68 27.50L59.59 27.41Q60.45 27.97 60.95 28.65L60.84 28.55L60.85 28.55Q61.23 27.87 61.76 26.23L61.76 26.23L61.65 26.11Q62.94 26.00 65.26 25.39L65.25 25.38L65.15 25.28Q62.60 29.54 62.60 34.79L62.53 34.72L62.72 34.91Q62.57 38.50 63.94 41.58L64.04 41.68L63.98 41.62Q62.76 41.23 60.85 41.00L61.04 41.19L60.99 41.15Q60.79 40.30 60.49 38.73ZM63.79 43.94L63.79 43.94L65.89 44.41L66.01 44.52Q67.22 44.82 68.21 45.28L68.24 45.31L68.17 45.23Q64.50 40.88 64.50 34.79L64.51 34.80L64.52 34.81Q64.51 30.27 66.64 26.47L66.72 26.54L66.66 26.48Q66.05 26.75 64.72 27.13L64.71 27.13L64.69 27.10Q65.12 26.43 66.00 24.91L65.96 24.87L65.88 24.79Q65.29 24.96 61.29 25.79L61.35 25.86L60.71 27.61L60.84 27.74Q58.88 25.82 54.46 25.59L54.59 25.71L54.47 25.60Q53.45 25.72 51.20 25.87L51.11 25.78L51.19 25.86Q47.44 26.14 47.55 30.18L47.69 30.32L47.59 30.21Q47.67 33.49 48.24 37.95L48.34 38.05L48.44 38.57L48.42 38.55Q48.40 39.25 49.20 40.35L49.26 40.41L49.30 40.45Q49.45 40.61 49.64 40.72L49.53 40.61L49.68 40.76Q49.97 41.28 50.35 41.85L50.28 41.77L50.21 41.71Q51.68 43.29 55.07 43.48L55.08 43.50L55.00 43.41Q56.69 43.58 56.84 43.58L56.87 43.61L58.47 43.65L58.31 43.49Q61.55 43.53 62.77 41.97L62.80 42.00L62.77 41.97Q63.16 42.63 63.77 43.92ZM57.24 31.19L57.19 31.13L57.25 31.20Q58.49 31.11 59.33 31.56L59.32 31.55L59.33 31.57Q59.68 32.41 59.68 33.86L59.77 33.94L59.67 33.84Q59.91 35.79 58.63 37.22L58.67 37.26L58.69 37.29Q57.34 38.64 55.44 38.45L55.37 38.38L55.34 38.35Q53.91 38.37 52.88 37.95L52.98 38.05L52.90 37.96Q52.68 37.10 52.68 35.88L52.70 35.90L52.68 35.88Q52.89 32.44 55.52 31.48L55.60 31.57L55.59 31.56Q56.43 31.17 57.23 31.17Z"/><path fill="#111" d="M116.67 28.79L116.61 28.73L116.71 28.83Q114.07 28.70 112.77 29.84L112.90 29.97L112.85 29.92Q111.30 31.03 111.49 33.54L111.56 33.61L111.64 33.69Q111.79 36.51 112.97 37.58L112.97 37.58L113.04 37.64Q114.49 38.90 116.58 38.75L116.67 38.84L116.69 38.86Q118.84 38.88 120.25 37.62L120.12 37.49L120.06 37.43Q121.53 36.43 121.72 33.88L121.72 33.88L121.68 33.84Q121.98 28.84 116.61 28.73ZM116.53 41.32L116.47 41.26L115.05 41.41L115.01 41.37Q112.08 41.29 110.59 39.88L110.70 39.99L110.55 39.84Q109.65 38.90 109.38 36.95L109.44 37.02L109.47 37.05Q109.24 35.86 109.09 33.66L109.04 33.61L109.16 33.73Q109.00 32.65 108.88 30.41L108.80 30.32L108.91 30.44Q108.81 28.54 109.76 27.40L109.76 27.40L109.76 27.40Q111.59 26.00 116.31 26.15L116.19 26.03L116.31 26.15Q121.06 26.14 122.89 27.66L123.04 27.82L123.00 27.77Q124.53 29.04 124.34 32.24L124.33 32.22L124.20 32.09Q124.04 35.70 123.96 36.12L124.03 36.18L124.04 36.20Q123.62 38.37 122.29 39.55L122.34 39.60L122.37 39.63Q120.27 41.26 116.46 41.26ZM121.31 43.82L121.17 43.68L121.30 43.81Q122.69 43.76 124.59 43.60L124.62 43.63L124.65 43.66Q125.12 43.56 125.12 43.41L125.01 43.30L125.14 43.43Q125.13 43.34 125.09 43.19L125.00 43.09L125.16 43.26Q124.99 42.97 124.99 42.86L124.94 42.81L125.02 42.89Q125.09 42.69 125.43 42.38L125.32 42.27L125.30 42.25Q126.34 41.27 126.34 39.37L126.25 39.29L126.31 39.35Q126.30 38.38 126.20 35.96L126.15 35.91L126.15 35.91Q126.06 33.49 125.90 32.39L125.82 32.30L125.99 32.48Q125.50 30.24 124.59 29.09L124.63 29.13L124.36 28.98L124.38 29.00Q124.22 28.35 123.42 27.43L123.34 27.35L123.27 27.28Q121.10 25.68 116.19 25.68L116.22 25.71L114.45 25.69L114.49 25.73Q111.16 25.72 109.45 27.09L109.29 26.93L109.43 27.07Q108.60 28.22 108.63 30.23L108.48 30.08L108.53 30.13Q108.55 30.56 108.68 31.82L108.67 31.81L108.81 31.95Q108.80 33.07 108.76 33.52L108.82 33.57L108.88 33.64Q109.02 36.60 109.10 37.05L109.16 37.12L109.03 36.99Q109.43 39.14 110.34 40.28L110.41 40.34L110.44 40.45L110.62 40.63Q111.39 43.04 115.12 43.46L115.09 43.42L115.11 43.45Q115.96 43.54 121.22 43.73ZM118.54 31.12L118.50 31.07L118.59 31.17Q119.47 31.21 121.14 31.74L121.00 31.59L121.13 31.73Q121.39 32.36 121.35 33.85L121.43 33.93L121.45 33.95Q121.32 37.40 118.42 38.16L118.30 38.03L118.44 38.17Q117.68 38.33 116.65 38.44L116.71 38.50L116.57 38.36Q115.68 38.57 113.96 37.96L113.88 37.88L113.80 37.80Q113.69 37.23 113.72 35.74L113.57 35.59L113.72 35.73Q113.67 33.29 115.04 32.26L115.15 32.37L115.14 32.37Q116.05 31.48 118.60 31.17Z"/></svg>