<svg xmlns="http://www.w3.org/2000/svg" width="150" height="50"><path d="M2 46 C62 13,85 21,131 25" stroke="#777" fill="none"/><path d="M17 11 C69 14,76 32,137 17" stroke="#333" fill="none"/><path d="M3 39 C96 18,55 47,145 45" stroke="#333" fill="none"/><path d="M5 26 C93 38,79 8,130 23" stroke="#333" fill="none"/><path fill="#222" d="M92.72 21.48L92.80 21.56L92.79 21.54Q91.11 20.17 89.47 19.79L89.38 19.70L89.56 19.88Q88.45 19.61 85.68 19.57L85.67 19.56L85.64 19.54Q80.31 19.34 78.25 21.36L78.28 21.39L78.41 21.52Q76.68 22.99 76.79 26.68L76.92 26.81L76.77 26.66Q76.93 30.47 77.08 31.42L77.07 31.41L77.15 31.49Q78.20 37.57 85.93 37.57L85.83 37.47L85.90 37.54Q90.62 37.57 92.71 35.18L92.63 35.10L92.67 35.13Q94.53 32.92 94.76 28.16L94.89 28.29L94.89 28.30Q95.13 23.47 92.81 21.57ZM85.79 40.43L85.89 40.53L85.80 40.45Q79.21 40.51 76.24 38.15L76.27 38.19L76.41 38.33Q74.24 36.08 74.12 31.02L74.25 31.14L74.13 31.02Q74.13 30.53 73.98 27.25L73.93 27.21L73.98 27.26Q73.79 24.59 73.82 23.52L73.82 23.51L73.90 23.60Q73.95 20.64 75.36 18.92L75.41 18.97L75.51 19.08Q78.04 16.77 82.91 16.62L82.80 16.51L82.74 16.45Q84.60 16.48 85.47 16.51L85.49 16.53L85.49 16.53Q95.47 16.66 97.22 21.00L97.17 20.94L97.30 21.07Q97.95 22.94 97.80 25.68L97.91 25.79L97.80 25.68Q97.90 27.50 97.71 30.77L97.72 30.78L97.61 30.67Q97.46 33.52 96.54 35.58L96.49 35.53L96.56 35.60Q94.57 40.38 85.93 40.57ZM98.18 40.46L98.15 40.42L98.26 40.53Q99.62 38.73 99.73 35.64L99.77 35.68L99.78 35.69Q99.76 34.57 99.72 32.97L99.74 32.99L99.77 33.02Q99.77 32.30 99.73 30.47L99.73 30.47L99.61 30.35Q99.64 23.30 97.70 20.82L97.68 20.80L97.74 20.87Q97.32 19.83 96.21 18.73L96.26 18.77L96.20 18.71Q92.98 16.29 85.52 16.14L85.37 15.99L85.42 16.04Q78.07 15.97 75.03 18.55L75.00 18.53L75.03 18.56Q73.49 20.33 73.49 23.26L73.50 23.27L73.51 23.28Q73.44 24.51 73.59 25.84L73.73 25.98L73.73 25.97Q73.66 26.97 73.70 28.42L73.73 28.45L73.67 28.39Q73.86 32.38 74.01 33.56L73.96 33.51L74.04 33.59Q74.49 36.59 75.82 38.38L75.77 38.33L75.71 38.27Q76.27 39.67 77.34 40.43L77.23 40.33L77.18 40.27Q80.48 42.67 88.25 42.86L88.25 42.85L88.15 42.76Q95.53 43.02 98.19 40.46ZM94.49 28.16L94.55 28.21L94.61 28.28Q94.36 32.79 92.46 34.88L92.43 34.85L92.37 34.79Q90.26 37.02 85.81 37.06L85.85 37.11L85.80 37.05Q81.45 37.09 79.32 35.19L79.41 35.27L79.38 35.24Q78.70 33.65 78.77 30.75L78.68 30.66L78.77 30.75Q78.83 26.09 80.85 23.92L80.76 23.83L80.91 23.98Q82.98 21.86 87.59 21.86L87.54 21.82L87.47 21.75Q91.69 21.78 93.79 23.65L93.77 23.63L93.73 23.59Q94.62 25.39 94.51 28.17Z"/><path fill="#444" d="M24.14 40.48L23.95 40.29L24.13 40.46Q19.99 40.63 19.00 38.30L19.05 38.36L19.06 38.37Q19.66 37.25 21.22 35.46L21.29 35.53L21.26 35.50Q21.70 37.47 24.71 37.58L24.90 37.77L24.90 37.77Q28.10 37.66 29.73 36.32L29.90 36.49L29.89 36.48Q31.24 34.82 31.16 32.12L31.21 32.17L31.25 32.21Q31.03 27.07 26.23 27.30L26.15 27.23L26.22 27.29Q23.31 27.35 21.56 28.61L21.70 28.75L21.23 28.44L21.07 28.35L21.18 28.46Q21.36 25.13 21.24 22.39L21.37 22.52L21.24 22.39Q21.20 19.83 20.85 16.52L20.84 16.50L20.88 16.54Q24.57 17.53 28.38 17.42L28.43 17.47L28.33 17.38Q32.18 17.34 35.76 16.08L35.65 15.97L35.10 17.52L35.16 17.58Q34.94 18.42 34.75 19.26L34.74 19.25L34.62 19.13Q31.51 20.17 27.62 20.17L27.71 20.25L27.68 20.22Q26.14 20.13 24.65 19.98L24.75 20.07L24.72 20.04Q24.60 20.69 24.26 25.14L24.26 25.14L24.21 25.09Q25.11 24.70 27.16 24.54L27.18 24.56L27.19 24.57Q30.97 24.85 32.42 26.53L32.47 26.57L32.42 26.52Q33.65 27.91 33.92 31.75L34.09 31.92L33.97 31.80Q34.31 36.07 33.09 38.08L32.97 37.96L33.10 38.10Q31.14 40.05 27.82 40.28L27.70 40.15L27.69 40.14Q26.63 40.15 23.96 40.30ZM30.18 42.75L30.10 42.67L30.01 42.58Q33.58 42.80 35.48 41.69L35.47 41.68L35.41 41.63Q36.32 40.02 36.32 37.93L36.33 37.94L36.46 38.06Q36.37 34.89 35.42 30.78L35.46 30.82L35.46 30.82Q35.09 29.08 33.87 27.67L33.84 27.65L33.83 27.67L33.62 27.38L33.38 27.30L33.30 27.22Q33.10 26.60 32.45 25.91L32.45 25.91L32.38 25.88L32.29 25.79Q30.83 24.17 27.13 24.17L27.21 24.25L26.84 24.14L26.99 24.30Q27.00 23.65 27.19 22.55L27.17 22.53L27.22 22.58Q32.23 22.72 36.26 21.08L36.20 21.02L36.22 21.03Q36.68 19.67 37.63 16.85L37.53 16.75L35.42 17.69L35.38 17.65Q35.94 16.68 36.43 15.54L36.33 15.44L36.30 15.41Q32.40 16.79 28.28 16.87L28.38 16.96L28.46 17.04Q24.27 17.08 20.31 15.97L20.23 15.90L20.30 15.97Q21.05 20.45 21.05 24.87L21.01 24.83L20.94 24.76Q21.01 26.73 20.90 28.63L20.93 28.66L20.84 28.58Q21.16 28.81 21.73 29.12L21.71 29.10L21.63 29.02Q22.05 28.87 22.70 28.53L22.66 28.49L22.62 28.45Q22.74 29.37 22.51 30.89L22.54 30.92L22.37 30.75Q22.96 31.11 23.38 31.34L23.36 31.33L23.31 31.27Q26.03 29.46 27.89 29.46L27.99 29.55L27.84 29.41Q29.21 29.44 30.39 30.09L30.47 30.17L30.53 30.23Q30.76 31.15 30.80 32.10L30.76 32.06L30.73 32.03Q30.96 34.78 29.93 35.88L29.85 35.80L29.94 35.89Q28.45 36.98 26.20 37.21L26.17 37.18L26.24 37.24Q25.36 37.40 24.68 37.32L24.53 37.18L24.61 37.26Q23.82 37.19 23.06 36.85L23.04 36.82L22.90 36.49L22.83 36.66L22.94 36.77Q22.02 36.15 21.48 34.81L21.58 34.91L21.49 34.82Q20.21 36.28 18.54 38.42L18.59 38.46L18.49 38.37Q18.82 39.04 19.66 39.99L19.67 40.01L19.58 39.92Q20.78 41.88 23.60 42.38L23.45 42.22L23.45 42.22Q24.83 42.65 30.19 42.76Z"/><path fill="#111" d="M56.50 40.27L56.36 40.13L53.95 33.26L54.10 33.42Q49.72 20.81 43.78 14.41L43.68 14.32L43.63 14.26Q45.72 15.41 48.31 16.02L48.26 15.96L48.22 15.92Q53.48 22.33 57.82 35.08L57.78 35.03L57.84 35.10Q60.86 26.97 61.55 25.37L61.49 25.31L61.59 25.42Q63.86 19.68 66.67 16.37L66.71 16.41L66.76 16.46Q68.73 15.99 71.35 15.11L71.39 15.15L71.35 15.11Q66.78 19.71 63.73 26.94L63.86 27.07L63.77 26.98Q62.48 30.75 58.78 40.27L58.77 40.25L58.62 40.10Q58.14 40.20 57.57 40.16L57.54 40.13L57.56 40.15Q57.07 40.23 56.50 40.27ZM61.42 42.60L61.44 42.62L61.51 42.69Q64.24 32.63 65.80 28.59L65.70 28.49L65.86 28.66Q68.79 20.89 73.21 16.02L73.16 15.96L73.20 16.00Q72.18 16.40 70.09 17.12L70.07 17.10L71.17 15.73L71.32 15.88Q71.71 15.01 72.32 14.37L72.45 14.50L72.34 14.38Q69.61 15.47 66.61 16.04L66.61 16.04L66.56 15.99Q62.19 21.33 58.31 32.79L58.23 32.71L58.31 32.79Q54.64 22.65 51.44 18.27L51.54 18.37L51.54 18.37Q51.16 18.29 50.28 18.14L50.15 18.01L50.12 17.97Q50.01 17.71 48.41 15.65L48.42 15.67L48.34 15.59Q45.37 14.87 42.67 13.46L42.63 13.42L42.70 13.49Q49.37 20.62 53.75 33.41L53.70 33.36L53.70 33.35Q54.90 36.99 56.08 40.57L56.10 40.59L56.02 40.51Q56.59 40.78 57.43 40.66L57.30 40.53L57.32 40.56Q57.64 41.21 58.32 42.55L58.29 42.52L58.44 42.67Q59.26 42.58 59.99 42.65L59.95 42.61L59.84 42.51Q60.69 42.63 61.45 42.63Z"/><path fill="#333" d="M115.23 29.73L115.28 29.78L115.24 29.74Q111.13 29.63 110.56 32.67L110.50 32.62L110.39 32.50Q110.28 33.65 110.48 34.53L110.46 34.51L110.41 34.46Q110.38 35.20 110.84 36.61L110.89 36.66L111.01 36.78Q111.96 39.83 115.28 39.67L115.31 39.71L115.34 39.74Q117.44 39.90 118.78 38.34L118.69 38.25L118.74 38.30Q119.97 36.83 119.97 34.77L119.96 34.77L119.82 34.63Q120.06 34.14 119.91 33.08L119.87 33.03L119.92 33.09Q119.88 32.21 119.46 31.52L119.44 31.50L119.45 31.51Q117.72 29.74 115.13 29.63ZM120.05 48.17L120.01 48.14L120.01 48.14Q118.19 48.71 110.12 49.09L110.19 49.17L110.13 49.11Q108.50 49.23 106.87 48.40L106.83 48.36L106.91 48.44Q107.78 47.52 109.61 45.73L109.53 45.65L109.47 45.59Q111.96 46.72 114.06 46.53L114.01 46.48L114.07 46.54Q116.90 46.21 117.74 45.94L117.66 45.87L117.68 45.89Q119.91 45.19 119.91 43.40L120.07 43.55L119.95 43.43Q120.01 43.26 119.93 43.03L119.81 42.91L119.74 41.36L119.84 41.46Q119.87 40.73 119.87 39.93L119.83 39.88L119.72 39.78Q118.43 42.10 115.04 42.10L115.10 42.16L115.03 42.09Q111.16 42.10 109.52 39.90L109.46 39.83L109.52 39.90Q108.41 38.36 107.61 33.95L107.57 33.91L107.68 34.01Q107.34 32.46 107.34 31.05L107.25 30.96L107.34 31.05Q107.34 29.26 108.25 28.27L108.12 28.14L108.26 28.28Q109.91 26.85 114.55 26.85L114.57 26.86L116.38 27.11L116.27 27.00Q119.48 27.35 120.81 29.29L120.88 29.36L120.74 29.22Q121.04 28.50 121.46 26.86L121.45 26.85L121.37 26.77Q123.27 26.46 125.02 25.74L125.05 25.76L125.07 25.79Q122.37 31.85 122.37 39.08L122.29 39.00L122.42 39.13Q122.32 41.69 122.70 44.31L122.78 44.40L122.71 44.33Q122.93 45.04 122.85 45.73L122.91 45.79L122.85 45.72Q122.58 47.01 121.36 47.77L121.45 47.87L121.48 47.90Q120.85 48.03 120.02 48.14ZM123.06 51.15L123.02 51.11L123.04 51.13Q124.50 51.18 125.26 50.23L125.40 50.37L125.37 50.34Q125.72 49.40 125.61 48.67L125.60 48.67L125.45 48.51Q125.49 48.03 125.30 47.27L125.28 47.24L125.21 47.17Q124.04 42.00 124.38 36.75L124.28 36.65L124.45 36.81Q124.68 31.26 126.81 26.43L126.81 26.42L124.77 27.43L124.68 27.34Q124.92 26.75 125.15 26.18L125.14 26.17L125.65 25.04L125.67 25.06Q123.30 25.99 121.09 26.41L121.14 26.46L121.13 26.45Q120.73 27.23 120.58 28.26L120.63 28.32L120.69 28.37Q118.53 26.41 114.50 26.41L114.50 26.41L112.68 26.34L112.76 26.42Q109.58 26.48 107.91 27.89L107.81 27.79L107.92 27.90Q106.89 28.78 106.93 30.68L107.02 30.77L107.03 30.78Q107.06 33.25 108.09 37.51L108.14 37.56L107.98 37.40Q108.58 39.45 109.80 40.86L109.68 40.74L110.09 41.15L110.01 41.07L109.99 41.05Q111.23 43.47 113.82 44.00L113.85 44.03L113.73 43.92Q115.26 44.34 116.70 44.37L116.68 44.35L116.72 44.39Q118.36 44.32 119.43 43.94L119.48 43.99L119.58 44.09Q118.96 45.64 116.30 45.98L116.30 45.99L116.21 45.90Q115.16 46.07 114.48 46.07L114.50 46.09L113.99 45.97L114.03 46.00Q111.33 46.12 109.65 45.17L109.55 45.06L107.77 46.71L107.95 46.89Q107.02 47.64 106.18 48.59L106.13 48.53L106.10 48.51Q107.13 49.08 108.12 49.27L108.26 49.41L107.28 50.17L107.39 50.29Q109.93 51.19 115.56 51.19L115.61 51.23L115.89 51.29L115.82 51.22Q119.44 51.23 123.02 51.11ZM117.08 32.00L117.12 32.04L117.10 32.02Q118.35 31.89 119.26 32.31L119.32 32.38L119.33 32.38Q119.45 32.81 119.53 33.50L119.58 33.55L119.60 33.57Q119.62 33.86 119.58 34.77L119.65 34.83L119.54 34.73Q119.59 36.75 118.48 38.05L118.37 37.93L118.35 37.91Q117.15 39.30 115.24 39.26L115.27 39.29L115.41 39.43Q113.88 39.27 113.04 38.85L113.13 38.93L112.99 38.80Q112.58 37.63 112.54 36.60L112.55 36.61L112.66 36.71Q112.61 32.43 117.21 32.13Z"/></svg>