<svg xmlns="http://www.w3.org/2000/svg" width="150" height="50"><path d="M3 12 C88 10,89 16,138 16" stroke="#222" fill="none"/><path d="M20 4 C62 30,67 41,132 18" stroke="#777" fill="none"/><path d="M12 27 C87 12,76 25,132 24" stroke="#555" fill="none"/><path d="M6 41 C75 31,75 12,136 22" stroke="#222" fill="none"/><path fill="#333" d="M27.61 30.44L27.61 30.43L27.60 30.42Q24.17 36.81 20.74 40.77L20.67 40.70L20.74 40.77Q18.83 41.14 16.39 42.02L16.37 41.99L16.49 42.11Q21.31 36.43 26.07 28.01L26.01 27.96L26.07 28.02Q21.39 20.97 15.41 14.58L15.43 14.60L15.57 14.74Q18.32 15.77 20.60 16.27L20.69 16.36L20.64 16.30Q25.39 21.63 27.83 25.59L27.82 25.58L27.84 25.60Q30.31 21.14 34.23 16.73L34.19 16.69L34.27 16.77Q35.86 16.45 39.06 15.69L38.92 15.56L39.02 15.65Q32.91 22.07 29.45 28.00L29.40 27.96L29.49 28.05Q34.54 36.60 38.92 41.17L39.06 41.31L38.92 41.18Q36.47 40.51 34.38 40.28L34.38 40.29L34.38 40.28Q31.50 37.21 27.58 30.40ZM34.23 40.55L34.26 40.59L34.16 40.48Q34.52 40.58 34.98 40.70L34.96 40.68L35.06 40.77Q35.73 41.41 37.26 43.01L37.32 43.08L37.30 43.05Q40.69 43.89 43.73 45.26L43.72 45.25L43.75 45.28Q36.56 38.62 31.46 29.86L31.50 29.91L31.54 29.95Q35.28 23.30 41.18 16.45L41.08 16.34L41.19 16.45Q39.71 17.06 37.54 17.60L37.46 17.52L37.44 17.50Q38.41 16.68 40.16 14.89L40.06 14.79L40.16 14.89Q37.82 15.82 34.12 16.39L34.05 16.32L34.06 16.33Q30.70 20.20 28.11 24.50L28.06 24.45L28.01 24.40Q27.19 22.90 26.01 21.41L25.93 21.33L23.71 18.46L23.20 18.33L23.29 18.42Q23.04 18.32 22.81 18.25L22.95 18.39L22.89 18.33Q22.30 17.58 20.81 16.02L20.73 15.94L20.64 15.85Q16.91 15.05 14.32 13.68L14.31 13.67L14.29 13.65Q21.03 20.92 25.60 27.97L25.65 28.02L25.71 28.08Q21.14 36.18 15.39 42.77L15.35 42.73L15.49 42.87Q16.77 42.16 18.90 41.59L18.85 41.54L17.53 42.96L17.51 42.94Q17.65 43.08 16.31 44.41L16.21 44.31L16.27 44.37Q19.20 43.22 22.36 42.73L22.48 42.85L22.50 42.88Q26.36 38.20 28.95 33.45L29.05 33.55L28.98 33.48Q31.59 37.77 34.30 40.62Z"/><path fill="#222" d="M93.71 37.81L93.84 37.94L93.81 37.91Q94.02 38.81 94.55 40.82L94.56 40.83L94.63 40.90Q90.34 39.51 85.74 39.77L85.72 39.76L85.75 39.79Q81.31 40.18 77.31 42.16L77.30 42.15L77.32 42.17Q77.53 41.46 77.57 41.54L77.58 41.55L77.52 41.49Q81.20 37.49 85.12 33.07L85.09 33.03L85.23 33.18Q89.61 28.15 90.79 23.47L90.72 23.39L90.70 23.38Q91.13 21.60 89.85 20.42L90.03 20.59L89.99 20.55Q88.70 19.36 86.91 19.51L86.80 19.40L86.81 19.41Q86.45 19.36 86.11 19.36L86.10 19.35L86.16 19.41Q84.67 19.44 83.41 20.35L83.33 20.28L83.40 20.34Q82.08 21.68 82.30 24.35L82.40 24.45L82.40 24.44Q80.60 24.09 79.39 23.64L79.43 23.68L79.30 23.55Q79.22 22.26 79.15 20.81L79.17 20.83L79.01 20.68Q79.03 19.14 79.64 17.99L79.66 18.02L79.56 17.91Q81.35 16.54 84.70 16.54L84.81 16.65L86.50 16.59L86.52 16.61Q88.74 16.58 89.69 16.70L89.78 16.79L89.74 16.75Q94.15 17.24 94.42 19.67L94.40 19.65L94.35 19.61Q94.36 20.11 94.28 20.91L94.33 20.95L94.25 20.87Q94.31 21.62 94.16 22.31L94.17 22.32L94.16 22.31Q92.59 30.49 85.02 37.34L84.90 37.22L84.94 37.26Q86.43 37.19 87.80 37.19L87.75 37.14L87.69 37.08Q91.05 37.20 93.90 38.00ZM93.29 17.13L93.24 17.09L93.20 17.05Q91.70 16.50 89.99 16.42L89.91 16.34L86.53 16.20L86.60 16.27Q82.00 15.86 79.79 16.96L79.84 17.01L79.82 16.99Q78.81 18.41 78.81 20.47L78.78 20.44L78.84 20.51Q78.88 21.23 79.18 24.04L79.13 24.00L79.16 24.02Q79.72 24.27 80.90 24.58L80.75 24.43L80.74 25.45L80.88 25.59Q80.75 25.96 80.83 26.49L80.79 26.45L80.86 26.52Q82.20 26.72 84.68 26.95L84.61 26.89L84.62 26.89Q84.50 26.43 84.50 26.09L84.58 26.17L84.60 26.19Q84.56 24.31 85.77 22.96L85.84 23.03L85.85 23.04Q86.98 21.60 88.77 21.72L88.84 21.78L88.77 21.71Q89.55 21.77 90.31 21.93L90.36 21.97L90.24 21.86Q90.33 22.21 90.40 22.63L90.45 22.67L90.44 22.67Q90.45 23.06 90.38 23.40L90.45 23.47L90.47 23.49Q89.20 28.24 84.78 33.07L84.69 32.98L84.70 32.99Q82.57 35.24 77.13 41.29L77.12 41.28L77.30 41.47Q76.93 42.12 76.58 42.69L76.63 42.74L76.64 42.74Q78.22 41.85 79.74 41.31L79.88 41.45L79.75 41.33Q78.99 41.85 78.04 43.34L78.14 43.44L78.05 43.36Q77.93 43.69 77.81 44.03L77.95 44.16L77.84 44.06Q82.77 42.06 88.25 42.25L88.19 42.18L88.27 42.26Q93.87 42.35 98.44 44.71L98.41 44.68L97.56 42.69L97.42 42.55Q96.82 41.27 96.56 40.47L96.62 40.53L96.54 40.45Q95.85 40.06 94.63 39.64L94.67 39.68L94.74 39.75Q94.49 38.93 94.11 37.56L94.10 37.55L94.04 37.49Q91.96 37.05 89.68 36.86L89.64 36.82L89.54 36.73Q94.31 32.24 95.83 23.98L95.73 23.88L95.96 21.03L96.06 21.13Q95.86 19.21 94.64 18.53L94.75 18.63L94.77 18.69L94.73 18.66Q94.64 18.52 94.56 18.52L94.64 18.60L94.55 18.51Q94.40 17.75 93.30 17.15Z"/><path fill="#222" d="M65.02 30.36L64.95 30.29L64.97 30.31Q65.16 30.01 65.13 29.59L65.06 29.53L65.02 29.48Q65.04 29.20 64.73 29.01L64.74 29.02L64.71 28.99Q63.92 28.35 63.04 28.50L63.11 28.57L63.04 28.49Q61.97 28.50 60.34 29.60L60.34 29.60L60.32 29.58Q59.07 30.66 59.07 31.84L58.93 31.70L58.88 31.65Q59.06 33.08 59.06 36.40L59.00 36.34L58.96 36.29Q59.02 38.94 59.17 40.96L59.00 40.79L59.07 40.86Q57.40 40.90 57.40 40.90L57.35 40.85L57.34 40.84Q56.31 40.76 55.59 40.84L55.62 40.87L55.57 40.83Q56.01 38.33 56.09 36.09L56.19 36.19L56.07 36.07Q56.22 31.43 55.58 30.13L55.60 30.16L55.62 30.17Q55.39 29.65 54.82 29.34L54.81 29.33L54.79 29.30Q54.00 28.63 52.43 28.51L52.34 28.42L52.40 28.48Q50.33 28.20 49.79 29.79L49.95 29.95L49.79 29.79Q49.72 30.37 49.83 30.86L49.89 30.91L49.84 30.87Q50.48 33.61 50.14 36.39L50.17 36.41L50.17 36.42Q49.88 39.24 48.47 41.68L48.37 41.58L48.48 41.69Q47.47 41.86 45.38 42.28L45.38 42.28L45.25 42.15Q47.81 38.96 47.81 34.66L47.85 34.70L47.87 34.72Q47.79 28.78 43.75 24.55L43.81 24.61L43.68 24.48Q44.46 24.81 45.41 25.03L45.53 25.15L47.30 25.59L47.11 25.40Q47.77 26.21 48.65 27.88L48.58 27.82L48.48 27.72Q48.64 25.82 51.07 25.78L51.17 25.88L51.17 25.88Q51.39 25.91 52.38 25.99L52.39 25.99L52.41 26.01Q57.39 26.31 58.53 29.13L58.55 29.15L58.49 29.09Q60.19 26.40 65.21 25.87L65.11 25.77L65.14 25.80Q66.01 25.80 66.89 25.91L66.83 25.85L66.82 25.85Q69.11 26.12 68.96 27.68L68.81 27.53L68.96 27.67Q68.86 28.30 68.60 29.07L68.48 28.95L68.56 29.03Q67.05 31.94 67.28 35.48L67.39 35.59L67.30 35.50Q67.52 39.00 69.43 41.81L69.47 41.86L69.45 41.84Q67.84 41.56 66.01 41.33L65.95 41.26L65.88 41.20Q64.64 38.63 64.45 35.85L64.61 36.00L64.50 35.89Q64.43 33.16 65.08 30.42ZM65.64 41.57L65.72 41.65L65.70 41.63Q66.35 41.62 67.68 41.82L67.68 41.82L67.84 41.98Q68.28 42.61 69.42 44.02L69.39 43.98L69.44 44.03Q72.39 44.63 74.49 45.28L74.50 45.28L74.44 45.23Q69.54 41.43 69.27 34.92L69.09 34.74L69.17 34.82Q69.14 32.77 69.74 30.86L69.80 30.91L69.79 30.91Q69.81 29.83 69.81 29.10L69.99 29.28L69.80 29.09Q69.92 28.30 69.31 27.73L69.23 27.65L69.26 27.64L69.36 27.74Q69.34 27.15 69.27 26.65L69.38 26.77L69.30 26.68Q69.08 26.05 68.62 25.78L68.74 25.90L68.63 25.79Q68.10 25.45 67.22 25.41L67.20 25.39L67.21 25.40Q64.24 25.17 61.58 26.12L61.68 26.22L61.74 26.28Q59.73 26.94 58.55 28.35L58.49 28.29L58.59 28.38Q56.99 25.88 52.16 25.53L52.17 25.54L52.04 25.41Q51.41 25.44 51.00 25.44L50.95 25.39L50.99 25.43Q49.04 25.54 48.43 26.80L48.44 26.80L48.32 26.68Q48.11 26.28 47.42 25.21L47.36 25.15L47.39 25.18Q44.98 24.71 43.00 24.07L42.98 24.04L42.84 23.90Q47.55 28.35 47.55 34.63L47.64 34.72L47.51 34.59Q47.61 39.41 44.75 42.88L44.74 42.86L44.75 42.87Q45.17 42.68 45.67 42.61L45.60 42.54L46.53 42.32L46.62 42.42Q45.94 43.49 44.84 44.71L44.79 44.66L44.74 44.62Q46.47 44.40 49.59 43.79L49.62 43.82L49.59 43.79Q52.27 39.69 52.27 34.78L52.27 34.79L52.14 34.65Q52.18 33.89 52.10 33.05L52.15 33.10L52.08 33.03Q52.03 32.29 53.02 31.50L53.00 31.48L53.06 31.57L52.99 31.50Q53.72 31.17 54.90 31.06L54.78 30.93L54.85 31.01Q55.36 31.09 55.66 31.09L55.61 31.05L55.70 31.32L55.73 31.35Q56.02 34.08 55.91 36.44L55.84 36.37L55.73 36.27Q55.71 38.64 55.21 41.31L55.29 41.39L55.11 41.20Q56.25 41.31 56.25 41.31L56.19 41.25L56.18 41.24Q57.65 41.27 57.31 41.27L57.26 41.22L57.38 41.33Q57.41 41.86 57.37 42.32L57.25 42.20L57.38 42.33Q57.19 42.63 57.19 43.13L57.30 43.24L59.78 43.24L59.81 43.28Q61.09 43.30 62.34 43.37L62.24 43.27L62.28 43.31Q60.73 39.59 60.92 33.65L60.94 33.66L60.86 33.59Q61.02 32.61 62.20 31.84L62.18 31.83L62.18 31.82Q63.02 30.95 64.28 30.76L64.22 30.71L64.54 30.72L64.68 30.86Q64.16 32.70 64.16 34.68L64.10 34.63L64.15 34.67Q64.18 38.47 65.70 41.63ZM60.18 30.09L60.36 30.05L60.15 30.17L60.32 30.23Z"/><path fill="#222" d="M114.83 27.70L114.79 27.65L114.80 27.66Q112.48 27.59 111.21 29.09L111.20 29.09L111.35 29.24Q110.10 30.76 109.98 33.05L109.83 32.89L109.80 32.86Q109.75 35.59 110.58 36.54L110.65 36.60L110.66 36.62Q111.69 37.80 114.01 37.65L113.98 37.61L114.13 37.77Q118.62 37.30 119.00 34.30L119.04 34.33L118.96 34.26Q119.05 33.43 119.05 32.63L119.20 32.79L119.14 32.72Q119.14 30.75 118.00 29.22L117.89 29.11L117.92 29.15Q116.66 27.54 114.71 27.58ZM119.56 37.67L119.57 37.68L119.56 37.68Q118.25 39.98 113.87 40.21L113.85 40.19L113.85 40.19Q109.64 40.32 108.00 39.22L107.93 39.14L107.86 39.08Q106.90 38.15 106.75 36.44L106.77 36.46L106.93 36.62Q106.76 35.38 106.95 33.52L107.05 33.61L107.08 33.65Q107.56 29.34 108.78 27.51L108.63 27.35L108.67 27.39Q110.29 24.91 114.14 24.94L114.19 25.00L114.25 25.06Q116.65 24.99 118.94 27.31L118.91 27.28L119.04 27.41Q119.11 21.54 120.70 15.03L120.79 15.11L120.73 15.05Q122.66 14.66 124.53 13.82L124.54 13.84L124.51 13.80Q121.93 20.44 121.66 27.45L121.60 27.38L121.61 27.40Q121.23 34.47 123.36 41.05L123.36 41.06L123.37 41.07Q121.77 40.50 120.06 40.12L120.09 40.15L120.02 40.08Q119.69 38.76 119.54 37.66ZM122.59 43.14L122.74 43.29L122.74 43.29Q124.80 43.83 127.35 45.35L127.35 45.35L127.28 45.28Q123.54 38.19 123.39 29.90L123.42 29.92L123.42 29.92Q123.20 21.64 126.29 14.25L126.45 14.41L126.31 14.27Q125.77 14.88 124.32 15.52L124.31 15.51L124.27 15.47Q124.60 14.31 125.21 13.09L125.13 13.02L125.11 13.00Q122.88 14.23 120.44 14.80L120.26 14.62L120.44 14.80Q118.92 20.51 118.65 26.60L118.71 26.66L118.68 26.63Q116.73 24.76 114.22 24.65L114.17 24.60L114.28 24.71Q110.69 24.43 108.79 26.52L108.94 26.67L108.83 26.57Q107.10 28.91 106.68 33.59L106.65 33.56L106.79 33.70Q106.56 36.48 106.56 36.90L106.43 36.77L106.49 36.82Q106.44 38.46 107.59 39.52L107.77 39.71L107.64 39.57Q107.87 39.81 108.06 39.89L108.11 39.93L108.54 40.55L108.47 40.48Q109.58 41.97 112.55 42.23L112.52 42.21L112.51 42.20Q114.81 42.44 116.18 42.52L116.11 42.45L116.11 42.44Q120.21 42.55 121.93 41.22L122.06 41.36L121.95 41.25Q122.12 41.99 122.58 43.13ZM116.39 29.94L116.28 29.83L116.36 29.91Q117.46 29.98 118.30 30.48L118.23 30.41L118.35 30.52Q118.79 31.77 118.87 32.80L118.89 32.82L118.85 32.78Q119.06 36.91 114.03 37.25L114.07 37.29L114.03 37.24Q113.21 37.35 112.11 37.08L112.13 37.10L112.09 37.06Q111.88 36.47 111.81 35.94L111.70 35.83L111.79 35.92Q111.79 35.31 111.82 34.70L111.86 34.74L111.86 34.73Q112.01 31.16 114.64 30.17L114.78 30.30L114.81 30.34Q115.76 29.95 116.44 29.99Z"/></svg>