<svg xmlns="http://www.w3.org/2000/svg" width="150" height="50"><path d="M8 17 C87 23,84 17,144 46" stroke="#999" fill="none"/><path d="M17 10 C86 6,81 33,129 6" stroke="#111" fill="none"/><path d="M2 31 C60 9,76 44,135 11" stroke="#222" fill="none"/><path d="M5 48 C94 44,75 8,136 10" stroke="#777" fill="none"/><path fill="#222" d="M26.76 29.26L26.69 29.19L26.73 29.23Q24.76 29.12 23.54 30.46L23.51 30.43L23.61 30.53Q22.39 31.86 22.24 33.76L22.16 33.69L22.31 33.83Q22.01 35.85 23.23 36.86L23.25 36.88L23.31 36.95Q24.46 37.89 26.59 37.81L26.55 37.77L26.56 37.78Q28.97 37.71 29.92 36.76L29.88 36.72L29.96 36.79Q31.01 35.37 30.89 33.55L30.81 33.46L30.85 33.50Q30.73 31.63 29.64 30.43L29.65 30.44L29.63 30.42Q28.57 29.24 26.74 29.24ZM26.66 19.75L26.75 19.85L26.66 19.76Q25.30 19.69 23.96 20.18L23.91 20.13L23.83 20.05Q22.61 20.92 22.84 22.79L22.92 22.87L22.91 22.86Q23.38 26.56 26.73 26.56L26.61 26.44L26.68 26.51Q28.29 26.75 29.28 25.61L29.32 25.66L29.29 25.62Q30.29 24.49 30.33 22.93L30.29 22.89L30.19 22.79Q30.42 21.20 29.70 20.59L29.61 20.49L29.59 20.48Q28.01 19.74 26.72 19.81ZM26.38 40.30L26.41 40.33L23.28 40.25L23.33 40.30Q21.72 40.20 20.38 39.33L20.46 39.41L20.39 39.33Q19.01 38.19 19.17 35.33L19.36 35.53L19.31 35.48Q19.74 28.60 23.36 27.61L23.25 27.50L23.32 27.57Q21.03 26.65 19.70 21.29L19.73 21.31L19.63 21.21Q19.36 19.88 19.44 19.08L19.37 19.01L19.51 19.16Q19.69 16.89 23.38 16.86L23.51 16.99L23.49 16.97Q27.71 16.89 29.16 17.08L29.21 17.13L29.22 17.14Q32.93 17.54 33.39 19.55L33.43 19.60L33.40 19.57Q33.60 20.26 33.60 20.64L33.61 20.65L33.52 20.56Q33.60 21.33 33.41 21.94L33.29 21.82L33.29 21.82Q32.80 26.16 29.87 27.69L29.80 27.62L29.73 27.55Q33.28 28.39 33.77 33.68L33.82 33.74L33.83 33.74Q33.78 33.85 33.82 35.14L33.86 35.18L33.83 35.15Q33.85 37.83 32.25 38.90L32.25 38.90L32.32 38.97Q30.86 39.75 26.29 40.21ZM28.59 42.55L28.69 42.65L32.07 42.76L32.06 42.75Q33.76 42.81 35.29 42.09L35.33 42.14L35.22 42.02Q36.35 41.28 36.42 39.42L36.52 39.51L36.52 39.52Q36.56 38.42 36.18 36.47L36.10 36.39L36.20 36.49Q35.12 31.68 33.02 29.81L33.06 29.85L32.90 29.50L32.67 29.19L32.55 28.96L32.65 29.06Q34.15 27.55 35.06 23.40L35.19 23.53L35.20 23.54Q35.16 23.11 35.23 22.28L35.26 22.30L35.12 22.17Q35.33 21.61 35.26 21.00L35.26 21.01L35.17 20.92Q35.07 19.52 33.89 19.03L33.84 18.98L33.90 19.00L33.76 18.93L33.66 18.83Q33.43 18.15 32.25 17.35L32.31 17.41L32.27 17.34L32.32 17.38Q30.39 16.75 26.32 16.56L26.34 16.58L26.34 16.59Q24.69 16.37 23.31 16.49L23.41 16.59L23.34 16.52Q22.54 16.55 21.25 16.70L21.29 16.74L21.23 16.69Q19.32 17.10 19.09 18.73L19.13 18.78L19.01 18.66Q19.11 19.29 19.15 20.09L19.00 19.94L19.02 19.95Q19.22 20.57 19.79 22.93L19.84 22.99L19.83 22.98Q20.58 26.16 22.33 27.50L22.32 27.49L22.40 27.56L22.43 27.60Q19.64 28.88 19.11 34.06L19.05 34.00L19.08 34.03Q18.94 36.29 18.94 37.20L18.96 37.22L18.89 37.15Q18.90 38.87 20.08 39.78L20.24 39.95L20.05 39.76Q20.35 40.02 20.61 40.21L20.52 40.11L20.44 40.04Q21.60 42.45 28.72 42.68ZM28.36 31.58L28.32 31.54L28.23 31.45Q29.30 31.54 30.18 31.99L30.09 31.91L30.15 31.96Q30.50 32.93 30.46 33.46L30.49 33.48L30.50 33.50Q30.41 33.67 30.41 33.97L30.48 34.05L30.53 34.09Q30.53 36.45 28.24 37.29L28.17 37.22L28.25 37.29Q27.48 37.64 26.68 37.52L26.54 37.38L26.53 37.37Q25.42 37.47 24.28 37.02L24.32 37.07L24.35 37.09Q24.09 36.45 24.17 35.46L24.10 35.39L24.19 35.49Q24.28 33.83 25.48 32.61L25.53 32.65L25.57 32.70Q26.63 31.34 28.23 31.46ZM28.58 22.09L28.64 22.16L28.48 22.00Q29.39 21.99 29.92 22.14L29.95 22.18L29.89 22.91L29.82 22.84Q29.80 24.23 28.88 25.24L29.00 25.35L29.07 25.42Q28.04 26.32 26.67 26.13L26.68 26.13L26.77 26.22Q25.66 26.11 25.24 25.88L25.36 25.99L25.34 25.98Q25.18 25.59 25.07 24.90L25.11 24.94L25.21 25.04Q24.79 23.48 26.01 22.65L26.07 22.71L26.03 22.66Q27.13 22.01 28.54 22.05Z"/><path fill="#333" d="M59.50 39.90L59.51 39.91L57.52 39.86L57.52 39.86Q56.53 39.83 55.58 39.94L55.65 40.01L55.56 39.92Q56.20 33.79 56.20 29.79L56.18 29.76L56.26 29.85Q52.17 23.05 44.52 14.37L44.50 14.36L44.48 14.34Q46.38 15.43 49.73 16.23L49.61 16.12L49.61 16.12Q54.68 21.72 57.69 26.93L57.85 27.09L57.83 27.07Q60.83 21.51 65.21 16.48L65.21 16.49L65.22 16.50Q67.65 16.11 70.16 15.31L69.99 15.14L70.12 15.27Q64.03 21.32 59.15 29.73L59.14 29.72L59.14 29.72Q59.20 36.82 59.50 39.90ZM68.53 17.25L71.25 14.42L71.25 14.42Q68.14 15.58 65.02 16.03L65.05 16.06L64.99 16.00Q60.76 20.71 57.94 25.81L58.08 25.95L57.96 25.84Q55.79 22.15 52.60 18.26L52.66 18.33L52.71 18.38Q52.34 18.27 51.84 18.20L51.92 18.27L51.92 18.27Q51.32 17.56 49.80 15.89L49.73 15.81L49.71 15.79Q46.40 15.12 43.44 13.56L43.28 13.40L43.33 13.45Q51.04 21.92 55.80 29.84L55.89 29.93L55.89 29.93Q55.66 36.14 55.05 40.29L55.03 40.26L55.10 40.34Q55.90 40.37 57.35 40.26L57.24 40.15L57.29 41.23L57.41 41.35Q57.34 41.74 57.26 42.27L57.33 42.34L57.18 42.19Q60.71 42.17 62.46 42.36L62.47 42.37L62.59 42.50Q61.25 37.73 61.14 31.75L61.16 31.78L61.07 31.68Q65.51 23.30 72.06 15.95L71.99 15.88L68.52 17.25Z"/><path fill="#222" d="M91.60 40.89L91.68 40.97L91.74 41.04Q90.24 39.15 88.94 36.07L89.01 36.13L86.84 30.96L86.94 31.06Q85.37 35.08 84.76 36.38L84.81 36.42L84.75 36.37Q83.35 39.34 81.75 41.25L81.65 41.14L81.67 41.17Q81.30 41.18 80.54 41.30L80.61 41.36L80.59 41.35Q80.49 33.83 74.67 27.89L74.74 27.96L74.67 27.89Q72.96 26.10 70.94 24.61L70.87 24.54L70.90 24.58Q72.77 25.15 74.63 25.45L74.76 25.58L74.63 25.45Q80.63 30.35 82.08 36.59L82.19 36.70L82.25 36.76Q83.06 34.83 84.24 31.63L84.26 31.66L84.19 31.59Q85.68 27.97 86.25 26.68L86.27 26.69L87.50 26.51L87.53 26.54Q88.53 28.38 89.71 31.65L89.55 31.50L89.63 31.58Q90.86 35.13 91.51 36.54L91.52 36.56L91.52 36.55Q93.45 30.37 98.93 25.80L98.88 25.75L98.89 25.77Q100.04 25.62 102.78 25.05L102.90 25.16L102.86 25.13Q94.08 31.01 92.90 40.98L92.98 41.06L92.34 40.95L92.43 41.04Q91.96 40.87 91.61 40.91ZM94.57 43.34L96.79 43.69L96.67 43.57Q96.38 42.06 96.38 40.54L96.38 40.53L96.37 40.52Q96.37 37.29 97.78 34.05L97.86 34.14L97.72 33.99Q99.71 29.48 103.82 26.40L103.91 26.48L103.91 26.49Q102.68 26.73 100.81 27.07L100.75 27.01L100.88 27.14Q102.86 25.51 104.15 24.59L104.09 24.53L101.55 24.96L101.48 24.89Q100.29 25.14 98.95 25.29L98.90 25.24L99.05 25.39Q93.88 29.62 91.94 34.65L91.84 34.55L91.95 34.66Q91.20 32.39 89.83 28.13L89.92 28.21L89.83 28.12Q89.46 28.10 89.20 28.10L89.30 28.20L88.70 28.13L88.71 28.14Q88.74 27.99 87.94 26.23L87.80 26.09L85.85 26.20L85.71 26.06Q84.83 28.95 82.74 34.58L82.78 34.62L82.80 34.65Q81.42 30.91 78.34 27.64L78.26 27.56L78.38 27.67Q78.15 27.71 77.85 27.68L77.77 27.59L77.11 27.40L77.13 27.41Q76.39 26.71 74.60 25.11L74.56 25.07L74.66 25.17Q71.38 24.40 69.70 23.91L69.77 23.98L69.78 23.98Q80.41 31.34 80.03 41.66L80.13 41.76L80.08 41.71Q80.33 41.77 80.69 41.73L80.69 41.73L80.56 41.60Q81.00 41.64 81.19 41.64L81.22 41.67L81.16 41.61Q81.16 41.46 81.35 43.55L81.44 43.64L83.26 43.37L83.25 43.36Q85.89 40.59 88.14 34.84L88.16 34.87L88.16 34.87Q89.61 38.68 91.48 41.34L91.59 41.45L91.47 41.34Q91.80 41.32 92.06 41.34L92.01 41.29L92.13 41.41Q92.43 41.46 92.69 41.46L92.61 41.37L94.58 43.34Z"/><path fill="#111" d="M124.87 41.58L124.92 41.62L124.78 41.49Q122.78 41.20 120.61 41.05L120.46 40.90L120.61 41.04Q119.06 39.49 116.39 35.65L116.48 35.74L116.38 35.64Q114.35 38.90 111.95 41.33L111.94 41.32L109.79 41.65L109.76 41.62Q108.69 41.81 107.70 42.08L107.73 42.10L107.70 42.07Q111.89 37.96 114.90 33.85L114.87 33.82L114.89 33.84Q111.63 29.67 106.23 24.87L106.16 24.81L106.24 24.89Q108.42 25.59 111.13 26.01L111.17 26.05L111.15 26.03Q114.52 29.06 116.42 31.76L116.58 31.91L116.53 31.86Q118.71 28.87 121.46 26.36L121.48 26.39L121.34 26.25Q124.42 25.94 126.25 25.44L126.32 25.51L126.20 25.39Q121.74 29.12 118.04 33.68L118.13 33.78L118.02 33.66Q121.41 38.34 124.87 41.58ZM127.64 24.63L127.79 24.78L127.61 24.60Q124.76 25.48 121.22 25.82L121.18 25.79L121.21 25.81Q118.39 28.55 116.67 31.02L116.62 30.96L116.64 30.99Q115.72 29.92 114.09 27.94L114.22 28.08L113.93 27.97L114.01 28.05Q113.80 27.96 113.68 27.96L113.67 27.94L113.62 27.90Q112.95 27.15 111.31 25.70L111.36 25.75L111.37 25.76Q107.75 25.18 104.89 23.96L104.93 24.00L104.78 23.85Q110.41 28.75 114.45 33.89L114.33 33.78L114.39 33.83Q111.06 38.51 106.65 42.81L106.73 42.90L106.75 42.91Q106.80 42.61 110.30 41.78L110.42 41.90L110.43 41.91Q108.79 43.12 107.15 44.46L107.18 44.48L107.28 44.58Q110.51 43.71 113.67 43.52L113.50 43.35L113.61 43.45Q115.99 41.19 117.90 38.45L117.90 38.45L117.86 38.41Q119.23 40.13 120.45 41.31L120.45 41.30L120.47 41.32Q120.63 41.37 120.70 41.45L120.73 41.47L120.96 41.51L120.82 41.38Q122.07 42.47 123.40 43.54L123.48 43.61L123.45 43.58Q127.04 44.12 129.93 45.15L129.92 45.14L130.05 45.27Q123.84 40.78 120.15 35.60L120.07 35.52L120.10 35.56Q123.74 30.51 128.31 26.44L128.29 26.42L128.30 26.43Q127.36 26.78 126.37 27.01L126.40 27.04L124.30 27.42L124.30 27.41Q125.48 26.51 127.65 24.64Z"/></svg>