<svg height="50" width="150" xmlns="http://www.w3.org/2000/svg">

	<path d="M26.39 40.19L26.50 40.31L26.41 40.22Q22.99 40.38 21.35 39.84L21.32 39.81L21.33 39.82Q19.30 39.12 19.00 35.74L19.02 35.76L20.52 34.74L20.43 34.66Q21.19 34.16 21.95 33.67L21.91 33.62L21.92 33.63Q21.68 35.56 23.28 36.78L23.38 36.88L23.35 36.85Q24.52 37.76 26.65 37.57L26.65 37.56L26.78 37.69Q31.18 37.29 30.99 33.75L30.85 33.62L30.83 33.60Q30.84 31.51 28.21 30.30L28.07 30.16L28.07 30.15Q25.33 29.20 22.97 27.98L22.88 27.89L23.00 28.01Q20.35 26.58 19.36 21.90L19.29 21.83L19.31 21.85Q19.36 21.55 19.24 20.79L19.16 20.71L19.06 20.61Q18.99 19.85 19.07 19.28L19.23 19.45L19.25 19.46Q19.36 17.83 20.62 17.37L20.62 17.37L20.53 17.28Q23.05 16.52 27.04 16.72L26.93 16.60L26.95 16.62Q28.86 16.81 29.66 16.89L29.67 16.90L29.54 16.77Q31.10 17.04 32.16 17.49L32.05 17.38L32.20 17.53Q34.29 17.98 34.51 20.45L34.46 20.40L34.42 20.36Q33.47 21.16 31.26 22.49L31.29 22.53L31.18 22.42Q30.80 19.44 26.42 19.44L26.32 19.34L26.33 19.35Q24.59 19.52 23.60 20.20L23.52 20.12L23.57 20.17Q22.41 20.68 22.64 22.47L22.53 22.37L22.62 22.46Q22.89 24.67 25.86 26.19L25.75 26.08L25.79 26.12Q26.28 26.31 30.77 27.94L30.82 27.99L30.88 28.05Q33.41 29.44 33.83 33.82L33.85 33.83L33.86 33.85Q33.85 33.99 33.92 35.24L34.01 35.33L33.95 35.27Q33.96 37.98 32.40 39.08L32.41 39.10L32.46 39.14Q30.56 40.07 26.37 40.18ZM28.84 42.72L28.81 42.69L28.81 42.69Q30.17 42.68 32.15 42.68L32.19 42.72L32.20 42.74Q34.30 42.74 35.56 42.32L35.59 42.35L35.58 42.35Q36.64 41.35 36.56 39.56L36.59 39.59L36.61 39.61Q36.66 38.70 36.28 36.65L36.17 36.54L36.19 36.55Q35.35 31.95 33.26 30.09L33.32 30.15L33.16 29.99Q32.54 28.56 31.20 27.84L31.24 27.87L25.90 25.77L25.75 25.62Q25.60 25.63 25.15 25.40L24.97 25.22L24.90 24.89L24.98 24.63L24.85 24.49Q24.82 23.20 25.96 22.60L25.92 22.56L25.97 22.60Q26.71 22.02 28.43 21.83L28.40 21.80L28.37 21.77Q29.56 21.70 30.70 22.16L30.70 22.16L30.60 22.06Q30.67 22.16 30.86 23.00L30.89 23.04L30.96 23.11Q31.18 22.99 31.68 22.76L31.52 22.60L31.53 22.61Q32.31 23.58 32.43 24.72L32.44 24.74L32.38 24.68Q32.55 24.73 36.21 22.14L36.19 22.13L36.26 22.20Q35.85 19.43 34.40 18.74L34.44 18.78L34.38 18.72Q33.90 17.56 32.46 17.03L32.47 17.04L32.51 17.08Q30.18 16.23 26.98 16.23L26.92 16.18L27.03 16.28Q22.04 16.20 20.18 16.89L20.24 16.95L20.21 16.93Q18.86 17.36 18.74 19.04L18.76 19.05L18.81 19.10Q18.66 19.52 19.08 21.73L19.18 21.84L19.15 21.80Q19.82 25.56 21.99 27.81L21.94 27.75L22.02 27.84Q22.74 29.46 24.24 30.15L24.35 30.25L24.35 30.26Q25.78 30.87 29.70 32.43L29.64 32.37L29.67 32.44L30.44 32.90L30.34 32.84L30.38 32.88Q30.60 33.37 30.64 33.71L30.49 33.56L30.55 33.62Q30.65 37.11 26.73 37.26L26.73 37.26L26.79 37.33Q25.53 37.24 24.23 36.86L24.27 36.89L24.19 36.81Q23.92 36.05 23.92 35.33L24.00 35.41L23.90 35.31Q23.89 35.03 23.93 34.77L23.99 34.83L23.94 34.77Q23.63 35.11 22.83 35.61L22.71 35.49L22.72 35.50Q22.33 34.50 22.48 33.13L22.46 33.11L22.41 33.06Q20.28 34.20 18.68 35.61L18.67 35.60L18.65 35.58Q18.77 36.46 18.85 37.49L18.85 37.49L18.87 37.51Q19.28 39.33 20.58 40.09L20.48 39.99L20.49 40.01Q21.67 41.80 24.22 42.18L24.30 42.26L24.26 42.21Q25.79 42.42 28.72 42.61Z" fill="#333"/>
	<path d="M55.56 27.62L55.47 27.53L55.55 27.62Q53.33 27.64 52.05 29.14L52.01 29.09L52.06 29.15Q50.90 30.77 50.78 33.05L50.67 32.94L50.59 32.86Q50.64 35.69 51.48 36.64L51.42 36.58L51.45 36.61Q52.53 37.84 54.85 37.69L54.85 37.69L54.78 37.61Q59.35 37.24 59.73 34.23L59.83 34.33L59.89 34.39Q60.01 33.60 60.01 32.80L59.89 32.68L59.88 32.67Q59.92 30.73 58.78 29.21L58.79 29.22L58.85 29.27Q57.50 27.58 55.56 27.62ZM60.46 37.78L60.31 37.62L60.44 37.76Q58.86 39.79 54.48 40.02L54.65 40.19L54.65 40.19Q50.37 40.25 48.73 39.15L48.68 39.09L48.77 39.18Q47.77 38.22 47.62 36.51L47.57 36.46L47.66 36.55Q47.62 35.45 47.81 33.58L47.82 33.59L47.89 33.65Q48.25 29.22 49.47 27.39L49.56 27.48L49.46 27.38Q51.17 24.99 55.02 25.02L54.94 24.94L54.98 24.99Q57.44 24.97 59.72 27.29L59.78 27.35L59.80 27.37Q59.96 21.59 61.56 15.08L61.55 15.08L61.43 14.95Q63.49 14.69 65.35 13.85L65.30 13.80L65.29 13.79Q62.56 20.27 62.29 27.27L62.44 27.42L62.39 27.37Q62.15 34.59 64.28 41.18L64.28 41.18L64.18 41.08Q62.70 40.63 60.99 40.25L60.99 40.25L60.96 40.22Q60.59 38.86 60.44 37.76ZM63.47 43.23L63.41 43.17L63.49 43.24Q65.62 43.85 68.17 45.37L68.11 45.31L68.11 45.31Q64.37 38.22 64.21 29.92L64.30 30.01L64.15 29.85Q64.18 21.82 67.27 14.43L67.10 14.27L67.27 14.43Q66.51 14.81 65.06 15.46L65.00 15.40L65.04 15.44Q65.42 14.34 66.03 13.12L65.92 13.01L66.09 13.18Q63.62 14.17 61.18 14.74L61.20 14.76L61.19 14.75Q59.74 20.53 59.47 26.62L59.43 26.58L59.39 26.54Q57.48 24.71 54.97 24.60L55.01 24.63L54.93 24.56Q51.52 24.46 49.62 26.56L49.61 26.54L49.66 26.59Q47.89 28.90 47.48 33.59L47.52 33.63L47.61 33.72Q47.18 36.30 47.18 36.72L47.36 36.90L47.20 36.73Q47.33 38.54 48.47 39.60L48.43 39.56L48.58 39.71Q48.67 39.81 48.87 39.89L48.88 39.90L49.33 40.54L49.29 40.50Q50.35 41.94 53.32 42.21L53.24 42.13L53.28 42.17Q55.51 42.34 56.88 42.42L56.88 42.42L56.83 42.37Q61.03 42.57 62.74 41.24L62.77 41.27L62.78 41.28Q62.91 41.98 63.37 43.12ZM57.11 29.86L57.26 30.01L57.22 29.97Q58.21 29.93 59.05 30.43L58.99 30.36L59.13 30.50Q59.59 31.76 59.66 32.79L59.61 32.74L59.65 32.78Q59.95 37.00 54.92 37.34L54.83 37.25L54.85 37.27Q54.06 37.39 52.96 37.13L52.87 37.03L52.92 37.09Q52.74 36.52 52.66 35.99L52.63 35.96L52.61 35.94Q52.64 35.36 52.68 34.75L52.54 34.62L52.68 34.75Q52.88 31.23 55.51 30.24L55.51 30.23L55.58 30.31Q56.41 29.81 57.10 29.85Z" fill="#333"/>
	<path d="M115.72 41.24L115.54 41.06L113.81 41.05L113.82 41.05Q110.55 41.17 109.60 39.04L109.64 39.08L109.48 38.92Q110.71 37.94 112.16 36.84L112.16 36.85L112.26 36.94Q112.76 39.04 115.61 38.89L115.65 38.93L115.67 38.95Q116.50 38.94 117.53 38.71L117.50 38.68L117.46 38.64Q118.40 38.14 118.33 37.18L118.21 37.07L118.31 37.17Q118.22 36.05 116.43 35.36L116.41 35.35L112.55 33.77L112.68 33.90Q110.37 32.57 110.02 29.03L109.97 28.98L110.03 29.04Q109.67 26.74 111.84 26.17L111.92 26.24L111.97 26.30Q112.89 26.04 115.86 26.04L115.91 26.09L115.79 25.97Q120.63 25.93 121.54 28.44L121.63 28.53L121.63 28.53Q121.07 29.16 120.35 29.62L120.19 29.45L118.85 30.47L118.90 30.53Q118.44 28.65 115.20 28.43L115.19 28.42L115.17 28.40Q114.46 28.30 113.44 28.72L113.45 28.73L113.57 28.85Q113.03 29.23 113.03 30.33L112.99 30.28L112.89 30.19Q113.35 31.37 115.18 32.06L115.13 32.01L115.15 32.02Q116.15 32.34 118.81 33.45L118.93 33.56L118.83 33.47Q120.60 34.24 120.79 36.80L120.80 36.81L120.83 36.83Q121.04 37.61 120.96 38.60L120.82 38.46L120.91 38.55Q120.88 39.43 120.31 40.08L120.30 40.08L120.35 40.12Q118.63 41.11 115.59 41.11ZM120.44 43.79L120.30 43.65L120.41 43.76Q121.27 43.75 122.64 43.44L122.70 43.50L122.60 43.40Q123.77 42.81 123.58 41.60L123.57 41.59L123.63 41.65Q123.56 41.09 123.26 39.49L123.24 39.47L123.14 39.38Q122.54 36.38 120.75 35.16L120.81 35.22L120.90 35.31Q120.32 33.85 119.06 33.12L119.08 33.14L119.00 33.07Q117.75 32.65 115.27 31.69L115.35 31.78L115.26 31.68Q115.42 31.23 115.69 31.12L115.71 31.14L115.76 31.20Q116.29 30.66 116.94 30.62L116.95 30.63L117.02 30.70Q117.85 30.69 118.61 30.96L118.62 30.96L118.67 31.10L118.66 30.97L119.03 31.15L118.89 31.05L118.85 31.01Q119.99 31.54 120.18 32.79L120.10 32.71L120.29 32.90Q121.44 31.96 123.34 30.28L123.37 30.31L123.26 30.20Q123.05 29.54 122.06 28.36L122.14 28.44L122.05 28.34Q120.94 25.67 115.84 25.56L115.85 25.57L115.82 25.54Q112.63 25.48 110.66 26.05L110.65 26.04L110.76 26.16Q109.26 26.63 109.49 28.72L109.51 28.75L109.58 28.82Q109.63 30.01 110.55 32.11L110.49 32.06L110.56 32.13Q111.15 33.28 112.18 34.01L112.08 33.90L112.05 33.88Q112.77 35.39 114.06 36.08L114.02 36.04L114.14 36.16Q115.11 36.45 116.07 36.83L116.08 36.84L117.94 37.56L117.93 37.55Q117.61 38.67 115.66 38.56L115.56 38.45L115.55 38.44Q115.12 38.51 113.90 38.21L113.95 38.25L113.87 38.02L113.85 38.23L113.92 38.30Q113.05 37.92 112.40 36.44L112.31 36.35L112.23 36.27Q110.08 37.81 108.98 38.95L109.02 38.99L109.13 39.10Q109.30 39.88 110.33 40.68L110.43 40.79L110.16 40.82L110.18 40.84Q111.60 42.94 115.83 43.33L115.85 43.35L115.96 43.46Q117.16 43.52 120.40 43.75Z" fill="#333"/>
	<path d="M90.03 30.84L90.18 30.98L90.14 30.95Q89.91 29.62 87.97 28.89L87.95 28.87L88.12 29.05Q87.58 28.80 87.04 28.80L87.02 28.77L86.96 28.72Q85.63 28.76 84.56 29.33L84.48 29.25L84.64 29.41Q83.12 29.98 83.23 31.19L83.29 31.25L83.37 31.33Q83.61 34.05 83.46 36.30L83.47 36.30L83.58 36.42Q83.37 38.80 82.65 41.31L82.60 41.26L82.62 41.28Q80.51 41.80 79.33 42.22L79.32 42.21L79.31 42.20Q80.93 38.61 80.93 34.61L80.91 34.59L80.83 34.51Q80.90 29.13 78.31 24.67L78.26 24.63L78.24 24.60Q79.54 25.18 81.94 25.90L81.97 25.94L81.98 25.95Q82.27 26.65 82.65 28.17L82.64 28.17L82.66 28.19Q83.99 26.09 87.88 26.17L87.78 26.07L87.82 26.12Q89.33 26.18 90.13 26.30L90.23 26.39L90.20 26.36Q93.02 26.59 93.09 28.61L93.15 28.67L93.13 28.65Q93.25 29.64 93.06 30.67L93.12 30.73L93.00 30.61Q92.60 33.18 92.79 36.19L92.69 36.09L92.79 36.19Q92.97 39.06 93.96 41.62L93.91 41.57L93.80 41.46Q92.19 41.15 90.48 41.00L90.50 41.01L90.40 40.91Q90.09 38.70 90.01 36.04L90.02 36.05L89.85 35.87Q89.77 33.13 90.00 30.80ZM90.11 41.35L90.11 41.35L90.05 41.29Q90.94 41.38 92.24 41.61L92.14 41.51L92.50 42.56L92.50 42.56Q92.79 43.16 93.02 43.69L92.94 43.61L93.02 43.68Q95.36 44.16 98.06 45.34L97.93 45.20L97.94 45.22Q95.52 42.04 94.83 38.23L94.83 38.23L94.87 38.27Q94.50 36.11 94.62 32.42L94.65 32.45L94.62 32.42Q94.61 32.10 94.65 31.31L94.75 31.40L94.70 31.36Q94.89 30.87 94.82 30.37L94.68 30.23L94.74 30.30Q94.71 28.70 93.61 28.21L93.48 28.08L93.53 28.13Q93.41 27.32 92.64 26.71L92.53 26.60L92.51 26.58Q90.80 25.56 87.76 25.63L87.75 25.62L87.87 25.74Q86.05 25.83 85.21 26.02L85.18 25.99L85.13 25.94Q83.60 26.20 82.65 27.11L82.65 27.11L82.72 27.18Q82.73 26.77 82.35 25.75L82.22 25.62L82.27 25.67Q79.52 25.05 77.69 24.06L77.69 24.05L77.66 24.03Q80.59 28.78 80.59 34.53L80.65 34.59L80.57 34.51Q80.63 38.95 78.72 42.79L78.73 42.80L78.72 42.79Q79.43 42.51 80.72 42.12L80.76 42.16L80.71 42.11Q80.18 43.33 79.64 44.32L79.61 44.29L79.68 44.36Q81.10 43.91 84.64 43.34L84.65 43.35L84.66 43.36Q85.59 38.16 85.48 33.33L85.60 33.45L85.57 33.42Q85.46 32.51 86.64 31.79L86.65 31.80L86.74 31.89Q87.70 31.17 88.80 31.05L88.89 31.14L88.87 31.12Q89.31 31.07 89.73 31.26L89.59 31.12L89.65 31.18Q89.50 33.73 89.54 36.29L89.61 36.35L89.53 36.27Q89.61 38.82 90.10 41.34Z" fill="#444"/>
</svg>