<svg xmlns="http://www.w3.org/2000/svg" width="150" height="50"><path d="M6 21 C84 42,63 28,145 16" stroke="#444" fill="none"/><path d="M14 10 C62 1,90 47,145 38" stroke="#888" fill="none"/><path d="M12 48 C75 2,69 9,135 36" stroke="#666" fill="none"/><path fill="#111" d="M25.85 28.59L25.94 28.69L25.83 28.58Q23.12 28.68 22.36 30.93L22.28 30.85L22.31 30.88Q21.99 31.51 21.87 32.16L22.04 32.32L21.91 32.20Q24.48 32.37 26.12 32.37L26.25 32.50L26.17 32.42Q27.83 32.45 30.42 32.33L30.41 32.32L30.43 32.34Q30.26 30.57 28.85 29.50L28.96 29.62L28.91 29.57Q27.64 28.60 25.85 28.60ZM25.85 41.09L25.87 41.11L25.96 41.19Q21.68 41.14 20.38 39.73L20.33 39.68L20.44 39.79Q19.45 38.30 19.30 35.03L19.33 35.06L19.38 35.11Q19.31 34.81 19.24 33.44L19.30 33.51L19.29 33.50Q19.10 31.14 19.10 30.42L19.19 30.50L19.15 30.47Q19.03 28.47 19.75 27.37L19.90 27.52L19.82 27.44Q21.21 26.01 24.18 26.01L24.16 25.99L25.66 25.94L25.71 25.98Q27.77 25.98 29.29 26.29L29.27 26.27L29.26 26.25Q31.47 26.87 32.46 28.09L32.32 27.95L32.41 28.04Q32.99 29.07 33.06 31.17L33.07 31.17L33.15 31.25Q32.99 32.24 33.03 34.41L33.02 34.40L33.05 34.43Q30.15 34.42 27.37 34.42L27.38 34.42L21.85 34.49L21.81 34.45Q22.02 38.93 26.09 38.70L26.19 38.80L26.05 38.66Q29.81 38.46 31.03 36.63L31.03 36.63L31.09 36.69Q31.90 37.16 33.50 38.34L33.63 38.47L33.56 38.40Q32.27 40.88 28.12 41.15L27.99 41.02L28.11 41.13Q27.31 41.10 25.94 41.18ZM28.36 43.63L28.30 43.57L28.30 43.57Q29.32 43.45 30.54 43.53L30.62 43.60L30.50 43.48Q35.48 43.67 36.40 40.90L36.52 41.02L36.52 41.02Q34.86 39.74 33.75 38.98L33.65 38.87L33.71 38.93Q33.99 38.64 34.18 38.41L34.15 38.38L34.09 38.32Q33.43 37.93 32.06 36.98L31.95 36.87L31.99 36.90Q32.99 36.88 35.05 37.18L35.07 37.21L35.22 37.35Q34.95 35.91 34.88 35.23L34.88 35.22L34.83 33.39L34.82 33.38Q34.50 30.85 33.85 29.36L33.93 29.45L33.87 29.38Q33.59 29.03 33.02 28.42L33.10 28.50L33.19 28.59Q33.04 28.28 32.81 27.71L32.72 27.63L32.81 27.72Q30.80 25.55 25.74 25.55L25.78 25.60L24.02 25.51L24.09 25.58Q20.75 25.48 19.30 26.96L19.39 27.05L19.37 27.03Q18.69 28.14 18.73 30.20L18.72 30.19L18.81 30.27Q18.76 31.13 18.87 33.38L18.95 33.46L18.93 33.44Q19.08 35.12 19.20 37.17L19.17 37.15L19.21 37.18Q19.39 39.35 20.27 40.41L20.31 40.46L20.27 40.41Q20.52 40.66 20.71 40.77L20.61 40.68L20.98 41.39L20.92 41.33Q21.66 43.14 28.24 43.52ZM26.05 38.24L26.06 38.25L26.23 38.42Q24.98 38.43 24.07 37.97L23.97 37.87L23.96 37.86Q24.00 37.56 23.81 36.87L23.80 36.86L23.89 36.96Q25.58 36.85 27.18 36.85L27.13 36.80L27.07 36.75Q28.85 36.85 30.52 36.96L30.46 36.90L30.52 36.96Q29.06 38.13 26.06 38.25ZM27.69 30.90L27.74 30.95L27.78 30.98Q28.52 31.11 29.85 31.49L29.78 31.43L29.98 31.82L29.96 31.99L29.84 31.87Q28.52 32.02 27.60 31.99L27.63 32.01L27.63 32.01Q25.35 31.98 25.31 31.98L25.35 32.02L25.32 31.99Q26.02 31.01 27.69 30.90Z"/><path d="M11 4 C57 11,60 30,131 22" stroke="#444" fill="none"/><path fill="#222" d="M51.54 19.18L51.61 19.25L51.47 19.11Q52.67 23.67 52.82 26.86L52.89 26.93L52.74 26.78Q53.27 26.86 57.65 26.97L57.61 26.93L57.62 26.94Q60.30 27.11 60.68 23.65L60.72 23.69L60.53 23.49Q60.92 21.94 60.00 21.02L59.88 20.90L59.91 20.93Q58.58 19.98 56.60 19.83L56.66 19.89L56.54 19.77Q53.47 19.71 51.60 19.25ZM52.86 28.73L52.89 28.76L52.88 28.75Q53.15 34.85 51.36 40.79L51.24 40.66L51.27 40.69Q50.15 41.13 47.56 42.16L47.54 42.14L47.44 42.03Q50.35 35.62 50.01 28.16L49.90 28.06L49.89 28.04Q49.75 20.86 46.44 14.35L46.31 14.22L46.41 14.32Q51.27 17.13 58.24 17.13L58.26 17.15L58.26 17.15Q63.80 17.06 64.07 20.60L64.14 20.67L64.11 20.64Q64.24 21.31 64.17 21.92L64.04 21.79L63.94 22.91L64.04 23.00Q63.19 26.91 61.06 28.63L61.14 28.71L61.02 28.59Q60.31 29.36 59.28 29.36L59.18 29.26L56.62 29.29L56.55 29.22Q62.13 36.44 66.67 41.01L66.85 41.19L66.82 41.16Q64.48 40.27 61.55 39.93L61.61 39.99L61.60 39.98Q57.75 35.94 52.84 28.71ZM61.45 40.33L61.50 40.38L61.88 40.45L62.98 41.56L63.12 41.69Q63.54 42.07 64.18 42.68L64.38 42.87L64.37 42.87Q67.81 43.37 71.38 45.24L71.42 45.27L71.31 45.16Q64.54 38.59 59.14 31.66L58.98 31.50L60.75 31.51L60.90 31.67Q63.89 31.57 65.22 27.04L65.24 27.06L65.15 26.97Q66.01 24.94 66.01 22.24L65.83 22.06L65.84 22.06Q65.83 19.77 64.12 19.13L64.28 19.29L64.28 19.29Q64.00 18.74 63.43 18.06L63.44 18.06L63.53 18.15Q61.79 16.64 58.13 16.57L58.20 16.63L58.23 16.66Q50.24 16.40 45.56 13.40L45.59 13.43L45.65 13.48Q49.28 20.20 49.63 27.89L49.76 28.02L49.68 27.95Q50.02 35.90 46.90 42.75L46.89 42.75L46.99 42.84Q48.11 42.14 48.91 41.83L48.99 41.91L48.05 44.25L48.04 44.24Q50.65 43.08 53.31 42.58L53.37 42.64L53.33 42.60Q54.69 37.56 54.88 32.35L54.78 32.25L54.79 32.26Q58.26 37.17 61.42 40.29ZM60.30 22.50L60.17 22.37L60.30 22.50Q60.36 22.79 60.36 23.13L60.28 23.06L60.23 23.58L60.26 23.60Q60.22 24.67 59.53 25.62L59.60 25.68L59.65 25.73Q59.07 26.52 58.15 26.71L58.02 26.58L58.12 26.68Q57.89 26.72 56.29 26.75L56.31 26.77L56.27 26.73Q55.68 26.75 54.84 26.64L54.89 26.69L54.77 26.56Q54.63 25.02 54.29 21.98L54.38 22.06L54.44 22.13Q55.77 22.24 56.46 22.24L56.45 22.23L56.39 22.17Q58.31 22.26 60.25 22.45Z"/><path fill="#333" d="M81.04 19.08L81.10 19.15L81.13 19.17Q82.23 23.63 82.38 26.83L82.42 26.86L82.47 26.91Q82.94 26.93 87.32 27.04L87.29 27.01L87.33 27.05Q89.85 27.06 90.23 23.60L90.32 23.68L90.27 23.64Q90.38 21.81 89.47 20.89L89.51 20.93L89.54 20.97Q88.26 20.06 86.28 19.91L86.14 19.77L86.16 19.79Q82.94 19.58 81.08 19.12ZM82.45 28.72L82.59 28.86L82.52 28.79Q82.69 34.79 80.90 40.73L80.86 40.68L80.96 40.78Q79.59 40.97 77.00 42.00L77.05 42.05L77.08 42.08Q79.95 35.63 79.61 28.17L79.66 28.21L79.50 28.06Q79.33 20.84 76.02 14.33L75.93 14.24L75.90 14.21Q80.91 17.17 87.87 17.17L87.81 17.10L87.71 17.00Q93.42 17.08 93.69 20.62L93.67 20.60L93.75 20.68Q93.80 21.26 93.72 21.87L93.72 21.87L93.55 22.92L93.64 23.01Q92.69 26.81 90.55 28.52L90.68 28.65L90.69 28.66Q89.79 29.24 88.76 29.24L88.85 29.33L86.19 29.26L86.29 29.36Q91.93 36.63 96.46 41.20L96.40 41.15L96.40 41.14Q94.18 40.37 91.24 40.03L91.22 40.00L91.25 40.03Q87.45 36.04 82.54 28.81ZM91.06 40.34L91.04 40.32L91.49 40.46L92.71 41.68L92.75 41.73Q93.32 42.26 93.97 42.87L93.90 42.80L93.81 42.71Q97.41 43.38 100.99 45.24L101.01 45.26L101.03 45.28Q94.17 38.61 88.76 31.68L88.72 31.64L90.50 31.66L90.49 31.66Q93.46 31.54 94.79 27.01L94.90 27.12L94.79 27.01Q95.46 24.79 95.46 22.09L95.44 22.07L95.55 22.18Q95.54 19.88 93.82 19.23L93.75 19.16L93.86 19.27Q93.67 18.81 93.10 18.12L93.13 18.16L93.20 18.23Q91.40 16.66 87.75 16.58L87.86 16.70L87.88 16.71Q79.95 16.51 75.27 13.51L75.25 13.49L75.32 13.56Q79.02 20.34 79.36 28.03L79.38 28.05L79.24 27.91Q79.55 35.83 76.43 42.68L76.56 42.82L76.55 42.80Q77.82 42.25 78.62 41.94L78.61 41.94L77.63 44.22L77.60 44.20Q80.24 43.07 82.91 42.58L83.04 42.71L82.98 42.65Q84.21 37.48 84.40 32.27L84.53 32.40L84.47 32.34Q87.87 37.18 91.03 40.30ZM89.92 22.52L89.92 22.52L89.86 22.47Q89.84 22.67 89.84 23.01L89.95 23.12L89.93 23.67L89.90 23.64Q89.81 24.65 89.12 25.61L89.21 25.70L89.23 25.72Q88.54 26.40 87.63 26.59L87.66 26.62L87.61 26.57Q87.37 26.59 85.77 26.63L85.87 26.74L85.79 26.65Q85.32 26.79 84.48 26.68L84.39 26.59L84.50 26.70Q84.31 25.09 83.96 22.05L83.98 22.07L83.99 22.07Q85.49 22.36 86.18 22.36L86.08 22.26L86.07 22.25Q87.88 22.23 89.82 22.42Z"/><path fill="#333" d="M126.05 22.98L126.09 23.02L126.21 23.14Q124.24 25.70 121.57 31.33L121.57 31.33L119.68 35.68L119.70 35.71Q118.86 37.64 117.53 39.89L117.47 39.83L117.48 39.84Q117.87 39.78 116.20 39.81L116.27 39.89L116.26 39.87Q116.15 39.76 114.89 39.76L114.88 39.75L114.94 39.81Q114.24 38.35 111.30 31.19L111.27 31.16L111.40 31.29Q109.07 25.76 106.98 22.75L107.03 22.81L106.98 22.76Q107.91 26.01 107.91 29.17L107.76 29.02L107.91 29.17Q107.83 35.60 104.86 41.16L104.80 41.10L104.78 41.08Q103.43 41.40 101.07 42.12L101.21 42.27L101.13 42.18Q104.88 36.56 104.88 29.33L104.76 29.22L104.83 29.29Q104.94 20.45 99.54 13.48L99.45 13.40L99.50 13.45Q101.17 14.20 103.53 14.89L103.40 14.76L103.38 14.74Q110.57 21.62 116.66 34.95L116.65 34.93L116.57 34.85Q120.07 27.85 122.27 24.34L122.27 24.34L122.38 24.45Q125.79 18.49 129.74 15.03L129.90 15.18L129.74 15.02Q131.16 14.96 133.52 14.20L133.37 14.05L133.51 14.19Q128.55 20.83 128.55 29.44L128.47 29.35L128.54 29.43Q128.37 35.92 131.79 41.44L131.88 41.52L131.81 41.46Q130.48 41.16 127.74 40.55L127.85 40.66L127.77 40.58Q125.54 35.91 125.54 29.93L125.54 29.93L125.50 29.90Q125.45 26.41 126.13 23.06ZM127.65 41.03L127.55 40.93L127.65 41.02Q128.28 41.09 129.73 41.35L129.65 41.28L129.69 41.32Q130.14 42.07 131.09 43.55L131.06 43.52L131.17 43.63Q133.24 43.99 136.70 45.20L136.66 45.16L136.67 45.18Q130.47 38.90 130.47 29.08L130.40 29.01L130.45 29.05Q130.56 21.44 134.94 15.31L134.84 15.21L132.66 15.92L132.68 15.94Q133.63 14.35 134.28 13.47L134.38 13.57L134.41 13.60Q132.53 14.23 129.90 14.76L129.79 14.65L129.85 14.71Q123.11 20.84 117.06 33.44L116.92 33.30L117.09 33.47Q111.74 22.33 106.79 17.08L106.90 17.19L106.77 17.06Q106.39 16.99 105.82 16.88L105.85 16.91L104.66 15.64L104.75 15.72Q104.09 15.00 103.41 14.39L103.40 14.37L103.39 14.37Q100.38 13.42 98.59 12.69L98.52 12.62L98.52 12.62Q104.53 19.85 104.53 29.25L104.66 29.38L104.64 29.36Q104.58 36.92 100.43 42.78L100.50 42.85L100.43 42.77Q101.14 42.57 102.43 42.15L102.33 42.05L102.45 42.17Q102.25 42.35 100.84 44.44L100.83 44.44L100.96 44.56Q102.61 43.92 106.11 43.16L106.13 43.19L106.22 43.28Q109.99 36.27 109.80 28.51L109.65 28.35L109.62 28.33Q111.15 32.33 114.62 40.21L114.70 40.29L114.65 40.25Q115.03 40.33 115.26 40.33L115.17 40.23L115.68 40.21L115.65 40.18Q116.19 40.95 116.99 42.25L116.86 42.11L117.05 42.31Q118.68 42.30 118.68 42.30L118.60 42.22L118.63 42.25Q119.64 42.23 120.29 42.31L120.14 42.16L120.22 42.24Q121.71 38.13 125.06 30.14L125.14 30.22L125.17 30.25Q124.96 35.60 127.55 40.93Z"/></svg>