<svg xmlns="http://www.w3.org/2000/svg" width="150" height="50"><path fill="#222" d="M27.96 28.88L27.88 28.80L27.87 28.79Q25.30 28.73 24.00 29.87L24.09 29.96L24.05 29.92Q22.52 31.06 22.71 33.57L22.88 33.73L22.87 33.73Q23.10 36.63 24.28 37.69L24.24 37.64L24.18 37.58Q25.81 39.02 27.90 38.87L27.82 38.79L27.77 38.74Q29.98 38.82 31.39 37.56L31.41 37.58L31.39 37.57Q32.67 36.37 32.86 33.81L32.78 33.74L32.94 33.90Q33.34 29.00 27.97 28.89ZM27.79 41.39L27.67 41.27L26.08 41.24L26.22 41.38Q23.40 41.42 21.92 40.01L21.89 39.98L21.85 39.94Q20.80 38.85 20.53 36.91L20.56 36.93L20.66 37.04Q20.46 35.89 20.31 33.68L20.29 33.66L20.25 33.62Q20.18 32.63 20.07 30.39L20.18 30.50L20.13 30.45Q19.98 28.51 20.93 27.37L20.95 27.39L20.99 27.43Q22.72 25.92 27.44 26.08L27.52 26.16L27.38 26.02Q32.27 26.15 34.10 27.67L34.13 27.71L34.19 27.76Q35.67 28.97 35.48 32.17L35.43 32.13L35.48 32.18Q35.24 35.70 35.16 36.12L35.11 36.07L35.11 36.06Q34.92 38.47 33.59 39.65L33.51 39.57L33.58 39.64Q31.46 41.25 27.66 41.25ZM32.37 43.69L32.49 43.80L32.47 43.79Q33.94 43.81 35.85 43.66L35.77 43.58L35.86 43.67Q36.30 43.54 36.30 43.39L36.34 43.43L36.23 43.32Q36.31 43.32 36.27 43.16L36.30 43.20L36.19 43.09Q36.17 42.95 36.17 42.84L36.22 42.89L36.30 42.97Q36.25 42.66 36.60 42.35L36.66 42.41L36.64 42.40Q37.54 41.27 37.54 39.37L37.35 39.18L37.35 39.19Q37.34 38.23 37.25 35.81L37.28 35.84L37.32 35.88Q37.26 33.49 37.10 32.39L37.11 32.40L37.19 32.48Q36.80 30.33 35.88 29.19L35.90 29.20L35.45 28.87L35.58 29.00Q35.32 28.24 34.52 27.33L34.47 27.28L34.53 27.34Q32.32 25.70 27.41 25.70L27.40 25.69L25.54 25.59L25.66 25.70Q22.21 25.57 20.50 26.94L20.53 26.97L20.56 27.00Q19.78 28.20 19.82 30.22L19.64 30.04L19.77 30.17Q19.72 30.53 19.85 31.79L19.88 31.82L19.82 31.76Q20.00 33.06 19.96 33.52L20.06 33.62L20.07 33.63Q20.15 36.53 20.23 36.99L20.23 36.98L20.37 37.13Q20.73 39.24 21.65 40.38L21.63 40.36L21.75 40.57L21.76 40.57Q22.55 43.00 26.29 43.42L26.24 43.38L26.35 43.48Q27.25 43.63 32.51 43.82ZM29.73 31.11L29.80 31.18L29.73 31.11Q30.58 31.12 32.26 31.65L32.18 31.58L32.23 31.63Q32.56 32.34 32.53 33.83L32.54 33.84L32.62 33.92Q32.36 37.24 29.46 38.00L29.48 38.01L29.47 38.00Q28.81 38.26 27.78 38.37L27.88 38.47L27.76 38.35Q26.78 38.48 25.07 37.87L25.05 37.85L24.99 37.79Q24.80 37.14 24.84 35.66L24.92 35.74L24.86 35.68Q24.86 33.27 26.23 32.25L26.37 32.39L26.23 32.25Q27.11 31.34 29.66 31.04Z"/><path d="M2 9 C79 25,72 16,136 39" stroke="#555" fill="none"/><path d="M18 7 C57 14,57 31,135 20" stroke="#666" fill="none"/><path d="M16 3 C87 25,94 48,133 23" stroke="#777" fill="none"/><path fill="#222" d="M60.17 27.22L60.12 27.18L60.05 27.10Q61.00 27.26 62.41 27.11L62.28 26.97L62.30 27.00Q62.25 27.63 62.25 28.28L62.24 28.27L62.21 29.49L62.19 29.47Q61.39 29.51 60.55 29.59L60.71 29.74L60.60 29.63Q59.76 29.67 58.92 29.63L59.00 29.71L58.93 29.64Q56.08 35.81 52.65 40.42L52.60 40.36L52.64 40.41Q50.15 41.08 48.86 41.69L48.83 41.66L48.88 41.71Q53.05 36.06 56.09 29.77L56.03 29.71L53.46 29.76L53.43 29.74Q53.42 28.40 53.31 27.07L53.22 26.97L53.22 26.98Q55.18 27.18 57.23 27.18L57.26 27.21L59.17 23.52L59.22 23.57Q60.02 21.48 61.23 19.88L61.34 19.98L61.33 19.97Q59.83 20.18 58.23 20.18L58.26 20.21L58.08 20.03Q52.02 20.07 48.25 17.86L48.28 17.89L47.59 16.13L47.63 16.18Q47.29 15.34 46.91 14.47L47.01 14.56L46.97 14.52Q51.38 17.22 57.09 17.45L56.94 17.30L57.06 17.42Q62.08 17.53 67.22 15.55L67.18 15.51L67.30 15.63Q67.13 16.06 66.63 16.94L66.58 16.88L66.62 16.92Q62.89 21.57 60.04 27.09ZM68.16 18.24L68.22 18.29L69.18 16.25L69.25 16.32Q68.18 16.70 66.51 17.42L66.60 17.52L66.67 17.09L66.82 17.24Q66.89 17.04 67.00 16.93L66.91 16.83L66.96 16.88Q67.26 16.12 67.99 14.79L68.11 14.92L68.01 14.81Q62.66 17.08 56.91 16.85L56.98 16.92L56.92 16.86Q50.94 16.63 46.18 13.66L46.31 13.78L46.20 13.67Q47.32 15.63 48.15 18.29L48.12 18.26L48.09 18.23Q49.27 18.96 50.07 19.26L50.07 19.26L50.04 19.22Q50.07 19.44 50.52 21.31L50.52 21.31L50.57 21.36Q53.74 22.63 59.26 22.47L59.21 22.43L59.21 22.42Q58.91 23.00 56.93 26.77L57.08 26.92L57.02 26.85Q55.01 26.91 53.04 26.72L52.88 26.56L53.01 26.69Q52.94 27.38 52.94 28.26L53.12 28.43L52.99 30.03L54.80 30.16L54.73 31.49L54.76 31.53Q50.82 38.89 48.04 42.47L47.94 42.37L47.96 42.39Q49.57 41.64 51.21 41.15L51.17 41.10L51.28 41.22Q50.58 42.12 49.21 43.83L49.16 43.77L49.20 43.82Q52.45 42.80 54.88 42.57L54.72 42.41L54.73 42.42Q57.63 38.62 60.75 31.85L60.75 31.84L64.19 32.05L64.19 32.04Q64.13 31.15 64.13 30.23L64.23 30.33L64.14 28.46L64.10 28.42Q63.85 28.43 63.30 28.47L63.31 28.48L63.29 28.46Q62.87 28.63 62.61 28.63L62.52 28.55L62.49 28.52Q62.54 28.46 62.58 28.30L62.61 28.34L62.60 28.05L62.57 28.03Q65.10 22.90 68.18 18.26Z"/><path d="M17 36 C66 6,57 27,134 13" stroke="#777" fill="none"/><path fill="#333" d="M77.86 14.38L77.84 14.36L77.72 14.24Q81.49 16.75 86.25 16.98L86.30 17.04L86.25 16.98Q90.85 17.14 95.12 15.38L95.22 15.49L95.23 15.50Q94.99 16.06 94.23 18.84L94.20 18.81L94.16 18.77Q91.48 19.86 88.51 20.01L88.56 20.06L88.44 19.94Q85.53 20.15 82.63 19.42L82.57 19.36L82.71 19.50Q83.28 23.00 83.47 26.66L83.56 26.75L83.47 26.66Q85.59 26.99 87.19 26.95L87.10 26.86L87.11 26.87Q88.27 26.81 90.67 26.70L90.75 26.78L90.73 26.76Q90.69 27.41 90.69 28.09L90.69 28.09L90.63 29.36L90.65 29.38Q88.37 29.50 83.57 29.57L83.58 29.59L83.55 29.55Q83.52 33.63 82.94 37.63L82.86 37.54L82.86 37.54Q85.50 36.91 88.24 37.03L88.37 37.15L88.27 37.06Q91.08 37.24 93.67 38.08L93.70 38.11L93.62 38.03Q93.64 38.77 93.91 39.53L93.87 39.49L94.44 41.13L94.39 41.08Q91.25 39.84 87.82 39.84L87.77 39.79L87.75 39.77Q83.01 39.90 78.75 42.15L78.56 41.96L78.68 42.09Q80.95 35.22 80.69 28.10L80.73 28.15L80.70 28.11Q80.45 20.97 77.78 14.31ZM78.13 42.74L78.15 42.77L78.25 42.87Q79.35 41.99 80.11 41.64L80.24 41.78L80.24 41.77Q80.01 42.50 79.44 44.02L79.44 44.02L79.42 44.00Q84.00 42.07 89.07 42.34L88.98 42.26L89.07 42.35Q94.19 42.59 98.18 45.29L98.22 45.33L98.10 45.20Q96.91 42.65 96.22 40.70L96.26 40.74L96.40 40.88Q95.28 40.14 94.29 39.80L94.30 39.81L94.32 39.83Q93.90 38.42 93.75 37.62L93.80 37.67L93.80 37.68Q90.73 36.70 87.57 36.70L87.48 36.60L87.56 36.68Q86.51 36.77 85.36 36.89L85.35 36.88L85.20 36.72Q85.41 35.56 85.45 34.35L85.47 34.36L85.43 31.73L85.44 31.75Q87.42 31.82 89.21 31.86L89.17 31.82L89.13 31.78Q90.90 31.76 92.69 31.92L92.67 31.89L92.72 31.94Q92.76 31.11 92.76 30.16L92.68 30.08L92.74 28.23L91.79 28.16L91.78 28.15Q91.40 28.27 90.95 28.27L90.91 28.24L91.04 28.36Q91.08 27.72 91.23 26.43L91.13 26.32L91.07 26.27Q89.53 26.55 88.35 26.59L88.36 26.60L88.33 26.57Q87.45 26.64 85.63 26.57L85.61 26.55L85.55 26.49Q85.42 25.02 85.23 22.21L85.37 22.35L85.37 22.35Q86.28 22.35 87.27 22.35L87.33 22.41L87.38 22.46Q92.02 22.37 95.71 20.47L95.66 20.42L95.83 20.59Q96.38 18.21 97.26 16.00L97.19 15.93L97.20 15.94Q95.85 16.76 95.01 17.10L94.98 17.08L95.01 17.11Q95.36 16.39 95.82 14.83L95.86 14.87L95.82 14.84Q91.15 16.94 86.28 16.63L86.36 16.71L86.33 16.69Q81.06 16.40 77.21 13.55L77.23 13.56L77.10 13.43Q80.07 20.47 80.37 28.09L80.33 28.04L80.31 28.03Q80.59 35.92 78.08 42.70Z"/><path fill="#222" d="M108.46 14.28L108.50 14.32L108.53 14.35Q111.13 16.11 112.88 16.53L112.79 16.44L112.81 16.46Q114.12 22.94 114.12 29.53L114.17 29.58L114.20 29.61Q114.11 33.52 113.58 37.52L113.59 37.53L113.49 37.43Q115.79 37.03 118.27 37.11L118.28 37.11L118.26 37.10Q120.79 37.23 122.92 37.95L122.85 37.88L122.93 37.96Q123.10 39.35 123.56 40.91L123.66 41.01L123.71 41.07Q120.17 39.55 116.33 39.81L116.41 39.89L116.37 39.85Q112.51 40.10 109.27 42.01L109.27 42.01L109.26 42.00Q111.42 35.10 111.16 28.09L111.23 28.17L111.26 28.20Q110.87 20.99 108.43 14.25ZM108.87 42.86L108.76 42.75L108.89 42.88Q109.44 42.37 110.81 41.64L110.91 41.74L110.94 41.77Q110.63 42.37 110.09 43.86L110.20 43.96L110.10 43.86Q113.76 42.31 117.61 42.31L117.60 42.31L117.53 42.24Q123.25 42.32 127.36 45.36L127.38 45.38L127.27 45.27Q126.60 43.76 125.57 40.79L125.59 40.81L125.62 40.84Q124.57 40.21 123.69 39.83L123.63 39.76L123.59 39.73Q123.47 39.04 123.17 37.63L123.09 37.55L123.19 37.65Q120.62 36.79 117.61 36.79L117.56 36.74L117.55 36.73Q116.78 36.72 115.98 36.76L116.01 36.79L115.92 36.70Q116.29 31.89 116.21 27.78L116.17 27.74L116.10 27.67Q116.05 23.58 115.70 18.59L115.82 18.71L115.70 18.59Q114.35 18.54 113.56 18.35L113.50 18.29L113.61 18.40Q113.35 17.53 113.12 16.12L113.14 16.14L113.11 16.12Q110.17 15.46 107.92 13.51L107.93 13.52L107.88 13.47Q110.68 20.61 110.94 28.11L110.85 28.02L110.93 28.09Q111.17 35.60 108.77 42.76Z"/></svg>