<svg height="50" width="150" xmlns="http://www.w3.org/2000/svg">
	<path d="M20.07 41.19L19.95 41.06L20.04 41.15Q23.16 36.85 29.86 28.93L29.89 28.96L29.82 28.89Q23.92 29.12 20.15 27.75L20.12 27.72L20.21 27.81Q19.56 26.40 18.80 24.99L18.71 24.90L18.65 24.85Q22.86 26.46 27.31 26.50L27.31 26.50L27.32 26.51Q31.79 26.56 35.97 25.49L35.99 25.51L35.86 25.38Q35.45 26.04 35.19 26.57L35.24 26.63L35.29 26.67Q32.65 28.80 29.84 32.41L29.95 32.52L25.02 38.71L24.99 38.69Q27.31 38.56 29.55 38.64L29.47 38.55L29.60 38.68Q31.71 38.66 33.95 39.04L33.93 39.02L33.89 38.98Q34.02 39.56 34.74 41.58L34.82 41.66L34.81 41.65Q31.13 40.86 27.13 40.98L27.07 40.92L26.99 40.83Q23.17 41.09 19.52 42.27L19.47 42.22L19.41 42.16Q19.50 42.02 19.96 41.07ZM18.97 42.90L18.93 42.87L18.82 42.75Q19.60 42.43 21.20 42.01L21.36 42.17L21.33 42.15Q20.93 42.20 20.51 42.61L20.51 42.62L20.64 42.75Q20.33 43.24 19.73 44.38L19.79 44.44L19.80 44.46Q24.49 43.09 29.47 43.24L29.45 43.22L29.51 43.28Q34.40 43.37 38.97 45.24L39.04 45.31L38.92 45.19Q37.45 43.30 36.53 41.24L36.70 41.41L36.60 41.31Q35.82 40.98 34.75 40.76L34.74 40.74L34.83 40.83Q34.52 39.99 34.14 38.55L34.15 38.55L34.14 38.54Q32.71 38.33 29.13 38.22L29.20 38.29L29.21 38.29Q31.46 34.84 36.49 28.48L36.48 28.47L36.55 28.54Q36.79 27.79 37.48 26.46L37.40 26.38L35.26 27.29L35.21 27.24Q35.25 27.13 35.41 27.02L35.31 26.92L35.67 26.90L35.68 26.91Q35.98 25.68 36.55 24.73L36.63 24.81L36.67 24.86Q31.92 26.12 27.20 26.05L27.18 26.03L27.29 26.14Q22.37 25.93 17.88 24.11L17.90 24.14L17.89 24.12Q19.14 26.06 19.94 28.11L19.90 28.07L19.94 28.11Q20.79 28.42 21.85 28.69L21.80 28.64L21.80 28.64Q22.05 29.39 22.36 30.84L22.31 30.78L22.26 30.74Q23.97 31.12 27.28 31.27L27.30 31.28L27.35 31.33Q24.84 34.54 19.67 40.97L19.76 41.07L19.59 40.90Q19.44 41.58 18.87 42.80Z" fill="#222"/>
	<path d="M66.86 22.99L66.94 23.07L66.95 23.08Q65.01 25.67 62.35 31.31L62.53 31.49L60.41 35.61L60.55 35.76Q59.58 37.56 58.25 39.81L58.30 39.86L58.29 39.85Q58.71 39.82 57.04 39.86L57.05 39.87L56.96 39.78Q57.12 39.93 55.86 39.93L55.69 39.77L55.85 39.92Q55.03 38.35 52.10 31.19L52.10 31.19L52.22 31.30Q50.02 25.91 47.93 22.90L47.91 22.88L47.86 22.83Q48.70 26.00 48.70 29.16L48.57 29.03L48.58 29.03Q48.59 35.56 45.62 41.11L45.64 41.13L45.56 41.05Q44.26 41.43 41.90 42.15L41.89 42.14L41.94 42.19Q45.55 36.44 45.55 29.21L45.69 29.34L45.67 29.32Q45.64 20.35 40.23 13.38L40.23 13.38L40.25 13.39Q41.93 14.16 44.29 14.85L44.19 14.75L44.21 14.77Q51.26 21.52 57.35 34.84L57.33 34.82L57.44 34.93Q60.83 27.81 63.04 24.31L63.13 24.40L63.04 24.31Q66.74 18.64 70.70 15.18L70.59 15.07L70.54 15.02Q71.81 14.80 74.17 14.04L74.16 14.04L74.22 14.10Q69.16 20.64 69.16 29.25L69.25 29.34L69.24 29.33Q69.24 35.99 72.67 41.51L72.64 41.49L72.61 41.46Q71.37 41.24 68.63 40.63L68.58 40.58L68.56 40.57Q66.18 35.75 66.18 29.77L66.28 29.88L66.20 29.80Q66.33 26.50 67.02 23.15ZM68.43 41.00L68.50 41.08L68.31 40.89Q69.17 41.17 70.61 41.44L70.46 41.29L70.58 41.41Q71.03 42.16 71.98 43.64L72.03 43.69L72.04 43.70Q74.07 44.02 77.53 45.23L77.63 45.33L77.63 45.33Q71.36 38.99 71.36 29.17L71.18 28.99L71.24 29.04Q71.24 21.32 75.62 15.19L75.61 15.18L73.42 15.88L73.42 15.89Q74.52 14.43 75.16 13.55L75.16 13.55L75.11 13.50Q73.25 14.15 70.62 14.68L70.62 14.69L70.61 14.67Q63.90 20.83 57.85 33.43L57.89 33.47L57.77 33.35Q52.68 22.48 47.73 17.23L47.57 17.07L47.70 17.19Q47.33 17.13 46.76 17.01L46.61 16.87L45.51 15.69L45.58 15.76Q44.88 14.98 44.19 14.37L44.29 14.47L44.26 14.44Q41.11 13.34 39.32 12.62L39.39 12.69L39.47 12.77Q45.45 19.97 45.45 29.37L45.35 29.27L45.37 29.29Q45.33 36.86 41.18 42.72L41.29 42.84L41.24 42.79Q41.98 42.62 43.28 42.20L43.24 42.16L43.17 42.09Q43.18 42.48 41.77 44.57L41.74 44.54L41.60 44.40Q43.38 43.90 46.88 43.14L46.95 43.20L47.02 43.27Q50.72 36.20 50.53 28.43L50.49 28.39L50.59 28.50Q52.10 32.49 55.57 40.37L55.46 40.25L55.45 40.25Q55.73 40.22 55.95 40.22L55.95 40.22L56.47 40.20L56.44 40.17Q56.97 40.93 57.77 42.22L57.76 42.21L57.67 42.12Q59.32 42.13 59.32 42.13L59.43 42.24L59.30 42.12Q60.37 42.16 61.02 42.23L61.09 42.31L60.97 42.19Q62.58 38.20 65.93 30.21L65.87 30.15L66.00 30.27Q65.79 35.63 68.38 40.96Z" fill="#333"/>
	<path d="M83.75 26.77L83.84 26.86L83.91 26.93Q85.52 26.90 87.35 26.90L87.52 27.07L87.42 26.97Q89.15 26.91 90.98 26.76L91.12 26.90L91.13 26.91Q90.85 27.39 90.85 28.12L90.94 28.20L90.88 29.48L90.96 29.55Q88.59 29.55 83.84 29.67L83.82 29.66L83.90 29.73Q83.77 35.54 82.63 40.53L82.64 40.54L82.59 40.49Q80.45 41.25 78.97 42.05L79.04 42.12L79.01 42.09Q81.32 35.26 81.06 28.14L81.07 28.16L81.10 28.18Q80.86 21.06 78.20 14.40L78.19 14.39L78.00 14.20Q81.74 16.80 86.50 17.03L86.56 17.09L86.59 17.12Q91.18 17.22 95.33 15.47L95.26 15.40L95.42 15.55Q95.14 16.37 94.91 17.17L94.94 17.21L94.26 18.62L94.35 18.71Q91.70 19.87 88.73 20.02L88.70 19.98L88.63 19.92Q85.75 20.12 82.90 19.40L82.99 19.49L82.84 19.35Q83.53 22.73 83.72 26.73ZM96.04 14.84L96.02 14.82L95.92 14.73Q91.34 16.88 86.47 16.58L86.58 16.69L86.50 16.60Q81.09 16.23 77.36 13.37L77.44 13.45L77.37 13.38Q80.42 20.51 80.73 28.12L80.75 28.14L80.58 27.97Q81.03 36.03 78.51 42.81L78.54 42.83L78.43 42.72Q79.08 42.31 80.45 41.66L80.50 41.71L80.51 41.72Q80.22 42.38 79.65 43.91L79.65 43.91L79.68 43.94Q82.04 42.91 84.94 42.42L84.94 42.42L84.86 42.34Q85.62 37.62 85.81 31.91L85.82 31.92L85.72 31.82Q87.61 31.88 89.43 31.88L89.37 31.81L89.43 31.87Q91.11 31.77 92.94 31.96L92.90 31.91L93.07 32.08Q92.95 31.12 92.95 30.21L92.93 30.19L92.81 28.17L92.80 28.16Q92.08 28.32 91.24 28.32L91.20 28.28L91.37 28.44Q91.20 27.40 91.28 26.37L91.26 26.36L91.30 26.40Q89.97 26.62 88.56 26.62L88.64 26.70L88.49 26.56Q87.23 26.70 85.86 26.66L85.74 26.54L85.80 24.47L85.74 24.42Q85.73 23.34 85.62 22.27L85.51 22.16L85.61 22.26Q86.49 22.23 87.48 22.23L87.59 22.34L87.56 22.31Q92.25 22.24 95.86 20.34L95.94 20.41L95.87 20.34Q96.44 18.59 97.35 15.96L97.25 15.87L97.37 15.98Q96.11 16.86 95.31 17.20L95.30 17.19L95.22 17.11Q95.53 16.39 96.03 14.83Z" fill="#222"/>
	<path d="M115.29 40.29L115.23 40.24L115.13 40.13Q111.85 40.44 110.22 39.91L110.08 39.77L110.05 39.74Q108.20 39.22 107.89 35.83L107.86 35.80L109.20 34.63L109.22 34.65Q109.98 34.15 110.74 33.66L110.69 33.60L110.85 33.76Q110.42 35.50 112.02 36.72L112.01 36.71L112.04 36.74Q113.49 37.93 115.63 37.74L115.47 37.58L115.62 37.74Q119.93 37.25 119.74 33.70L119.66 33.63L119.65 33.62Q119.55 31.42 116.92 30.20L116.89 30.17L116.85 30.13Q114.04 29.11 111.68 27.89L111.65 27.86L111.76 27.97Q109.22 26.65 108.23 21.97L108.17 21.91L108.23 21.97Q108.11 21.51 108.00 20.75L107.89 20.64L107.95 20.70Q107.94 20.01 108.02 19.44L107.92 19.33L107.93 19.34Q108.20 17.87 109.46 17.41L109.42 17.37L109.30 17.25Q111.81 16.48 115.80 16.68L115.66 16.53L115.68 16.55Q117.59 16.75 118.39 16.83L118.42 16.86L118.40 16.84Q119.93 17.07 121.00 17.53L120.87 17.40L120.83 17.36Q123.00 17.89 123.22 20.36L123.32 20.46L123.29 20.43Q122.30 21.19 120.09 22.52L120.09 22.52L119.93 22.36Q119.51 19.35 115.13 19.35L115.31 19.53L115.27 19.50Q113.26 19.38 112.27 20.07L112.39 20.19L112.33 20.13Q111.17 20.64 111.40 22.43L111.37 22.41L111.38 22.42Q111.56 24.54 114.53 26.06L114.53 26.06L114.63 26.16Q115.20 26.43 119.69 28.06L119.59 27.96L119.58 27.95Q122.28 29.51 122.70 33.89L122.70 33.88L122.77 33.95Q122.60 33.94 122.68 35.20L122.68 35.20L122.79 35.31Q122.78 38.01 121.22 39.11L121.27 39.16L121.30 39.19Q119.44 40.14 115.25 40.25ZM117.62 42.71L117.63 42.71L117.52 42.60Q119.04 42.75 121.02 42.75L120.99 42.73L121.01 42.75Q123.05 42.68 124.30 42.27L124.28 42.24L124.37 42.33Q125.50 41.41 125.43 39.62L125.37 39.57L125.47 39.66Q125.47 38.71 125.09 36.66L125.07 36.64L125.09 36.65Q124.07 31.87 121.97 30.00L122.08 30.11L121.98 30.01Q121.31 28.54 119.98 27.81L119.93 27.76L114.67 25.74L114.67 25.74Q114.35 25.58 113.90 25.35L113.94 25.40L113.78 24.96L113.66 24.50L113.63 24.47Q113.54 23.12 114.68 22.52L114.68 22.51L114.59 22.43Q115.43 21.94 117.14 21.75L117.09 21.69L117.15 21.75Q118.21 21.56 119.35 22.01L119.40 22.06L119.48 22.14Q119.47 22.17 119.66 23.01L119.70 23.04L119.63 22.97Q119.91 22.91 120.40 22.68L120.38 22.65L120.48 22.76Q121.21 23.68 121.33 24.82L121.22 24.71L121.23 24.73Q121.30 24.68 124.95 22.09L124.92 22.06L125.03 22.17Q124.80 19.58 123.35 18.89L123.16 18.70L123.28 18.82Q122.68 17.53 121.23 17.00L121.25 17.02L121.31 17.08Q118.97 16.22 115.77 16.22L115.76 16.21L115.80 16.25Q110.86 16.22 108.99 16.91L108.89 16.81L108.97 16.88Q107.55 17.25 107.43 18.92L107.52 19.01L107.55 19.04Q107.52 19.59 107.94 21.79L107.88 21.74L107.92 21.77Q108.57 25.51 110.74 27.75L110.72 27.74L110.82 27.84Q111.60 29.53 113.11 30.22L113.10 30.21L113.03 30.14Q114.66 30.95 118.59 32.51L118.56 32.49L118.43 32.40L119.06 32.72L119.28 32.98L119.22 32.92Q119.43 33.39 119.47 33.74L119.30 33.57L119.37 33.64Q119.50 37.16 115.58 37.31L115.53 37.26L115.47 37.20Q114.40 37.31 113.10 36.93L112.97 36.79L113.13 36.96Q112.78 36.11 112.78 35.38L112.84 35.45L112.69 35.30Q112.72 35.07 112.76 34.80L112.74 34.78L112.84 34.88Q112.39 35.08 111.59 35.57L111.63 35.61L111.53 35.51Q111.10 34.47 111.26 33.10L111.27 33.12L111.25 33.09Q109.06 34.18 107.46 35.59L107.55 35.68L107.50 35.63Q107.55 36.44 107.63 37.47L107.72 37.56L107.66 37.50Q108.02 39.27 109.31 40.03L109.21 39.93L109.25 39.97Q110.57 41.90 113.12 42.28L113.03 42.19L113.01 42.17Q114.65 42.47 117.58 42.66Z" fill="#333"/>
</svg>