<svg xmlns="http://www.w3.org/2000/svg" width="150" height="50"><path d="M7 40 C63 32,55 5,140 6" stroke="#444" fill="none"/><path d="M16 40 C79 24,80 4,142 25" stroke="#555" fill="none"/><path d="M4 36 C61 38,57 31,146 10" stroke="#333" fill="none"/><path d="M11 9 C80 25,93 16,140 11" stroke="#888" fill="none"/><path fill="#333" d="M18.61 39.06L18.55 39.00L18.47 38.92Q20.27 36.46 25.03 29.18L25.16 29.32L25.09 29.25Q29.10 23.02 31.96 19.74L32.09 19.88L31.99 19.77Q30.03 20.22 27.94 20.22L27.85 20.13L27.94 20.22Q22.66 20.19 18.66 18.40L18.51 18.25L18.68 18.42Q17.87 16.35 17.18 14.79L17.16 14.77L17.22 14.83Q21.78 16.99 27.45 17.10L27.55 17.20L27.40 17.06Q32.63 17.22 37.81 15.31L37.70 15.21L37.73 15.24Q37.48 16.21 37.18 17.01L37.17 17.00L36.57 18.57L36.45 18.45Q33.54 22.24 29.54 28.06L29.37 27.89L26.21 32.88L26.08 32.75Q24.55 35.33 22.72 37.61L22.55 37.44L22.67 37.56Q26.04 37.01 29.35 37.09L29.30 37.03L29.20 36.94Q32.54 37.04 35.70 37.95L35.67 37.93L36.27 39.62L36.30 39.65Q36.41 40.34 36.75 41.17L36.75 41.17L36.87 41.29Q32.12 39.63 26.98 39.82L26.93 39.77L26.91 39.75Q21.82 39.98 17.32 42.00L17.35 42.02L17.47 42.14Q17.70 40.93 18.42 38.87ZM16.88 42.85L16.72 42.69L16.71 42.68Q17.94 42.08 18.74 41.82L18.80 41.88L18.84 41.91Q18.64 42.75 17.96 44.27L17.79 44.10L17.78 44.10Q23.55 42.02 29.53 42.25L29.60 42.32L29.62 42.34Q35.82 42.46 40.85 45.23L40.90 45.28L40.85 45.23Q39.49 42.89 38.69 40.72L38.72 40.74L38.76 40.79Q38.13 40.43 36.61 39.85L36.78 40.02L36.74 39.98Q36.58 39.25 36.16 37.77L36.03 37.64L36.17 37.77Q31.89 36.46 26.78 36.65L26.74 36.61L26.82 36.68Q28.91 33.90 32.45 28.34L32.46 28.36L32.51 28.40Q36.06 22.59 37.96 20.04L38.05 20.13L37.99 20.06Q38.64 18.82 39.67 16.11L39.48 15.92L39.62 16.06Q38.82 16.29 37.38 16.90L37.40 16.93L37.49 17.02Q37.80 16.18 38.52 14.66L38.41 14.55L38.51 14.65Q33.10 16.70 27.39 16.63L27.53 16.76L27.53 16.76Q21.50 16.60 16.55 14.08L16.53 14.06L16.59 14.12Q17.59 16.34 18.31 18.59L18.38 18.65L18.49 18.77Q19.47 19.17 20.27 19.40L20.36 19.49L20.36 19.49Q20.68 20.22 20.94 21.67L20.75 21.48L20.79 21.52Q24.65 22.71 29.52 22.52L29.37 22.37L29.45 22.45Q27.13 25.73 23.82 30.71L23.66 30.56L18.21 38.96L18.12 38.88Q17.77 40.16 16.74 42.71Z"/><path fill="#333" d="M65.02 30.36L65.03 30.37L64.99 30.33Q65.10 29.95 65.06 29.53L65.14 29.61L65.04 29.51Q64.91 29.07 64.60 28.88L64.73 29.01L64.68 28.96Q63.91 28.34 63.03 28.49L63.15 28.61L63.06 28.52Q62.07 28.59 60.43 29.70L60.41 29.67L60.32 29.58Q58.96 30.55 58.96 31.73L59.03 31.80L59.04 31.80Q58.99 33.01 58.99 36.33L58.96 36.29L58.96 36.30Q58.94 38.87 59.09 40.88L59.14 40.93L59.02 40.81Q57.29 40.79 57.29 40.79L57.45 40.95L57.32 40.82Q56.45 40.91 55.73 40.98L55.70 40.96L55.72 40.98Q56.13 38.46 56.21 36.21L56.11 36.11L56.19 36.19Q56.28 31.49 55.64 30.19L55.69 30.25L55.63 30.19Q55.44 29.69 54.87 29.39L54.81 29.32L54.91 29.43Q53.91 28.54 52.35 28.43L52.39 28.47L52.41 28.49Q50.45 28.31 49.91 29.91L49.83 29.83L49.81 29.81Q49.68 30.33 49.79 30.82L49.90 30.93L49.84 30.87Q50.54 33.66 50.20 36.44L50.16 36.41L50.09 36.33Q49.87 39.24 48.46 41.67L48.34 41.55L48.36 41.57Q47.42 41.81 45.33 42.23L45.27 42.17L45.44 42.34Q47.82 38.97 47.82 34.67L47.72 34.57L47.85 34.71Q47.75 28.74 43.72 24.52L43.73 24.53L43.87 24.67Q44.50 24.84 45.45 25.07L45.47 25.09L47.20 25.49L47.12 25.40Q47.62 26.06 48.50 27.73L48.67 27.91L48.60 27.83Q48.66 25.84 51.10 25.81L51.08 25.79L51.14 25.84Q51.26 25.78 52.25 25.85L52.21 25.81L52.23 25.84Q57.34 26.26 58.48 29.08L58.56 29.16L58.54 29.14Q60.21 26.43 65.24 25.90L65.12 25.78L65.20 25.86Q66.03 25.81 66.90 25.92L66.82 25.84L66.89 25.92Q69.02 26.03 68.87 27.59L68.85 27.57L68.78 27.50Q68.82 28.26 68.55 29.02L68.43 28.90L68.57 29.04Q67.21 32.10 67.44 35.64L67.43 35.63L67.26 35.46Q67.56 39.03 69.46 41.85L69.51 41.90L69.39 41.77Q67.73 41.45 65.90 41.22L65.98 41.30L65.88 41.20Q64.71 38.69 64.52 35.91L64.62 36.01L64.43 35.83Q64.31 33.04 64.95 30.30ZM65.70 41.62L65.63 41.55L65.66 41.59Q66.46 41.74 67.79 41.93L67.81 41.95L67.78 41.92Q68.25 42.58 69.39 43.99L69.40 43.99L69.54 44.13Q72.31 44.54 74.40 45.19L74.43 45.22L74.40 45.18Q69.46 41.35 69.19 34.84L69.19 34.83L69.21 34.85Q69.04 32.67 69.65 30.77L69.72 30.84L69.75 30.87Q69.90 29.92 69.90 29.20L69.93 29.22L69.82 29.11Q70.03 28.41 69.42 27.84L69.27 27.68L69.28 27.65L69.38 27.75Q69.40 27.21 69.32 26.71L69.38 26.77L69.38 26.76Q69.18 26.14 68.72 25.88L68.74 25.90L68.71 25.87Q68.11 25.46 67.24 25.42L67.25 25.43L67.15 25.34Q64.38 25.31 61.72 26.26L61.70 26.25L61.75 26.29Q59.65 26.86 58.47 28.26L58.52 28.32L58.51 28.31Q56.87 25.75 52.03 25.41L52.13 25.50L52.11 25.49Q51.33 25.36 50.92 25.36L50.92 25.36L51.02 25.47Q48.87 25.37 48.26 26.62L48.38 26.74L48.27 26.63Q48.11 26.29 47.43 25.22L47.34 25.14L47.32 25.11Q44.97 24.71 42.99 24.06L42.84 23.90L42.84 23.91Q47.59 28.39 47.59 34.67L47.57 34.65L47.52 34.61Q47.64 39.45 44.79 42.91L44.64 42.76L44.67 42.79Q45.14 42.66 45.64 42.58L45.71 42.66L46.54 42.33L46.70 42.50Q45.98 43.53 44.88 44.75L44.86 44.73L44.84 44.71Q46.50 44.43 49.62 43.82L49.49 43.69L49.65 43.85Q52.23 39.66 52.23 34.75L52.20 34.72L52.24 34.75Q52.27 33.99 52.20 33.15L52.10 33.06L52.10 33.05Q52.04 32.31 53.03 31.51L53.02 31.50L53.01 31.53L53.02 31.53Q53.70 31.15 54.88 31.04L54.80 30.95L54.78 30.94Q55.37 31.11 55.67 31.11L55.54 30.98L55.73 31.35L55.69 31.32Q55.98 34.04 55.86 36.40L55.73 36.26L55.72 36.26Q55.68 38.61 55.19 41.28L55.16 41.25L55.11 41.20Q56.26 41.33 56.26 41.33L56.16 41.22L56.18 41.24Q57.57 41.19 57.23 41.19L57.28 41.24L57.30 41.26Q57.29 41.75 57.26 42.20L57.23 42.17L57.30 42.25Q57.16 42.61 57.16 43.10L57.19 43.13L59.79 43.25L59.73 43.20Q61.03 43.24 62.28 43.31L62.15 43.18L62.30 43.33Q60.78 39.64 60.97 33.70L60.83 33.56L60.95 33.68Q60.98 32.57 62.16 31.81L62.11 31.76L62.18 31.83Q63.11 31.04 64.37 30.85L64.25 30.73L64.51 30.69L64.53 30.71Q64.20 32.74 64.20 34.72L64.09 34.61L64.18 34.70Q64.21 38.49 65.73 41.65ZM60.17 30.09L60.45 30.13L60.16 30.19L60.23 30.14Z"/><path fill="#333" d="M115.59 40.15L115.61 40.18L113.30 33.42L113.31 33.43Q108.79 20.68 102.85 14.28L102.85 14.28L102.93 14.37Q104.82 15.31 107.41 15.92L107.60 16.10L107.51 16.02Q112.65 22.30 116.99 35.05L117.07 35.13L117.07 35.13Q120.03 26.93 120.71 25.33L120.67 25.29L120.75 25.37Q123.09 19.71 125.91 16.40L126.00 16.50L125.96 16.46Q127.98 16.04 130.61 15.16L130.61 15.17L130.71 15.27Q126.12 19.85 123.07 27.09L122.92 26.93L122.96 26.97Q121.61 30.68 117.91 40.20L117.91 40.20L117.82 40.10Q117.24 40.10 116.67 40.06L116.70 40.09L116.85 40.24Q116.25 40.21 115.68 40.24ZM120.59 42.57L120.60 42.58L120.66 42.64Q123.51 32.70 125.07 28.67L124.91 28.50L125.02 28.61Q128.04 20.94 132.46 16.07L132.48 16.09L132.41 16.01Q131.41 16.43 129.32 17.15L129.22 17.05L130.43 15.79L130.41 15.77Q130.91 15.02 131.52 14.37L131.67 14.51L131.52 14.36Q128.72 15.38 125.72 15.95L125.85 16.08L125.72 15.96Q121.36 21.30 117.48 32.76L117.57 32.85L117.44 32.72Q113.82 22.63 110.62 18.25L110.68 18.31L110.62 18.25Q110.27 18.20 109.40 18.05L109.34 18.00L109.37 18.02Q109.09 17.59 107.49 15.54L107.50 15.54L107.50 15.54Q104.61 14.90 101.91 13.50L101.85 13.43L101.93 13.52Q108.45 20.49 112.83 33.28L112.96 33.42L112.83 33.28Q114.23 37.12 115.41 40.70L115.41 40.70L115.41 40.70Q115.79 40.77 116.62 40.66L116.63 40.67L116.53 40.57Q116.85 41.23 117.54 42.56L117.49 42.52L117.57 42.60Q118.49 42.61 119.22 42.68L119.04 42.51L119.16 42.62Q119.78 42.53 120.55 42.53Z"/><path fill="#222" d="M94.48 40.35L94.56 40.43L94.59 40.46Q91.60 36.55 88.97 27.91L89.00 27.94L88.94 27.88Q88.23 25.69 87.43 23.55L87.36 23.48L84.62 32.40L84.49 32.27Q82.70 37.21 80.30 40.45L80.42 40.56L80.31 40.45Q79.42 40.48 77.78 40.63L77.81 40.66L77.79 40.64Q77.91 39.46 77.91 38.21L78.07 38.37L78.03 38.33Q77.90 32.18 75.16 26.05L75.18 26.07L75.19 26.08Q72.12 19.24 66.25 14.25L66.27 14.28L66.27 14.27Q68.38 14.93 70.74 15.46L70.74 15.46L70.69 15.42Q79.39 23.89 80.69 34.86L80.66 34.83L80.74 34.91Q82.38 31.60 83.83 26.23L83.77 26.17L83.89 26.29Q85.86 18.78 86.35 17.38L86.26 17.29L88.57 17.35L88.47 17.25Q89.35 19.46 90.00 21.79L89.91 21.70L91.04 26.02L91.19 26.18Q92.72 31.58 94.12 34.82L94.00 34.69L94.17 34.86Q95.68 23.09 103.60 15.74L103.67 15.81L103.62 15.76Q105.19 15.46 108.16 14.81L108.16 14.82L108.16 14.82Q102.87 19.16 99.83 25.29L99.89 25.35L99.73 25.19Q96.66 31.45 96.66 38.23L96.78 38.34L96.64 38.21Q96.64 39.31 96.71 40.45L96.89 40.63L95.70 40.47L95.59 40.35Q95.06 40.35 94.48 40.35ZM100.85 43.37L100.65 43.17L100.84 43.36Q99.45 39.65 99.56 35.76L99.65 35.85L99.71 35.91Q99.97 24.30 109.34 16.04L109.25 15.94L109.41 16.10Q108.39 16.26 106.44 16.80L106.43 16.78L106.46 16.81Q107.41 15.97 109.32 14.19L109.28 14.15L109.26 14.13Q106.67 14.96 103.73 15.46L103.69 15.41L103.72 15.44Q96.25 22.59 94.34 32.06L94.33 32.06L94.21 31.93Q93.75 30.41 90.90 18.95L90.83 18.88L90.85 18.90Q90.42 18.97 89.47 18.97L89.53 19.03L89.11 17.85L89.23 17.97Q88.98 17.30 88.76 16.81L88.75 16.81L85.95 16.90L85.89 16.84Q85.15 19.37 83.87 24.49L83.82 24.44L83.80 24.42Q82.50 29.51 81.51 31.98L81.53 32.00L81.57 32.05Q80.07 24.23 74.51 17.91L74.42 17.81L74.37 17.77Q73.94 17.75 72.99 17.56L72.98 17.56L73.03 17.60Q72.19 16.65 70.63 15.01L70.62 15.01L70.67 15.05Q67.31 14.28 65.14 13.49L65.25 13.60L65.23 13.58Q70.91 18.27 74.19 24.47L74.17 24.45L74.11 24.40Q77.48 30.92 77.48 37.93L77.49 37.94L77.59 38.04Q77.66 39.67 77.47 41.27L77.41 41.21L77.28 41.08Q77.68 41.26 78.14 41.16L78.12 41.14L78.10 41.12Q78.47 40.94 78.70 40.94L78.70 40.94L78.78 42.05L78.68 41.95Q78.78 42.50 78.85 43.03L78.90 43.08L78.81 42.99Q79.95 42.91 82.23 42.76L82.20 42.73L82.31 42.84Q85.88 37.38 88.62 27.98L88.53 27.89L88.51 27.87Q91.36 36.74 94.33 40.70L94.44 40.81L94.40 40.76Q94.79 40.70 95.63 40.81L95.75 40.94L95.63 40.81Q96.57 41.94 97.63 43.01L97.56 42.93L97.50 42.87Q98.41 43.06 100.81 43.33Z"/></svg>