<svg xmlns="http://www.w3.org/2000/svg" width="150" height="50"><path d="M16 2 C72 32,61 37,129 39" stroke="#222" fill="none"/><path d="M8 24 C65 15,95 42,132 20" stroke="#444" fill="none"/><path d="M9 3 C79 32,54 42,135 40" stroke="#111" fill="none"/><path d="M13 13 C81 29,92 46,130 3" stroke="#666" fill="none"/><path fill="#111" d="M30.49 27.15L30.57 27.23L30.56 27.21Q31.36 27.22 32.77 27.07L32.79 27.09L32.80 27.10Q32.63 27.61 32.63 28.26L32.59 28.22L32.68 29.56L32.68 29.56Q31.81 29.53 30.97 29.61L30.93 29.57L30.93 29.56Q30.23 29.74 29.39 29.71L29.28 29.59L29.35 29.66Q26.55 35.88 23.12 40.49L23.11 40.48L22.99 40.35Q20.54 41.06 19.24 41.67L19.28 41.71L19.25 41.68Q23.41 36.02 26.45 29.73L26.32 29.60L23.68 29.59L23.79 29.70Q23.77 28.34 23.65 27.01L23.75 27.11L23.66 27.01Q25.59 27.20 27.65 27.20L27.71 27.26L29.57 23.52L29.43 23.39Q30.50 21.56 31.72 19.97L31.76 20.01L31.80 20.04Q30.12 20.08 28.52 20.08L28.65 20.21L28.65 20.21Q22.40 20.04 18.63 17.83L18.79 17.99L18.12 16.27L18.11 16.25Q17.67 15.32 17.29 14.44L17.33 14.48L17.34 14.49Q21.71 17.15 27.42 17.38L27.46 17.41L27.37 17.33Q32.54 17.59 37.68 15.61L37.63 15.55L37.64 15.56Q37.40 15.94 36.91 16.81L37.06 16.96L37.05 16.95Q33.34 21.63 30.49 27.15ZM38.64 18.32L38.65 18.33L39.60 16.27L39.51 16.18Q38.53 16.65 36.86 17.37L37.03 17.55L37.09 17.11L37.24 17.26Q37.28 17.04 37.40 16.92L37.45 16.97L37.34 16.87Q37.72 16.18 38.44 14.85L38.45 14.85L38.51 14.91Q33.18 17.19 27.43 16.97L27.39 16.93L27.39 16.93Q21.42 16.71 16.66 13.74L16.61 13.68L16.57 13.65Q17.69 15.61 18.53 18.27L18.50 18.24L18.56 18.30Q19.60 18.88 20.40 19.19L20.39 19.18L20.31 19.10Q20.58 19.56 21.04 21.43L20.91 21.29L21.06 21.44Q24.12 22.61 29.64 22.45L29.70 22.51L29.72 22.53Q29.37 23.05 27.39 26.82L27.34 26.78L27.29 26.73Q25.34 26.83 23.36 26.64L23.37 26.65L23.30 26.58Q23.45 27.49 23.45 28.37L23.53 28.44L23.43 30.07L25.18 30.13L25.08 31.45L25.09 31.46Q21.14 38.81 18.37 42.39L18.39 42.42L18.42 42.45Q20.02 41.68 21.65 41.19L21.73 41.27L21.73 41.27Q20.97 42.11 19.60 43.82L19.63 43.85L19.66 43.87Q22.84 42.79 25.27 42.56L25.25 42.54L25.18 42.47Q28.14 38.73 31.26 31.95L31.32 32.01L34.75 32.20L34.73 32.19Q34.62 31.24 34.62 30.33L34.69 30.39L34.56 28.48L34.62 28.54Q34.29 28.47 33.74 28.51L33.78 28.55L33.83 28.60Q33.20 28.57 32.94 28.57L32.87 28.50L32.86 28.48Q33.01 28.52 33.05 28.37L32.91 28.23L32.90 27.96L33.04 28.10Q35.59 22.99 38.67 18.35Z"/><path fill="#444" d="M117.90 32.13L108.74 22.22L108.75 22.22Q109.61 25.93 109.61 29.66L109.58 29.64L109.45 29.51Q109.52 35.55 107.46 41.11L107.53 41.18L107.55 41.20Q106.41 41.39 104.16 42.15L104.19 42.18L104.06 42.05Q107.02 36.40 107.02 29.70L107.02 29.70L107.01 29.69Q107.02 21.06 102.53 13.64L102.48 13.59L102.47 13.58Q102.89 13.74 103.58 14.16L103.58 14.16L103.65 14.23Q115.64 25.35 123.48 34.60L123.44 34.55L123.55 34.66Q123.23 32.21 123.23 29.77L123.18 29.72L123.31 29.85Q123.12 22.43 125.64 16.23L125.69 16.28L125.80 16.39Q128.14 15.88 129.74 15.19L129.61 15.06L129.64 15.10Q126.41 21.35 126.11 28.50L125.95 28.35L126.06 28.45Q125.75 35.79 128.72 41.96L128.71 41.95L128.79 42.03Q128.16 41.89 127.74 41.70L127.70 41.66L127.73 41.69Q123.19 37.77 117.97 32.21L118.02 32.26ZM131.27 45.08L131.29 45.11L131.26 45.08Q131.69 45.20 132.11 45.39L132.21 45.49L133.03 45.82L133.07 45.86Q127.98 38.98 127.98 29.61L127.82 29.45L127.90 29.54Q127.92 22.32 131.23 16.08L131.19 16.03L131.27 16.12Q130.64 16.36 129.23 16.97L129.18 16.92L129.13 16.86Q129.54 16.05 130.37 14.49L130.42 14.54L130.32 14.44Q127.85 15.32 125.41 15.89L125.45 15.93L125.43 15.90Q122.90 22.48 122.90 29.90L122.82 29.82L122.86 29.86Q122.86 31.72 123.05 33.70L122.98 33.64L122.97 33.63Q118.35 27.98 113.59 23.37L113.56 23.34L103.52 13.68L103.52 13.68Q103.03 13.46 101.81 12.89L101.74 12.81L101.80 12.88Q106.58 20.50 106.58 29.60L106.60 29.63L106.65 29.68Q106.55 36.69 103.46 42.71L103.61 42.86L103.63 42.87Q103.74 42.57 105.38 41.96L105.40 41.98L105.52 42.10Q105.09 42.77 104.25 44.26L104.41 44.42L104.36 44.37Q105.68 43.82 109.14 43.02L109.15 43.02L109.15 43.03Q111.45 36.87 111.45 29.68L111.42 29.65L111.36 29.59Q111.53 27.66 111.30 25.53L111.20 25.44L111.24 25.47Q122.72 38.29 131.33 45.14Z"/><path fill="#333" d="M49.40 14.42L49.35 14.37L49.23 14.25Q51.93 16.12 53.68 16.53L53.56 16.41L53.61 16.46Q54.88 22.91 54.88 29.49L54.91 29.53L54.93 29.54Q54.93 33.54 54.40 37.54L54.34 37.48L54.46 37.60Q56.64 37.07 59.11 37.15L59.12 37.16L59.05 37.09Q61.63 37.27 63.76 38.00L63.65 37.88L63.58 37.81Q63.96 39.42 64.42 40.98L64.47 41.02L64.47 41.02Q60.94 39.51 57.10 39.78L57.16 39.84L57.09 39.78Q53.28 40.08 50.05 41.98L50.18 42.12L50.07 42.01Q52.32 35.19 52.05 28.19L52.03 28.17L51.98 28.12Q51.81 21.13 49.38 14.40ZM49.68 42.87L49.59 42.78L49.50 42.70Q50.23 42.35 51.60 41.63L51.65 41.68L51.68 41.71Q51.55 42.49 51.02 43.98L50.86 43.83L51.02 43.98Q54.50 42.25 58.34 42.25L58.25 42.15L58.36 42.26Q64.03 42.29 68.14 45.34L68.02 45.23L68.16 45.36Q67.31 43.68 66.29 40.71L66.47 40.89L66.47 40.89Q65.40 40.24 64.53 39.86L64.38 39.71L64.34 39.68Q64.32 39.08 64.01 37.67L64.07 37.73L64.08 37.74Q61.37 36.74 58.36 36.74L58.27 36.65L58.36 36.74Q57.59 36.73 56.79 36.77L56.72 36.70L56.76 36.74Q57.11 31.91 57.03 27.80L56.97 27.74L57.01 27.78Q56.85 23.58 56.51 18.60L56.65 18.73L56.48 18.57Q55.04 18.42 54.24 18.23L54.38 18.38L54.36 18.35Q54.22 17.60 53.99 16.19L54.02 16.22L53.93 16.13Q50.96 15.44 48.71 13.50L48.76 13.55L48.63 13.42Q51.39 20.52 51.66 28.02L51.76 28.13L51.64 28.00Q51.99 35.63 49.59 42.78Z"/><path fill="#333" d="M88.83 39.86L88.78 39.81L88.74 39.76Q86.87 39.80 84.85 39.99L84.93 40.07L84.94 40.08Q85.60 34.84 85.60 30.01L85.44 29.85L85.47 29.87Q85.62 25.11 84.97 19.90L84.84 19.77L84.88 19.80Q80.22 19.33 77.02 17.65L77.08 17.71L76.29 15.89L76.40 16.01Q76.22 15.52 75.61 14.30L75.60 14.29L75.66 14.35Q80.69 16.99 86.71 17.18L86.61 17.08L86.74 17.21Q92.45 17.21 97.90 15.16L98.04 15.30L98.00 15.26Q97.29 16.69 96.65 18.51L96.57 18.44L96.68 18.55Q93.06 19.84 88.79 20.03L88.82 20.06L88.80 20.03Q88.57 25.02 88.57 29.97L88.43 29.82L88.56 29.95Q88.42 34.77 88.72 39.75ZM98.62 14.51L98.56 14.45L98.69 14.58Q92.77 16.77 86.56 16.57L86.55 16.56L86.71 16.72Q79.86 16.35 74.76 13.38L74.86 13.48L74.87 13.49Q75.56 14.71 76.86 17.99L76.83 17.96L76.99 18.12Q77.46 18.24 78.71 18.82L78.80 18.91L78.87 18.97Q79.08 19.64 79.42 21.16L79.43 21.17L79.40 21.14Q81.65 21.95 84.70 22.18L84.74 22.21L84.66 22.13Q85.15 25.93 85.15 29.70L85.16 29.71L85.03 29.59Q85.21 35.14 84.41 40.50L84.27 40.36L84.30 40.39Q86.03 40.34 86.57 40.34L86.45 40.22L86.58 40.35Q86.63 40.70 86.57 41.37L86.43 41.23L86.39 41.19Q86.43 41.95 86.43 42.29L86.42 42.29L86.45 42.32Q87.64 42.24 89.16 42.32L89.17 42.33L89.03 42.19Q89.96 42.25 91.79 42.40L91.95 42.56L91.91 42.52Q90.66 37.57 90.54 32.40L90.50 32.35L90.52 32.38Q90.35 27.02 90.88 22.11L90.86 22.09L90.83 22.07Q94.87 21.61 98.03 20.39L98.07 20.43L98.00 20.36Q98.81 18.09 99.84 16.03L99.79 15.98L99.70 15.89Q98.44 16.65 97.64 16.95L97.54 16.86L97.58 16.89Q98.00 15.60 98.57 14.46Z"/></svg>