<svg xmlns="http://www.w3.org/2000/svg" width="150" height="50"><path d="M11 21 C61 45,86 20,144 42" stroke="#333" fill="none"/><path d="M2 43 C79 24,66 36,142 44" stroke="#111" fill="none"/><path fill="#222" d="M36.03 41.54L36.00 41.51L36.08 41.59Q33.97 41.19 31.80 41.04L31.75 40.99L31.81 41.05Q30.25 39.48 27.58 35.64L27.75 35.81L27.65 35.70Q25.39 38.74 22.99 41.18L23.15 41.33L21.01 41.67L21.08 41.74Q19.94 41.86 18.95 42.13L18.95 42.12L19.00 42.18Q23.10 37.98 26.11 33.86L26.05 33.81L26.18 33.93Q22.78 29.62 17.38 24.83L17.50 24.95L17.48 24.93Q19.75 25.71 22.45 26.13L22.40 26.08L22.30 25.98Q25.80 29.14 27.70 31.84L27.75 31.88L27.73 31.87Q29.80 28.76 32.54 26.25L32.56 26.27L32.58 26.28Q35.63 25.94 37.45 25.45L37.43 25.43L37.48 25.48Q32.88 29.06 29.18 33.63L29.24 33.68L29.28 33.72Q32.58 38.31 36.04 41.55ZM38.84 24.63L38.91 24.70L38.86 24.65Q36.11 25.63 32.57 25.97L32.40 25.80L32.38 25.78Q29.55 28.51 27.84 30.99L27.80 30.95L27.87 31.02Q26.90 29.90 25.27 27.92L25.27 27.93L25.20 28.04L25.16 28.00Q25.10 28.06 24.99 28.06L24.98 28.05L24.90 27.97Q24.17 27.17 22.53 25.72L22.57 25.75L22.45 25.64Q18.83 25.06 15.97 23.84L16.00 23.86L16.05 23.92Q21.67 28.81 25.71 33.95L25.58 33.82L25.60 33.85Q22.24 38.48 17.83 42.79L17.80 42.77L17.89 42.85Q18.16 42.77 21.66 41.94L21.59 41.86L21.61 41.89Q20.04 43.18 18.41 44.51L18.48 44.59L18.48 44.58Q21.65 43.64 24.81 43.45L24.87 43.51L24.78 43.42Q27.26 41.25 29.16 38.51L29.03 38.39L29.12 38.48Q30.49 40.18 31.70 41.36L31.69 41.35L31.67 41.33Q31.88 41.42 31.96 41.50L31.83 41.37L32.16 41.51L32.02 41.37Q33.31 42.51 34.64 43.58L34.65 43.58L34.72 43.65Q38.28 44.16 41.17 45.19L41.19 45.22L41.20 45.22Q34.90 40.64 31.21 35.46L31.35 35.60L31.21 35.46Q34.96 30.54 39.53 26.46L39.47 26.40L39.47 26.40Q38.59 26.82 37.60 27.05L37.53 26.98L35.58 27.49L35.64 27.56Q36.68 26.50 38.85 24.64Z"/><path d="M8 13 C86 19,59 48,133 40" stroke="#444" fill="none"/><path fill="#222" d="M54.30 26.92L54.20 26.81L54.12 26.74Q55.95 26.92 57.77 26.92L57.76 26.91L57.93 27.08Q59.68 27.04 61.51 26.89L61.35 26.73L61.45 26.83Q61.36 27.51 61.36 28.23L61.27 28.14L61.32 29.52L61.38 29.58Q58.92 29.48 54.16 29.59L54.17 29.60L54.26 29.69Q54.16 35.53 53.01 40.51L53.06 40.56L53.12 40.62Q50.81 41.20 49.32 42.00L49.32 42.00L49.42 42.10Q51.69 35.24 51.43 28.12L51.36 28.05L51.53 28.22Q51.20 21.00 48.54 14.34L48.47 14.27L48.50 14.30Q52.16 16.82 56.92 17.05L57.02 17.14L56.87 17.00Q61.55 17.19 65.70 15.44L65.66 15.39L65.67 15.41Q65.43 16.27 65.21 17.07L65.19 17.06L64.67 18.63L64.67 18.63Q62.09 19.86 59.12 20.01L59.01 19.89L59.13 20.02Q56.11 20.08 53.25 19.35L53.36 19.46L53.29 19.40Q54.04 22.84 54.23 26.84ZM66.43 14.83L66.42 14.82L66.45 14.85Q61.84 16.98 56.97 16.68L56.84 16.55L57.00 16.71Q51.52 16.26 47.79 13.40L47.81 13.42L47.84 13.45Q50.79 20.48 51.10 28.09L51.02 28.01L51.12 28.11Q51.49 36.09 48.98 42.87L48.98 42.88L48.79 42.69Q49.47 42.30 50.84 41.65L50.99 41.81L50.87 41.68Q50.79 42.55 50.22 44.08L50.20 44.06L50.08 43.94Q52.55 43.02 55.44 42.52L55.36 42.44L55.42 42.50Q56.03 37.63 56.22 31.92L56.07 31.77L56.21 31.91Q58.04 31.91 59.87 31.91L59.76 31.80L59.74 31.78Q61.56 31.82 63.39 32.01L63.35 31.97L63.37 31.98Q63.34 31.12 63.34 30.21L63.29 30.15L63.34 28.30L63.30 28.26Q62.48 28.32 61.64 28.32L61.66 28.34L61.71 28.39Q61.77 27.57 61.85 26.54L61.71 26.41L61.70 26.40Q60.39 26.65 58.99 26.65L58.91 26.58L58.96 26.62Q57.62 26.70 56.25 26.66L56.14 26.55L56.02 24.29L56.09 24.36Q56.06 23.27 55.95 22.20L55.91 22.16L55.89 22.14Q57.00 22.35 57.99 22.35L57.91 22.26L57.89 22.25Q62.64 22.23 66.26 20.33L66.34 20.41L66.42 20.49Q66.87 18.63 67.79 16.00L67.73 15.94L67.67 15.88Q66.34 16.69 65.54 17.03L65.65 17.14L65.69 17.18Q65.87 16.32 66.36 14.76Z"/><path d="M10 11 C73 6,85 40,131 17" stroke="#333" fill="none"/><path fill="#333" d="M83.15 30.69L83.06 30.61L83.07 30.62Q83.06 30.61 86.45 30.57L86.45 30.57L86.47 30.59Q88.75 30.58 89.82 30.62L89.72 30.53L89.75 30.56Q88.68 27.66 86.25 22.03L86.31 22.09L86.30 22.08Q85.72 23.48 84.67 26.33L84.68 26.34L84.71 26.37Q83.72 29.28 83.15 30.69ZM90.98 33.16L90.99 33.17L91.02 33.20Q88.75 33.17 86.54 33.21L86.39 33.05L86.45 33.12Q84.24 33.20 81.96 33.39L81.99 33.41L81.85 33.27Q80.41 36.78 77.17 40.97L77.21 41.01L77.18 40.98Q74.55 41.55 73.18 42.04L73.14 42.00L73.22 42.08Q78.32 36.41 83.00 23.04L83.05 23.10L83.04 23.08Q84.30 19.66 85.67 16.43L85.56 16.31L85.55 16.30Q85.87 16.32 86.21 16.32L86.21 16.31L87.01 16.39L87.07 16.46Q87.71 17.70 92.54 29.35L92.48 29.29L92.55 29.36Q95.75 37.13 99.75 41.28L99.80 41.33L99.89 41.41Q99.29 41.20 95.41 40.33L95.47 40.39L95.46 40.38Q92.89 37.24 90.91 33.09ZM95.35 40.69L95.48 40.81L95.91 40.75L96.04 40.88Q96.16 40.77 96.46 40.88L96.46 40.89L96.60 41.02Q96.78 41.25 98.61 43.26L98.74 43.39L98.75 43.40Q102.35 44.26 104.75 45.29L104.71 45.25L104.68 45.22Q99.29 40.78 95.29 32.78L95.22 32.72L95.17 32.66Q93.59 29.41 92.15 25.45L92.13 25.43L89.34 17.89L89.41 17.96Q89.16 18.05 88.93 18.05L88.93 18.05L88.33 17.98L88.46 18.11Q87.93 17.28 87.21 15.91L87.20 15.90L87.30 16.00Q86.87 16.11 86.42 16.07L86.25 15.90L86.24 15.89Q85.88 15.95 85.35 15.95L85.37 15.98L85.37 15.97Q83.99 19.92 80.11 30.09L79.97 29.96L80.04 30.02Q76.92 37.98 72.27 42.78L72.19 42.69L72.25 42.75Q73.27 42.33 75.29 41.72L75.27 41.70L75.36 41.78Q74.47 42.53 72.90 44.32L72.94 44.35L72.96 44.38Q74.75 43.80 78.67 43.04L78.70 43.08L78.57 42.94Q82.07 38.68 83.63 35.44L83.63 35.44L83.61 35.42Q85.38 35.33 87.71 35.37L87.69 35.34L87.72 35.38Q90.38 35.34 91.76 35.42L91.73 35.40L91.83 35.49Q92.95 37.72 95.32 40.65ZM87.69 26.06L87.70 26.07L87.59 25.96Q88.48 28.07 89.25 30.17L89.36 30.28L85.89 30.12L85.93 30.16Q86.68 28.90 87.75 26.12Z"/><path fill="#222" d="M113.17 14.74L113.28 14.85L113.33 14.90Q114.44 17.16 116.38 17.16L116.24 17.01L116.40 17.18Q116.89 17.17 117.31 17.02L117.19 16.90L117.19 16.90Q116.92 21.96 116.88 28.36L116.96 28.43L117.01 28.49Q116.98 34.74 117.17 39.99L117.22 40.04L117.04 39.86Q116.80 39.84 116.41 39.84L116.28 39.71L116.42 39.84Q115.07 39.86 113.66 41.73L113.56 41.63L113.55 41.63Q114.20 34.88 114.16 28.18L114.13 28.15L114.31 28.33Q114.17 21.53 113.26 14.83ZM113.07 42.74L113.19 42.86L113.06 42.73Q113.99 41.23 115.17 40.50L115.24 40.58L115.21 40.54Q115.14 41.46 115.06 42.52L115.12 42.59L115.19 42.66Q115.91 42.12 116.67 42.23L116.74 42.30L116.66 42.22Q118.77 42.50 120.14 45.28L120.02 45.16L120.09 45.23Q119.02 38.00 119.02 30.73L118.92 30.62L118.92 30.62Q118.85 23.01 119.65 15.90L119.83 16.08L119.64 15.88Q118.73 17.83 117.66 18.48L117.57 18.38L117.57 18.39Q117.55 17.64 117.67 16.27L117.78 16.38L117.75 16.35Q116.91 16.74 116.15 16.62L116.16 16.63L116.15 16.62Q113.75 16.31 112.72 13.42L112.81 13.51L112.81 13.51Q113.90 20.99 114.01 28.15L114.02 28.16L113.92 28.06Q114.04 35.22 113.05 42.72Z"/></svg>