<svg xmlns="http://www.w3.org/2000/svg" width="150" height="50"><path d="M19 44 C70 5,81 27,145 11" stroke="#666" fill="none"/><path d="M13 7 C62 5,67 23,133 42" stroke="#444" fill="none"/><path fill="#111" d="M29.53 39.76L29.58 39.81L29.58 39.81Q27.76 39.89 25.74 40.08L25.68 40.02L25.59 39.93Q26.37 34.81 26.37 29.97L26.37 29.97L26.41 30.01Q26.25 24.94 25.60 19.72L25.68 19.81L25.64 19.77Q21.08 19.39 17.88 17.71L17.83 17.67L17.22 16.02L17.24 16.05Q17.06 15.56 16.45 14.34L16.36 14.26L16.46 14.35Q21.47 16.96 27.48 17.15L27.45 17.13L27.39 17.07Q33.31 17.28 38.76 15.22L38.69 15.15L38.78 15.24Q38.05 16.64 37.40 18.47L37.43 18.49L37.37 18.43Q33.86 19.84 29.60 20.03L29.49 19.92L29.63 20.07Q29.31 24.95 29.31 29.90L29.24 29.84L29.39 29.98Q29.28 34.82 29.58 39.81ZM39.46 14.55L39.45 14.54L39.44 14.53Q33.71 16.91 27.51 16.72L27.40 16.62L27.34 16.55Q20.67 16.36 15.57 13.39L15.55 13.37L15.56 13.38Q16.32 14.67 17.62 17.95L17.79 18.12L17.79 18.12Q18.36 18.35 19.62 18.92L19.56 18.86L19.51 18.81Q19.96 19.72 20.30 21.24L20.13 21.07L20.23 21.17Q22.57 22.07 25.62 22.29L25.57 22.24L25.58 22.26Q25.83 25.82 25.83 29.59L25.89 29.65L25.83 29.59Q25.90 35.03 25.10 40.40L25.10 40.39L25.05 40.34Q26.89 40.39 27.42 40.39L27.36 40.33L27.43 40.40Q27.42 40.69 27.36 41.36L27.20 41.20L27.18 41.18Q27.26 41.98 27.26 42.33L27.27 42.34L27.29 42.35Q28.35 42.16 29.88 42.24L30.01 42.37L29.93 42.29Q30.74 42.22 32.57 42.38L32.71 42.52L32.74 42.55Q31.52 37.64 31.41 32.46L31.37 32.43L31.23 32.29Q31.09 26.97 31.62 22.06L31.70 22.13L31.66 22.09Q35.60 21.54 38.76 20.32L38.88 20.44L38.80 20.37Q39.55 18.03 40.58 15.97L40.53 15.93L40.47 15.87Q39.26 16.67 38.46 16.97L38.51 17.03L38.44 16.96Q38.87 15.67 39.44 14.53Z"/><path d="M4 32 C71 3,57 21,142 45" stroke="#777" fill="none"/><path fill="#333" d="M88.36 32.19L79.06 22.13L79.17 22.24Q79.94 25.86 79.94 29.60L79.98 29.64L79.88 29.53Q79.91 35.54 77.85 41.10L77.79 41.04L77.94 41.19Q76.88 41.46 74.64 42.23L74.57 42.15L74.46 42.05Q77.30 36.28 77.30 29.58L77.41 29.69L77.37 29.66Q77.32 20.96 72.82 13.53L72.83 13.54L72.93 13.64Q73.28 13.73 73.97 14.14L73.99 14.17L73.95 14.13Q86.12 25.43 93.97 34.68L94.00 34.71L93.90 34.61Q93.55 32.13 93.55 29.70L93.70 29.84L93.70 29.85Q93.69 22.60 96.21 16.40L96.21 16.40L96.08 16.27Q98.36 15.69 99.96 15.01L100.03 15.08L100.03 15.09Q96.83 21.36 96.53 28.52L96.35 28.35L96.41 28.40Q96.15 35.80 99.12 41.97L99.19 42.03L99.01 41.86Q98.45 41.79 98.03 41.60L98.20 41.77L98.18 41.74Q93.53 37.70 88.31 32.14L88.22 32.06ZM101.78 45.20L101.63 45.04L101.73 45.14Q102.09 45.20 102.51 45.39L102.59 45.47L103.53 45.92L103.45 45.84Q98.23 38.83 98.23 29.47L98.26 29.49L98.28 29.52Q98.35 22.35 101.66 16.10L101.56 16.00L101.54 15.99Q101.03 16.35 99.62 16.96L99.65 16.99L99.50 16.84Q99.98 16.10 100.82 14.54L100.83 14.55L100.75 14.47Q98.27 15.34 95.83 15.91L95.90 15.97L95.78 15.86Q93.19 22.36 93.19 29.79L93.18 29.78L93.23 29.83Q93.23 31.70 93.43 33.68L93.51 33.76L93.51 33.77Q88.79 28.02 84.03 23.41L83.97 23.35L73.92 13.68L73.84 13.60Q73.37 13.40 72.16 12.83L72.13 12.81L72.17 12.84Q77.08 20.61 77.08 29.71L77.00 29.63L77.11 29.73Q77.08 36.82 73.99 42.84L73.84 42.68L74.00 42.84Q74.34 42.76 75.98 42.15L75.86 42.03L75.79 41.97Q75.64 42.92 74.80 44.41L74.74 44.34L74.82 44.43Q76.06 43.80 79.52 43.00L79.50 42.98L79.51 42.99Q81.82 36.84 81.82 29.65L81.91 29.74L81.84 29.67Q81.76 27.49 81.53 25.36L81.57 25.40L81.53 25.37Q93.21 38.37 101.81 45.23Z"/><path fill="#222" d="M115.49 40.98L115.43 40.91L115.50 40.98Q111.36 29.76 106.22 24.77L106.27 24.82L106.31 24.87Q107.75 25.47 110.72 26.11L110.70 26.10L110.67 26.06Q114.15 29.92 116.70 36.58L116.69 36.58L116.76 36.64Q119.49 29.36 122.11 26.31L122.00 26.20L122.12 26.32Q123.98 26.09 126.42 25.41L126.45 25.44L126.40 25.39Q123.17 28.06 121.00 32.63L121.05 32.67L121.03 32.65Q120.66 33.32 117.28 40.93L117.30 40.95L117.35 41.01Q116.66 41.00 115.44 40.93ZM120.18 43.45L120.11 43.39L120.24 43.51Q123.48 31.10 128.04 26.42L128.16 26.53L126.57 26.92L126.46 26.82Q125.78 27.17 124.94 27.28L124.96 27.30L124.93 27.26Q125.46 26.92 126.28 26.04L126.29 26.05L126.22 25.99Q127.06 25.13 127.51 24.71L127.47 24.66L127.41 24.61Q125.25 25.30 121.82 25.79L121.84 25.82L121.90 25.87Q119.17 29.04 117.11 34.64L117.13 34.66L117.01 34.54Q115.45 30.42 113.62 27.95L113.61 27.94L113.10 27.96L113.16 28.02Q112.90 28.03 112.68 28.03L112.55 27.90L112.67 28.03Q112.31 27.55 110.59 25.49L110.74 25.64L110.59 25.49Q107.31 25.06 105.06 23.92L105.08 23.94L105.17 24.03Q111.19 29.63 115.19 41.36L115.14 41.31L116.16 41.34L116.29 41.46Q116.50 41.99 117.34 43.28L117.42 43.36L118.72 43.29L118.76 43.33Q119.54 43.38 120.18 43.46Z"/><path fill="#222" d="M58.21 27.68L58.20 27.68L58.21 27.69Q54.77 27.66 53.66 31.02L53.61 30.97L53.61 30.96Q53.36 32.16 53.25 33.23L53.21 33.19L53.13 33.11Q52.99 35.22 53.98 36.55L53.97 36.54L54.01 36.57Q55.23 37.65 57.70 37.68L57.75 37.73L57.76 37.74Q59.59 37.79 61.00 36.64L60.88 36.52L61.06 36.70Q62.29 35.38 62.29 33.59L62.47 33.77L62.34 33.65Q62.39 33.35 62.31 32.97L62.37 33.02L62.22 32.87Q61.98 27.73 58.18 27.65ZM58.12 40.16L58.24 40.28L58.23 40.27Q54.32 40.39 52.53 38.37L52.60 38.44L52.50 38.35Q52.40 39.50 51.94 40.87L51.82 40.74L51.78 40.71Q49.97 41.60 48.71 42.17L48.56 42.01L48.55 42.01Q50.79 36.10 50.79 29.59L50.85 29.65L50.83 29.63Q50.84 21.34 47.41 13.50L47.49 13.58L47.34 13.43Q49.70 14.80 51.03 15.25L51.03 15.25L51.05 15.27Q53.09 21.84 53.24 27.66L53.26 27.69L53.39 27.81Q54.78 25.10 58.52 25.13L58.51 25.13L58.47 25.09Q61.77 25.20 63.26 27.06L63.30 27.10L63.28 27.09Q64.98 29.24 65.13 32.82L65.13 32.82L65.10 32.78Q65.28 34.07 65.21 35.67L65.10 35.57L65.23 35.69Q65.17 37.12 64.30 38.26L64.24 38.21L64.33 38.30Q62.51 39.94 58.17 40.20ZM63.63 42.70L63.56 42.63L63.72 42.79Q65.23 42.81 66.72 42.13L66.66 42.07L66.65 42.06Q67.73 40.74 67.77 38.80L67.74 38.78L67.77 38.81Q67.72 38.26 67.57 37.08L67.60 37.12L67.59 37.11Q67.50 36.41 67.39 35.49L67.47 35.57L67.49 35.59Q66.55 30.69 64.99 28.64L65.06 28.71L64.97 28.62Q65.07 28.69 64.27 27.81L64.25 27.79L64.23 27.76Q64.00 27.49 63.46 26.69L63.51 26.74L63.53 26.76Q61.84 24.73 58.49 24.77L58.57 24.85L58.62 24.90Q56.50 24.87 55.25 25.48L55.32 25.55L55.18 25.41Q54.94 20.99 54.33 17.79L54.26 17.72L54.26 17.71Q53.56 17.58 52.07 17.20L52.16 17.29L52.13 17.26Q51.91 16.43 51.45 14.99L51.49 15.03L51.43 14.96Q49.08 14.25 46.83 12.69L46.86 12.72L46.73 12.59Q50.63 20.91 50.63 29.70L50.55 29.62L50.59 29.66Q50.54 36.58 48.07 42.78L48.08 42.80L48.09 42.80Q48.76 42.44 50.09 41.87L50.14 41.92L50.12 41.90Q49.79 42.57 49.18 44.09L49.25 44.16L49.28 44.19Q51.15 43.16 53.93 42.63L53.99 42.69L54.47 40.97L54.32 40.81Q56.68 42.56 63.60 42.67ZM59.88 30.04L59.85 30.01L59.81 29.97Q60.80 29.93 61.33 30.31L61.37 30.35L61.38 30.36Q61.75 30.92 61.98 32.93L62.03 32.98L61.89 32.85Q62.21 34.85 60.96 36.16L60.91 36.11L60.96 36.16Q59.70 37.47 57.76 37.36L57.79 37.39L57.83 37.43Q56.86 37.52 55.37 37.03L55.41 37.06L55.32 36.97Q55.19 36.58 55.19 36.05L55.02 35.87L55.21 36.06Q55.16 32.93 56.72 31.33L56.57 31.19L56.67 31.32L56.56 31.21Q58.17 30.01 59.92 30.08Z"/><path d="M12 27 C63 38,86 45,134 38" stroke="#777" fill="none"/></svg>